<?xml version="1.0" standalone="no"?>
<!DOCTYPE svg PUBLIC "-//W3C//DTD SVG 1.1//EN" "http://www.w3.org/Graphics/SVG/1.1/DTD/svg11.dtd" >
<svg xmlns="http://www.w3.org/2000/svg" xmlns:xlink="http://www.w3.org/1999/xlink" version="1.1">
<metadata>
Created by FontForge 20170731 at Fri Mar 23 06:02:00 2007
 By nod
Copyright (c) 2006 by Boutros and Panache Typography. All rights reserved.
</metadata>
<defs>
<font id="TanseekMExtraBold" horiz-adv-x="0" >
  <font-face 
    font-family="Tanseek M Extra Bold"
    font-weight="400"
    font-stretch="normal"
    units-per-em="1000"
    panose-1="2 0 0 0 0 0 0 0 0 0"
    ascent="750"
    descent="-250"
    x-height="332"
    cap-height="467"
    bbox="-89 -326 1081 881"
    underline-thickness="10"
    underline-position="-20"
    stemh="117"
    stemv="117"
    unicode-range="U+0020-FEFF"
  />
<missing-glyph 
 />
    <glyph glyph-name="alefmaddaabovearabic" unicode="&#x627;&#x653;" horiz-adv-x="211" 
d="M164 467v-467l-117 -66v533h117zM162 589l36 -37l-33 -33c-8 -8 -18 -14 -30 -14c-24 0 -48 26 -57 26c-3 0 -5 -3 -11 -8l-19 -20l-37 37l20 20c13 13 23 26 43 26c24 0 49 -26 56 -26c4 0 6 2 12 8z" />
    <glyph glyph-name="alefhamzaabovearabic" unicode="&#x627;&#x654;" horiz-adv-x="211" 
d="M164 467v-467l-117 -66v533h117zM157 643v-52h-28c-10 0 -23 -2 -23 -17c0 -12 9 -16 22 -16h48v-52h-142v52h24c-1 5 -3 12 -3 18c0 39 29 67 75 67h27z" />
    <glyph glyph-name="wawhamzaabovearabic" unicode="&#x648;&#x654;" horiz-adv-x="386" 
d="M222 117v97h-38c-15 0 -20 -9 -20 -22v-53c0 -15 7 -22 20 -22h38zM138 -175l-77 107h28c57 1 121 9 134 68h-46c-83 0 -130 73 -130 136v58c0 84 58 138 143 138h149v-322c0 -119 -62 -181 -201 -185zM246 508v-52h-29c-10 0 -22 -2 -22 -17c0 -11 9 -16 21 -16h49v-51
h-143v51h24c-1 6 -3 12 -3 19c0 38 29 67 75 67c8 0 21 0 28 -1z" />
    <glyph glyph-name="alefhamzabelowarabic" unicode="&#x627;&#x655;" horiz-adv-x="211" 
d="M164 467v-467h-117v467h117zM157 -39v-51h-28c-10 0 -23 -2 -23 -17c0 -12 9 -16 22 -16h48v-52h-142v52h24c-1 5 -3 12 -3 18c0 38 29 67 75 67c8 0 20 0 27 -1z" />
    <glyph glyph-name="yehhamzaabovearabic" unicode="&#x64a;&#x654;" horiz-adv-x="560" 
d="M393 0h-32c-86 0 -140 63 -140 138v56c0 89 66 138 149 138h144v-118h-156c-12 0 -19 -7 -19 -22v-53c0 -10 3 -22 19 -22h156v-110c0 -131 -128 -185 -234 -185s-233 55 -233 186v123l117 77v-178c0 -75 67 -89 118 -89c36 0 102 13 111 59zM158 383v-51h-29
c-9 0 -22 -2 -22 -17c0 -12 9 -16 22 -16h48v-52h-143v52h25c-2 5 -3 12 -3 18c0 38 29 67 75 67c8 0 20 0 27 -1z" />
    <glyph glyph-name="shaddafathatanarabic" unicode="&#x64b;&#x651;" 
d="M33 680v51h143v-51h-143zM33 764v53h143v-53h-143zM78 557v86h52v-86h20c7 0 7 2 7 5v81h52v-90c0 -25 -12 -48 -52 -48h-108c-34 0 -49 21 -49 48v90h52v-81c0 -5 3 -5 6 -5h20z" />
    <glyph glyph-name="fi" unicode="fi" horiz-adv-x="482" 
d="M438 433c0 -37 -28 -67 -64 -67s-64 30 -64 67c0 36 28 66 64 66s64 -30 64 -66zM481 8c-18 -7 -56 -15 -98 -15c-31 0 -68 11 -68 69v270h118v-242c0 -12 4 -17 17 -17c5 0 12 2 19 3zM291 469l-19 -82c-10 4 -34 8 -47 8c-30 0 -41 -8 -41 -40v-23h77v-82h-77v-250
h-119v250h-58l17 82h41v29c0 83 37 119 135 119c27 0 53 -2 91 -11z" />
    <glyph glyph-name="fl" unicode="fl" horiz-adv-x="479" 
d="M479 8c-17 -7 -55 -15 -97 -15c-31 0 -69 11 -69 69v405h119v-377c0 -12 4 -17 16 -17c5 0 12 2 20 3zM291 469l-19 -82c-10 4 -34 8 -47 8c-30 0 -41 -8 -41 -40v-23h77v-82h-77v-250h-119v250h-58l17 82h41v29c0 83 37 119 135 119c27 0 53 -2 91 -11z" />
    <glyph glyph-name="shaddadammatanarabic" unicode="&#x64c;&#x651;" arabic-form="isolated" 
d="M188 786c6 4 14 11 14 19c0 7 -5 13 -13 13c-7 0 -13 -5 -13 -12c0 -9 7 -14 12 -20zM145 757c-11 14 -20 28 -20 47c0 37 30 65 65 65c36 0 64 -31 64 -66c0 -22 -8 -37 -29 -51l16 -16l-40 -32l-19 17l-36 -27c-10 -7 -21 -15 -33 -15s-21 7 -35 25l-12 15l-19 -37
l-47 23l27 49c9 18 21 28 39 28c31 0 46 -42 55 -42c2 0 5 2 7 3zM102 557v86h52v-86h20c7 0 7 2 7 5v81h52v-90c0 -25 -13 -48 -52 -48h-108c-34 0 -49 21 -49 48v90h52v-81c0 -5 3 -5 6 -5h20z" />
    <glyph glyph-name="shaddakasratanarabic" unicode="&#x64d;&#x651;" arabic-form="isolated" 
d="M33 643h143v-53h-143v53zM33 557h143v-52h-143v52zM78 731v86h52v-86h20c7 0 7 2 7 5v81h52v-90c0 -24 -12 -47 -52 -47h-108c-34 0 -49 21 -49 47v90h52v-81c0 -5 3 -5 6 -5h20z" />
    <glyph glyph-name="shaddafathaarabic" unicode="&#x64e;&#x651;" arabic-form="isolated" 
d="M33 680v51h143v-51h-143zM78 557v86h52v-86h20c7 0 7 2 7 5v81h52v-90c0 -25 -12 -48 -52 -48h-108c-34 0 -49 21 -49 48v90h52v-81c0 -5 3 -5 6 -5h20z" />
    <glyph glyph-name="shaddadammaarabic" unicode="&#x64f;&#x651;" arabic-form="isolated" 
d="M78 557v86h52v-86h20c7 0 7 2 7 5v81h52v-90c0 -25 -12 -48 -52 -48h-108c-34 0 -49 21 -49 48v90h52v-81c0 -5 3 -5 6 -5h20zM137 797c6 5 13 11 13 19c0 7 -6 13 -13 13s-12 -6 -12 -13c0 -8 7 -13 12 -19zM94 768c-11 15 -21 30 -21 50c0 35 31 63 65 63
c36 0 64 -29 64 -64c0 -23 -10 -41 -28 -55l15 -16l-39 -31l-19 17c-32 -22 -68 -40 -104 -54l-22 44c31 12 61 28 89 46z" />
    <glyph glyph-name="shaddakasraarabic" unicode="&#x650;&#x651;" arabic-form="isolated" 
d="M33 558h143v-53h-143v53zM78 647v85h52v-85h20c7 0 7 1 7 5v80h52v-89c0 -25 -12 -48 -52 -48h-108c-34 0 -49 21 -49 48v89h52v-80c0 -5 3 -5 6 -5h20z" />
    <glyph glyph-name="shaddasuperscriptalef" unicode="&#x651;&#x670;" arabic-form="isolated" 
d="M78 676v165h52v-165h-52zM78 557v86h52v-86h20c7 0 7 2 7 5v81h52v-90c0 -25 -12 -48 -52 -48h-108c-34 0 -49 21 -49 48v90h52v-81c0 -5 3 -5 6 -5h20z" />
    <glyph glyph-name="allah" unicode="&#xfedf;&#xfee0;&#xfeea;" horiz-adv-x="841" arabic-form="isolated" 
d="M482 676v165h51v-165h-51zM482 557v86h51v-86h21c6 0 7 2 7 5v81h51v-90c0 -25 -12 -48 -52 -48h-108c-33 0 -49 21 -49 48v90h52v-81c0 -5 3 -5 6 -5h21zM222 117v97h-39c-15 0 -19 -13 -19 -22v-54c0 -12 7 -21 19 -21h39zM661 0h-440v74l-53 -74
c-77 10 -121 68 -121 138v56c0 81 61 138 131 138h161v-215h110v350h117v-350h90c15 0 21 9 21 22v328h117v-329c0 -78 -58 -138 -133 -138z" />
    <glyph glyph-name="lamalefmaddaaboveisolatedarabic" unicode="&#xfedf;&#xfe82;" horiz-adv-x="480" arabic-form="isolated" 
d="M434 467v-329c0 -77 -57 -138 -133 -138h-254v117h108l-84 215h126l83 -215h15c9 0 21 4 21 19v331h118zM189 454l36 -36l-33 -34c-8 -8 -18 -13 -30 -13c-25 0 -49 25 -57 25c-3 0 -6 -2 -11 -8l-20 -19l-36 37l19 19c18 18 26 26 44 26c24 0 49 -26 56 -26
c3 0 6 3 12 9z" />
    <glyph glyph-name="lamalefmaddaabovefinalarabic" unicode="&#xfee0;&#xfe82;" horiz-adv-x="469" arabic-form="final" 
d="M473 0h-426v117h108l-84 215h126l83 -215h36v350h118v-350h39v-117zM189 454l36 -36l-33 -34c-8 -8 -18 -13 -30 -13c-25 0 -49 25 -57 25c-3 0 -6 -2 -11 -8l-20 -19l-36 37l19 19c18 18 26 26 44 26c24 0 49 -26 56 -26c3 0 6 3 12 9z" />
    <glyph glyph-name="lamalefhamzaaboveisolatedarabic" unicode="&#xfedf;&#xfe84;" horiz-adv-x="480" arabic-form="isolated" 
d="M434 467v-329c0 -77 -57 -138 -133 -138h-254v117h108l-84 215h126l83 -215h15c9 0 21 4 21 19v331h118zM179 508v-52h-29c-9 0 -22 -2 -22 -17c0 -11 9 -16 22 -16h48v-51h-143v51h25c-2 6 -3 12 -3 19c0 38 29 67 75 67c8 0 20 0 27 -1z" />
    <glyph glyph-name="lamalefhamzaabovefinalarabic" unicode="&#xfee0;&#xfe84;" horiz-adv-x="469" arabic-form="final" 
d="M473 0h-426v117h108l-84 215h126l83 -215h36v350h118v-350h39v-117zM179 508v-52h-29c-9 0 -22 -2 -22 -17c0 -11 9 -16 22 -16h48v-51h-143v51h25c-2 6 -3 12 -3 19c0 38 29 67 75 67c8 0 20 0 27 -1z" />
    <glyph glyph-name="lamalefhamzabelowisolatedarabic" unicode="&#xfedf;&#xfe88;" horiz-adv-x="480" arabic-form="isolated" 
d="M434 467v-329c0 -77 -57 -138 -133 -138h-254v117h108l-84 215h126l83 -215h15c9 0 21 4 21 19v331h118zM171 -39v-51h-29c-10 0 -22 -2 -22 -17c0 -12 9 -16 21 -16h49v-52h-143v52h24c-1 5 -2 12 -2 18c0 38 28 67 74 67c8 0 21 0 28 -1z" />
    <glyph glyph-name="lamalefhamzabelowfinalarabic" unicode="&#xfee0;&#xfe88;" horiz-adv-x="469" arabic-form="final" 
d="M473 0h-426v117h108l-84 215h126l83 -215h36v350h118v-350h39v-117zM171 -39v-51h-29c-10 0 -22 -2 -22 -17c0 -12 9 -16 21 -16h49v-52h-143v52h24c-1 5 -2 12 -2 18c0 38 28 67 74 67c8 0 21 0 28 -1z" />
    <glyph glyph-name="lamalefisolatedarabic" unicode="&#xfedf;&#xfe8e;" horiz-adv-x="480" arabic-form="isolated" 
d="M434 467v-329c0 -77 -57 -138 -133 -138h-254v117h108l-84 215h126l83 -215h15c9 0 21 4 21 19v331h118z" />
    <glyph glyph-name="lamaleffinalarabic" unicode="&#xfee0;&#xfe8e;" horiz-adv-x="469" arabic-form="final" 
d="M473 0h-426v117h108l-84 215h126l83 -215h36v350h118v-350h39v-117z" />
    <glyph glyph-name="hamzaarabic" unicode="&#x621;" horiz-adv-x="435" arabic-form="isolated" 
d="M395 155v-132c-96 -27 -200 -90 -280 -153l-62 102c27 21 56 41 87 57c-42 28 -95 72 -95 140c0 109 95 163 196 163c28 0 59 -3 87 -8v-118c-26 7 -53 13 -79 13c-37 0 -80 -12 -80 -48c0 -51 63 -61 95 -61c49 0 88 21 131 45z" />
    <glyph glyph-name="alefarabic" unicode="&#x627;" horiz-adv-x="211" arabic-form="isolated" 
d="M164 467v-467l-117 -66v533h117z" />
    <glyph glyph-name="beharabic" unicode="&#x628;" horiz-adv-x="670" arabic-form="isolated" 
d="M624 332v-194c0 -77 -56 -138 -133 -138h-313c-74 0 -131 60 -131 138v66l117 76v-143c0 -15 8 -20 21 -20h300c11 0 21 6 21 20v195h118zM393 -111c0 -31 -25 -55 -55 -55c-29 0 -54 24 -54 55c0 29 25 53 54 53c30 0 55 -24 55 -53z" />
    <glyph glyph-name="tehmarbutaarabic" unicode="&#x629;" horiz-adv-x="386" arabic-form="isolated" 
d="M339 332v-194c0 -69 -46 -139 -147 -139c-100 0 -145 70 -145 139v56c0 80 57 138 139 138h153zM222 214h-39c-12 0 -19 -8 -19 -22v-46c0 -19 10 -30 28 -30c20 0 30 13 30 30v68zM309 425c0 -29 -24 -53 -54 -53s-55 24 -55 53c0 31 25 55 55 55s54 -24 54 -55z
M190 425c0 -29 -25 -53 -55 -53c-29 0 -54 24 -54 53c0 31 25 55 54 55c30 0 55 -24 55 -55z" />
    <glyph glyph-name="teharabic" unicode="&#x62a;" horiz-adv-x="670" arabic-form="isolated" 
d="M453 425c0 -29 -25 -53 -55 -53c-29 0 -54 24 -54 53c0 31 25 55 54 55c30 0 55 -24 55 -55zM333 425c0 -29 -24 -53 -54 -53s-54 24 -54 53c0 31 24 55 54 55s54 -24 54 -55zM624 332v-194c0 -77 -56 -138 -133 -138h-313c-74 0 -131 60 -131 138v66l117 76v-143
c0 -15 8 -20 21 -20h300c11 0 21 6 21 20v195h118z" />
    <glyph glyph-name="theharabic" unicode="&#x62b;" horiz-adv-x="670" arabic-form="isolated" 
d="M453 425c0 -29 -25 -53 -55 -53c-29 0 -54 24 -54 53c0 31 25 55 54 55c30 0 55 -24 55 -55zM388 533c0 -27 -22 -49 -49 -49s-49 23 -49 49c0 27 22 49 49 49s49 -22 49 -49zM333 425c0 -29 -24 -53 -54 -53s-54 24 -54 53c0 31 24 55 54 55s54 -24 54 -55zM624 332
v-194c0 -77 -56 -138 -133 -138h-313c-74 0 -131 60 -131 138v66l117 76v-143c0 -15 8 -20 21 -20h300c11 0 21 6 21 20v195h118z" />
    <glyph glyph-name="jeemarabic" unicode="&#x62c;" horiz-adv-x="454" arabic-form="isolated" 
d="M115 332h150c89 0 142 -61 142 -138v-56c0 -81 -55 -138 -143 -138h-65c-14 0 -34 -6 -34 -28c0 -19 14 -30 34 -30h81l-78 -117h-11c-80 0 -144 72 -144 148c0 100 77 144 152 144h70c17 0 21 12 21 22v53c0 12 -6 22 -20 22h-155v118zM407 -111c0 -31 -25 -55 -54 -55
c-30 0 -55 24 -55 55c0 29 25 53 55 53c29 0 54 -24 54 -53z" />
    <glyph glyph-name="haharabic" unicode="&#x62d;" horiz-adv-x="454" arabic-form="isolated" 
d="M115 332h150c89 0 142 -61 142 -138v-56c0 -81 -55 -138 -143 -138h-65c-14 0 -34 -6 -34 -28c0 -19 14 -30 34 -30h208l-78 -117h-138c-80 0 -144 72 -144 148c0 100 77 144 152 144h70c17 0 21 12 21 22v53c0 12 -6 22 -20 22h-155v118z" />
    <glyph glyph-name="khaharabic" unicode="&#x62e;" horiz-adv-x="454" arabic-form="isolated" 
d="M290 425c0 -29 -25 -53 -54 -53c-30 0 -55 24 -55 53c0 31 25 55 55 55c29 0 54 -24 54 -55zM115 332h150c89 0 142 -61 142 -138v-56c0 -81 -55 -138 -143 -138h-65c-14 0 -34 -6 -34 -28c0 -19 14 -30 34 -30h208l-78 -117h-138c-80 0 -144 72 -144 148
c0 100 77 144 152 144h70c17 0 21 12 21 22v53c0 12 -6 22 -20 22h-155v118z" />
    <glyph glyph-name="dalarabic" unicode="&#x62f;" horiz-adv-x="399" arabic-form="isolated" 
d="M47 0v117h160c22 0 30 17 30 31c0 31 -8 66 -69 66h-66v118h59c130 0 194 -62 194 -185c0 -100 -66 -147 -142 -147h-166z" />
    <glyph glyph-name="thalarabic" unicode="&#x630;" horiz-adv-x="399" arabic-form="isolated" 
d="M211 425c0 -29 -25 -53 -55 -53c-29 0 -54 24 -54 53c0 31 25 55 54 55c30 0 55 -24 55 -55zM47 0v117h160c22 0 30 17 30 31c0 31 -8 66 -69 66h-66v118h59c130 0 194 -62 194 -185c0 -100 -66 -147 -142 -147h-166z" />
    <glyph glyph-name="reharabic" unicode="&#x631;" horiz-adv-x="278" arabic-form="isolated" 
d="M231 332v-338c0 -82 -41 -133 -132 -169l-82 108c55 4 97 29 97 82v317h117z" />
    <glyph glyph-name="zainarabic" unicode="&#x632;" horiz-adv-x="278" arabic-form="isolated" 
d="M227 425c0 -29 -25 -53 -55 -53c-29 0 -54 24 -54 53c0 31 25 55 54 55c30 0 55 -24 55 -55zM231 332v-338c0 -82 -41 -133 -132 -169l-82 108c55 4 97 29 97 82v317h117z" />
    <glyph glyph-name="seenarabic" unicode="&#x633;" horiz-adv-x="911" arabic-form="isolated" 
d="M513 0c-5 -127 -136 -178 -233 -178c-137 0 -233 73 -233 186v123l117 77v-178c0 -75 67 -89 117 -89c53 0 115 17 115 89v302h118v-215h57v215h118v-215h36c16 0 22 10 22 23v192h117v-194c0 -79 -53 -138 -144 -138h-207z" />
    <glyph glyph-name="sheenarabic" unicode="&#x634;" horiz-adv-x="911" arabic-form="isolated" 
d="M743 425c0 -29 -23 -53 -54 -53c-30 0 -54 24 -54 53c0 31 24 55 54 55c31 0 54 -24 54 -55zM624 425c0 -29 -24 -53 -54 -53s-54 24 -54 53c0 31 24 55 54 55s54 -24 54 -55zM679 533c0 -27 -22 -49 -49 -49s-50 23 -50 49c0 27 23 49 50 49s49 -22 49 -49zM513 0
c-5 -127 -136 -178 -233 -178c-137 0 -233 73 -233 186v123l117 77v-178c0 -75 67 -89 117 -89c53 0 115 17 115 89v302h118v-215h57v215h118v-215h36c16 0 22 10 22 23v192h117v-194c0 -79 -53 -138 -144 -138h-207z" />
    <glyph glyph-name="sadarabic" unicode="&#x635;" horiz-adv-x="854" arabic-form="isolated" 
d="M514 117h155c10 0 21 4 21 22v54c0 9 0 25 -13 25c-7 0 -15 -3 -22 -6l-122 -43c-17 -6 -19 -10 -19 -26v-26zM675 0h-162c-5 -127 -136 -178 -233 -178c-137 0 -233 73 -233 186v123l117 77v-178c0 -75 67 -89 117 -89c53 0 115 17 115 89v302h118v-46l116 41
c15 5 32 9 49 9c76 0 129 -66 129 -128v-70c0 -72 -56 -138 -133 -138z" />
    <glyph glyph-name="dadarabic" unicode="&#x636;" horiz-adv-x="854" arabic-form="isolated" 
d="M666 425c0 -29 -23 -53 -54 -53c-30 0 -53 24 -53 53c0 31 23 55 53 55c31 0 54 -24 54 -55zM514 117h155c10 0 21 4 21 22v54c0 9 0 25 -13 25c-7 0 -15 -3 -22 -6l-122 -43c-17 -6 -19 -10 -19 -26v-26zM675 0h-162c-5 -127 -136 -178 -233 -178
c-137 0 -233 73 -233 186v123l117 77v-178c0 -75 67 -89 117 -89c53 0 115 17 115 89v302h118v-46l116 41c15 5 32 9 49 9c76 0 129 -66 129 -128v-70c0 -72 -56 -138 -133 -138z" />
    <glyph glyph-name="taharabic" unicode="&#x637;" horiz-adv-x="627" arabic-form="isolated" 
d="M287 286l116 41c16 5 32 9 49 9c76 0 129 -66 129 -128v-70c0 -77 -55 -138 -133 -138h-161v-22l-117 -61v83h-123l54 117h69v350h117v-181zM287 117h155c10 0 21 4 21 22v54c0 9 0 25 -13 25c-7 0 -15 -3 -22 -6l-121 -43c-18 -6 -20 -10 -20 -26v-26z" />
    <glyph glyph-name="zaharabic" unicode="&#x638;" horiz-adv-x="628" arabic-form="isolated" 
d="M444 425c0 -29 -24 -53 -54 -53s-54 24 -54 53c0 31 24 55 54 55s54 -24 54 -55zM287 286l116 41c16 5 32 9 49 9c76 0 129 -66 129 -128v-70c0 -77 -55 -138 -133 -138h-161v-22l-117 -61v83h-123l54 117h69v350h117v-181zM287 117h155c10 0 21 4 21 22v54
c0 9 0 25 -13 25c-7 0 -15 -3 -22 -6l-121 -43c-18 -6 -20 -10 -20 -26v-26z" />
    <glyph glyph-name="ainarabic" unicode="&#x639;" horiz-adv-x="456" arabic-form="isolated" 
d="M407 -58l-78 -117h-138c-81 0 -144 72 -144 149c0 36 13 73 38 98c-14 20 -15 44 -15 66v56c0 80 55 138 141 138h152v-118h-157c-13 0 -19 -9 -19 -22v-54c0 -10 4 -21 20 -21h202v-117h-208c-16 0 -36 -4 -36 -28c0 -19 13 -30 34 -30h208z" />
    <glyph glyph-name="ghainarabic" unicode="&#x63a;" horiz-adv-x="456" arabic-form="isolated" 
d="M291 425c0 -29 -24 -53 -54 -53s-54 24 -54 53c0 31 24 55 54 55s54 -24 54 -55zM407 -58l-78 -117h-138c-81 0 -144 72 -144 149c0 36 13 73 38 98c-14 20 -15 44 -15 66v56c0 80 55 138 141 138h152v-118h-157c-13 0 -19 -9 -19 -22v-54c0 -10 4 -21 20 -21h202v-117
h-208c-16 0 -36 -4 -36 -28c0 -19 13 -30 34 -30h208z" />
    <glyph glyph-name="feharabic" unicode="&#x641;" horiz-adv-x="670" arabic-form="isolated" 
d="M624 332v-194c0 -81 -60 -138 -133 -138h-312c-74 0 -132 58 -132 138v66l117 76v-141c0 -15 8 -22 21 -22h146v77c0 77 55 138 139 138h154zM449 117h36c13 0 21 5 21 20v77h-38c-12 0 -19 -8 -19 -22v-75zM534 425c0 -29 -24 -53 -55 -53c-30 0 -53 24 -53 53
c0 31 23 55 53 55c31 0 55 -24 55 -55z" />
    <glyph glyph-name="qafarabic" unicode="&#x642;" horiz-adv-x="560" arabic-form="isolated" 
d="M396 117v97h-38c-16 0 -19 -13 -19 -22v-56c0 -8 5 -19 19 -19h38zM393 0h-30c-91 0 -142 63 -142 138v56c0 73 51 138 136 138h157v-320c0 -134 -125 -190 -234 -190c-103 0 -233 53 -233 190v119l117 77v-178c0 -75 67 -89 117 -89c43 0 98 13 112 59zM484 425
c0 -29 -25 -53 -55 -53c-29 0 -54 24 -54 53c0 31 25 55 54 55c30 0 55 -24 55 -55zM364 425c0 -29 -24 -53 -54 -53s-55 24 -55 53c0 31 25 55 55 55s54 -24 54 -55z" />
    <glyph glyph-name="kafarabic" unicode="&#x643;" horiz-adv-x="670" arabic-form="isolated" 
d="M624 467v-329c0 -77 -56 -138 -133 -138h-313c-74 0 -131 60 -131 138v66l117 76v-143c0 -15 8 -20 21 -20h300c11 0 21 6 21 20v330h118zM385 365v-52h-29c-10 0 -22 -2 -22 -17c0 -12 9 -16 22 -16h48v-52h-143v52h25c-2 6 -3 12 -3 18c0 39 28 68 75 68
c7 0 20 0 27 -1z" />
    <glyph glyph-name="lamarabic" unicode="&#x644;" horiz-adv-x="560" arabic-form="isolated" 
d="M514 467l-1 -464c0 -128 -136 -181 -233 -181c-137 0 -233 73 -233 186v123l117 77v-178c0 -75 67 -89 117 -89c53 0 115 17 115 89v437h118z" />
    <glyph glyph-name="meemarabic" unicode="&#x645;" horiz-adv-x="485" arabic-form="isolated" 
d="M146 117v77c0 76 53 138 139 138h153v-194c0 -81 -60 -138 -132 -138h-107c-21 0 -35 -4 -35 -33v-77l-117 -68v173c0 69 32 110 99 122zM321 214h-38c-15 0 -20 -10 -20 -22v-75h39c13 0 19 10 19 22v75z" />
    <glyph glyph-name="noonarabic" unicode="&#x646;" horiz-adv-x="560" arabic-form="isolated" 
d="M337 425c0 -29 -24 -53 -54 -53s-54 24 -54 53c0 31 24 55 54 55s54 -24 54 -55zM514 332l-1 -329c0 -128 -136 -181 -233 -181c-137 0 -233 73 -233 186v123l117 77v-178c0 -75 67 -89 117 -89c53 0 115 17 115 89v302h118z" />
    <glyph glyph-name="heharabic" unicode="&#x647;" horiz-adv-x="386" arabic-form="isolated" 
d="M339 332v-194c0 -88 -65 -139 -147 -139c-90 0 -145 60 -145 139v56c0 80 54 138 141 138h151zM222 214h-39c-15 0 -19 -10 -19 -22v-44c0 -21 11 -32 28 -32c18 0 30 11 30 32v66z" />
    <glyph glyph-name="wawarabic" unicode="&#x648;" horiz-adv-x="386" arabic-form="isolated" 
d="M222 117v97h-38c-13 0 -20 -8 -20 -22v-53c0 -13 7 -22 20 -22h38zM138 -175l-77 107h27c55 0 121 9 135 68h-45c-85 0 -131 73 -131 139v55c0 80 54 138 137 138h155v-324c0 -142 -85 -177 -201 -183z" />
    <glyph glyph-name="alefmaksuraarabic" unicode="&#x649;" horiz-adv-x="560" arabic-form="isolated" 
d="M393 0h-27c-94 0 -145 60 -145 138v56c0 74 53 138 139 138h154v-118h-156c-12 0 -19 -8 -19 -20v-56c0 -12 6 -21 19 -21h156v-109c0 -133 -129 -186 -234 -186c-111 0 -233 58 -233 191v118l117 77v-178c0 -75 67 -89 118 -89c36 0 101 13 111 59z" />
    <glyph glyph-name="yeharabic" unicode="&#x64a;" horiz-adv-x="560" arabic-form="isolated" 
d="M398 -272c0 -30 -24 -54 -54 -54s-54 24 -54 54s24 54 54 54s54 -24 54 -54zM279 -272c0 -30 -24 -54 -54 -54s-54 24 -54 54s24 54 54 54s54 -24 54 -54zM393 0h-27c-94 0 -145 60 -145 138v56c0 74 53 138 139 138h154v-118h-156c-12 0 -19 -8 -19 -20v-56
c0 -12 6 -21 19 -21h156v-109c0 -133 -129 -186 -234 -186c-111 0 -233 58 -233 191v118l117 77v-178c0 -75 67 -89 118 -89c36 0 101 13 111 59z" />
    <glyph glyph-name="alefwaslaarabic" unicode="&#x671;" horiz-adv-x="211" arabic-form="isolated" 
d="M127 552c16 1 35 14 35 27c0 3 -2 7 -7 7c-9 0 -14 -23 -28 -34zM-4 547l37 37c7 7 12 10 19 10c14 0 32 -21 36 -21c8 0 23 56 68 56c29 0 50 -24 50 -52c0 -42 -41 -71 -80 -71c-38 0 -65 29 -69 29c-2 0 -3 -1 -4 -2l-22 -22zM164 467v-467l-117 -66v533h117z" />
    <glyph glyph-name="tteharabic" unicode="&#x679;" horiz-adv-x="670" arabic-form="isolated" 
d="M335 424h49c4 0 7 4 7 8v21c0 3 0 7 -5 7c-2 0 -4 -1 -5 -2l-38 -14c-5 -1 -8 -4 -8 -9v-11zM335 372v-12l-52 -26v38h-46l22 52h24v130h52v-57l39 14c6 2 12 3 19 3c26 0 50 -18 50 -49v-50c0 -25 -22 -43 -50 -43h-58zM624 332v-194c0 -77 -56 -138 -133 -138h-313
c-74 0 -131 60 -131 138v63l117 76v-140c0 -15 8 -20 21 -20h300c11 0 21 6 21 20v195h118z" />
    <glyph glyph-name="peharabic" unicode="&#x67e;" horiz-adv-x="670" arabic-form="isolated" 
d="M453 -111c0 -31 -25 -55 -55 -55c-29 0 -54 24 -54 55c0 29 25 53 54 53c30 0 55 -24 55 -53zM388 -219c0 -27 -22 -49 -49 -49s-49 22 -49 49c0 26 22 49 49 49s49 -22 49 -49zM333 -111c0 -31 -24 -55 -54 -55s-54 24 -54 55c0 29 24 53 54 53s54 -24 54 -53zM624 332
v-194c0 -77 -56 -138 -133 -138h-313c-74 0 -131 60 -131 138v66l117 76v-143c0 -15 8 -20 21 -20h300c11 0 21 6 21 20v195h118z" />
    <glyph glyph-name="tcheharabic" unicode="&#x686;" horiz-adv-x="454" arabic-form="isolated" 
d="M407 -84c0 -20 -17 -37 -37 -37c-21 0 -38 17 -38 37s17 37 38 37c20 0 37 -17 37 -37zM322 -84c0 -20 -17 -37 -37 -37s-37 17 -37 37s17 37 37 37s37 -17 37 -37zM360 -157c0 -17 -14 -32 -32 -32c-17 0 -32 15 -32 32c0 18 15 32 32 32c18 0 32 -14 32 -32zM222 -58
l-74 -110c-58 20 -101 79 -101 141c0 100 77 144 152 144h70c17 0 21 12 21 22v53c0 12 -6 22 -20 22h-155v118h150c89 0 142 -61 142 -138v-56c0 -81 -55 -138 -143 -138h-65c-14 0 -34 -6 -34 -28c0 -19 14 -30 34 -30h23z" />
    <glyph glyph-name="ddalarabic" unicode="&#x688;" horiz-adv-x="400" arabic-form="isolated" 
d="M200 454h48c5 0 7 4 7 8v21c0 3 0 7 -4 7c-2 0 -4 -1 -5 -2l-38 -14c-5 -1 -8 -4 -8 -9v-11zM200 402v-12l-52 -26v38h-46l22 52h24v130h52v-57l39 14c6 2 12 3 19 3c26 0 50 -18 50 -49v-50c0 -25 -22 -43 -50 -43h-58zM47 0v117h160c22 0 30 17 30 31
c0 31 -8 66 -69 66h-66v118h59c130 0 194 -62 194 -185c0 -100 -66 -147 -142 -147h-166z" />
    <glyph glyph-name="rreharabic" unicode="&#x691;" horiz-adv-x="293" arabic-form="isolated" 
d="M246 332v-338c0 -82 -42 -133 -133 -169l-82 108c56 4 98 29 98 82v317h117zM138 438h48c4 0 7 4 7 8v21c0 3 0 7 -4 7c-2 0 -4 -1 -6 -2l-37 -14c-5 -1 -8 -4 -8 -9v-11zM138 386v-12l-53 -26v38h-45l22 52h23v130h53v-57l38 14c7 2 13 3 19 3c27 0 51 -18 51 -49v-50
c0 -25 -22 -43 -50 -43h-58z" />
    <glyph glyph-name="jeharabic" unicode="&#x698;" horiz-adv-x="318" arabic-form="isolated" 
d="M267 425c0 -29 -23 -53 -54 -53c-30 0 -53 24 -53 53c0 31 23 55 53 55c31 0 54 -24 54 -55zM148 425c0 -29 -24 -53 -54 -53s-54 24 -54 53c0 31 24 55 54 55s54 -24 54 -55zM203 533c0 -27 -22 -49 -49 -49s-49 23 -49 49c0 27 22 49 49 49s49 -22 49 -49zM272 332
v-338c0 -82 -42 -133 -133 -169l-82 108c56 4 98 29 98 82v317h117z" />
    <glyph glyph-name="veharabic" unicode="&#x6a4;" horiz-adv-x="670" arabic-form="isolated" 
d="M528 533c0 -27 -22 -49 -49 -49c-26 0 -49 23 -49 49c0 27 23 49 49 49c27 0 49 -22 49 -49zM594 425c0 -29 -25 -53 -55 -53c-29 0 -54 24 -54 53c0 31 25 55 54 55c30 0 55 -24 55 -55zM474 425c0 -29 -25 -53 -54 -53c-30 0 -55 24 -55 53c0 31 25 55 55 55
c29 0 54 -24 54 -55zM624 332v-194c0 -81 -60 -138 -133 -138h-312c-74 0 -132 58 -132 138v66l117 76v-141c0 -15 8 -22 21 -22h146v77c0 77 55 138 139 138h154zM449 117h36c13 0 21 5 21 20v77h-38c-12 0 -19 -8 -19 -22v-75z" />
    <glyph glyph-name="keheharabic" unicode="&#x6a9;" horiz-adv-x="670" arabic-form="isolated" 
d="M164 280v-141c0 -15 8 -22 21 -22h301c16 0 20 12 20 23v52c0 14 -7 22 -20 22h-187v115c0 78 57 138 138 138h141v-72h-138c-37 0 -53 -22 -53 -48v-15h97c87 0 140 -63 140 -138v-56c0 -82 -59 -138 -142 -138h-303c-74 0 -132 57 -132 138v66z" />
    <glyph glyph-name="gafarabic" unicode="&#x6af;" horiz-adv-x="670" arabic-form="isolated" 
d="M164 280v-141c0 -15 8 -22 21 -22h301c16 0 20 12 20 23v52c0 14 -7 22 -20 22h-187v115c0 78 57 138 138 138h141v-72h-138c-37 0 -53 -22 -53 -48v-15h97c87 0 140 -63 140 -138v-56c0 -82 -59 -138 -142 -138h-303c-74 0 -132 57 -132 138v66zM578 506h-137
c-55 0 -106 -15 -142 -57v75c37 46 90 54 144 54h135v-72z" />
    <glyph glyph-name="noonghunnaarabic" unicode="&#x6ba;" horiz-adv-x="560" arabic-form="isolated" 
d="M514 332l-1 -329c0 -128 -136 -181 -233 -181c-137 0 -233 73 -233 186v123l117 77v-178c0 -75 67 -89 117 -89c53 0 115 17 115 89v302h118z" />
    <glyph glyph-name="hehdoachasmeearabic" unicode="&#x6be;" horiz-adv-x="481" arabic-form="isolated" 
d="M201 136c0 14 -12 27 -27 27c-14 0 -27 -13 -27 -27s13 -27 27 -27c15 0 27 13 27 27zM76 332h221c95 0 137 -74 137 -138v-56c0 -75 -51 -138 -136 -138h-92c-13 0 -22 2 -32 10c-10 -7 -19 -10 -31 -10h-143v117h78c-2 7 -2 15 -2 22c0 30 14 57 38 76h-38v117z
M235 215c23 -17 39 -47 39 -76c0 -7 -1 -14 -2 -22h24c10 0 21 5 21 20v55c0 15 -7 23 -20 23h-62z" />
    <glyph glyph-name="hehyehabovearabic" unicode="&#x6c0;" horiz-adv-x="386" arabic-form="isolated" 
d="M339 332v-194c0 -88 -65 -139 -147 -139c-90 0 -145 60 -145 139v56c0 80 54 138 141 138h151zM222 214h-39c-15 0 -19 -10 -19 -22v-44c0 -21 11 -32 28 -32c18 0 30 11 30 32v66zM246 508v-52h-29c-10 0 -22 -2 -22 -17c0 -11 9 -16 21 -16h49v-51h-143v51h24
c-1 6 -3 12 -3 19c0 38 29 67 75 67c8 0 21 0 28 -1z" />
    <glyph glyph-name="hehgoalarabic" unicode="&#x6c1;" horiz-adv-x="386" arabic-form="isolated" 
d="M339 332v-194c0 -88 -65 -139 -147 -139c-90 0 -145 60 -145 139v56c0 80 54 138 141 138h151zM222 214h-39c-15 0 -19 -10 -19 -22v-44c0 -21 11 -32 28 -32c18 0 30 11 30 32v66z" />
    <glyph glyph-name="yehfarsi" unicode="&#x6cc;" horiz-adv-x="560" arabic-form="isolated" 
d="M393 0h-27c-94 0 -145 60 -145 138v56c0 74 53 138 139 138h154v-118h-156c-12 0 -19 -8 -19 -20v-56c0 -12 6 -21 19 -21h156v-109c0 -133 -129 -186 -234 -186c-111 0 -233 58 -233 191v118l117 77v-178c0 -75 67 -89 118 -89c36 0 101 13 111 59z" />
    <glyph glyph-name="yehbarreeisolatedarabic" unicode="&#x6d2;" horiz-adv-x="795" arabic-form="isolated" 
d="M358 332v12c0 62 54 122 145 122c101 0 145 -68 145 -144v-22h-117v22c0 17 -10 28 -29 28c-17 0 -29 -9 -29 -30v-106h-290c-15 0 -19 -11 -19 -22v-54c0 -12 7 -21 19 -21h565l-77 -117h-484c-89 0 -140 60 -140 138v56c0 82 58 138 141 138h170z" />
    <glyph glyph-name="yehbarreehamzaabovearabic" unicode="&#x6d3;" horiz-adv-x="795" arabic-form="isolated" 
d="M277 508v-52h-29c-9 0 -22 -2 -22 -17c0 -11 9 -16 22 -16h48v-51h-143v51h25c-2 6 -3 12 -3 19c0 38 29 67 75 67c8 0 20 0 27 -1zM358 332v12c0 62 54 122 145 122c101 0 145 -68 145 -144v-22h-117v22c0 17 -10 28 -29 28c-17 0 -29 -9 -29 -30v-106h-290
c-15 0 -19 -11 -19 -22v-54c0 -12 7 -21 19 -21h565l-77 -117h-484c-89 0 -140 60 -140 138v56c0 82 58 138 141 138h170z" />
    <glyph glyph-name="alefwaslafinalarabic" unicode="&#x671;" horiz-adv-x="199" arabic-form="final" 
d="M47 467h117v-328c0 -17 10 -22 21 -22h19v-117h-25c-74 0 -132 57 -132 138v329zM127 552c16 1 35 14 35 27c0 3 -2 7 -7 7c-9 0 -14 -23 -28 -34zM-4 547l37 37c7 7 12 10 19 10c14 0 32 -21 36 -21c8 0 23 56 68 56c29 0 50 -24 50 -52c0 -42 -41 -71 -80 -71
c-38 0 -65 29 -69 29c-1 0 -3 0 -4 -2l-22 -22z" />
    <glyph glyph-name="pehfinalarabic" unicode="&#x67e;" horiz-adv-x="659" arabic-form="final" 
d="M453 -111c0 -31 -25 -55 -55 -55c-29 0 -54 24 -54 55c0 29 25 53 54 53c30 0 55 -24 55 -53zM388 -219c0 -27 -22 -49 -49 -49s-49 22 -49 49c0 26 22 49 49 49s49 -22 49 -49zM333 -111c0 -31 -24 -55 -54 -55s-54 24 -54 55c0 29 24 53 54 53s54 -24 54 -53zM663 0
h-485c-74 0 -131 60 -131 138v66l117 76v-143c0 -15 8 -20 21 -20h321v215h118v-215h39v-117z" />
    <glyph glyph-name="pehinitialarabic" unicode="&#x67e;" horiz-adv-x="290" arabic-form="initial" 
d="M244 332v-194c0 -78 -58 -138 -133 -138h-111v117h106c14 0 21 9 21 22v193h117zM239 -111c0 -31 -24 -55 -54 -55s-54 24 -54 55c0 29 24 53 54 53s54 -24 54 -53zM120 -111c0 -31 -24 -55 -54 -55s-54 24 -54 55c0 29 24 53 54 53s54 -24 54 -53zM175 -219
c0 -27 -22 -49 -49 -49s-50 22 -50 49c0 26 23 49 50 49s49 -22 49 -49z" />
    <glyph glyph-name="pehmedialarabic" unicode="&#x67e;" horiz-adv-x="279" arabic-form="medial" 
d="M239 -111c0 -31 -24 -55 -54 -55s-54 24 -54 55c0 29 24 53 54 53s54 -24 54 -53zM120 -111c0 -31 -24 -55 -54 -55s-54 24 -54 55c0 29 24 53 54 53s54 -24 54 -53zM0 0v117h127v215h117v-215h39v-117h-283zM175 -219c0 -27 -22 -49 -49 -49s-50 22 -50 49
c0 26 23 49 50 49s49 -22 49 -49z" />
    <glyph glyph-name="ttehfinalarabic" unicode="&#x679;" horiz-adv-x="659" arabic-form="final" 
d="M663 0h-485c-74 0 -131 60 -131 138v66l117 76v-143c0 -15 8 -20 21 -20h321v215h118v-215h39v-117zM335 424h49c4 0 7 4 7 8v21c0 3 0 6 -5 6c-2 0 -3 0 -5 -1l-38 -14c-5 -2 -8 -4 -8 -9v-11zM335 372v-12l-52 -26v38h-46l22 52h24v130h52v-57l39 14c6 2 12 3 19 3
c26 0 50 -18 50 -49v-50c0 -25 -22 -43 -50 -43h-58z" />
    <glyph glyph-name="ttehinitialarabic" unicode="&#x679;" horiz-adv-x="290" arabic-form="initial" 
d="M244 332v-194c0 -78 -58 -138 -133 -138h-111v117h106c14 0 21 9 21 22v193h117zM136 438h48c4 0 7 4 7 8v21c0 3 0 7 -4 7c-2 0 -4 -1 -6 -2l-38 -14c-4 -1 -7 -4 -7 -9v-11zM136 386v-12l-53 -26v38h-45l21 52h24v130h53v-57l38 14c7 2 13 3 19 3c27 0 51 -18 51 -49
v-50c0 -25 -22 -43 -50 -43h-58z" />
    <glyph glyph-name="ttehmedialarabic" unicode="&#x679;" horiz-adv-x="279" arabic-form="medial" 
d="M0 0v117h127v215h117v-215h39v-117h-283zM136 438h48c4 0 7 4 7 8v21c0 3 0 7 -4 7c-2 0 -4 -1 -6 -2l-38 -14c-4 -1 -7 -4 -7 -9v-11zM136 386v-12l-53 -26v38h-45l21 52h24v130h53v-57l38 14c7 2 13 3 19 3c27 0 51 -18 51 -49v-50c0 -25 -22 -43 -50 -43h-58z" />
    <glyph glyph-name="vehfinalarabic" unicode="&#x6a4;" horiz-adv-x="659" arabic-form="final" 
d="M663 0h-484c-74 0 -132 58 -132 138v66l117 76v-141c0 -15 8 -22 21 -22h146v77c0 77 55 138 139 138h154v-215h39v-117zM528 533c0 -27 -22 -49 -49 -49c-26 0 -49 23 -49 49c0 27 23 49 49 49c27 0 49 -22 49 -49zM594 425c0 -29 -25 -53 -55 -53c-29 0 -54 24 -54 53
c0 31 25 55 54 55c30 0 55 -24 55 -55zM474 425c0 -29 -25 -53 -54 -53c-30 0 -55 24 -55 53c0 31 25 55 55 55c29 0 54 -24 54 -55zM506 117v97h-38c-12 0 -19 -8 -19 -22v-75h57z" />
    <glyph glyph-name="vehinitialarabic" unicode="&#x6a4;" horiz-adv-x="414" arabic-form="initial" 
d="M273 533c0 -27 -22 -49 -49 -49s-50 23 -50 49c0 27 23 49 50 49s49 -22 49 -49zM337 425c0 -29 -23 -53 -54 -53c-30 0 -53 24 -53 53c0 31 23 55 53 55c31 0 54 -24 54 -55zM218 425c0 -29 -24 -53 -54 -53s-54 24 -54 53c0 31 24 55 54 55s54 -24 54 -55zM234 0h-234
v117h75v77c0 77 54 138 138 138h154v-194c0 -81 -59 -138 -133 -138zM192 117h37c12 0 21 5 21 20v77h-38c-13 0 -20 -8 -20 -22v-75z" />
    <glyph glyph-name="vehmedialarabic" unicode="&#x6a4;" horiz-adv-x="402" arabic-form="medial" 
d="M75 117v77c0 77 54 138 138 138h154v-215h40v-117h-407v117h75zM273 533c0 -27 -22 -49 -49 -49s-50 23 -50 49c0 27 23 49 50 49s49 -22 49 -49zM337 425c0 -29 -23 -53 -54 -53c-30 0 -53 24 -53 53c0 31 23 55 53 55c31 0 54 -24 54 -55zM218 425
c0 -29 -24 -53 -54 -53s-54 24 -54 53c0 31 24 55 54 55s54 -24 54 -55zM250 117v97h-38c-13 0 -20 -8 -20 -22v-75h58z" />
    <glyph glyph-name="tchehfinalarabic" unicode="&#x686;" horiz-adv-x="442" arabic-form="final" 
d="M447 0h-248c-14 0 -34 -6 -34 -28c0 -19 14 -30 34 -30h23l-74 -110c-58 20 -101 79 -101 141c0 100 77 144 152 144h91v75c0 12 -6 22 -20 22h-155v118h150c89 0 142 -61 142 -138v-77h40v-117zM407 -84c0 -20 -17 -37 -37 -37s-37 17 -37 37s17 37 37 37s37 -17 37 -37
zM323 -84c0 -20 -18 -37 -37 -37c-21 0 -38 17 -38 37s17 37 38 37c19 0 37 -17 37 -37zM360 -157c0 -17 -14 -32 -32 -32c-17 0 -32 15 -32 32c0 18 15 32 32 32c18 0 32 -14 32 -32z" />
    <glyph glyph-name="tchehinitialarabic" unicode="&#x686;" horiz-adv-x="414" arabic-form="initial" 
d="M308 -111c0 -31 -25 -55 -55 -55c-29 0 -54 24 -54 55c0 29 25 53 54 53c30 0 55 -24 55 -53zM188 -111c0 -31 -24 -55 -54 -55s-54 24 -54 55c0 29 24 53 54 53s54 -24 54 -53zM243 -219c0 -27 -22 -49 -49 -49s-49 22 -49 49c0 26 22 49 49 49s49 -22 49 -49zM0 0v117
h231c15 0 20 11 20 23v52c0 13 -6 22 -20 22h-155v118h149c91 0 142 -61 142 -138v-56c0 -81 -54 -138 -142 -138h-225z" />
    <glyph glyph-name="tchehmedialarabic" unicode="&#x686;" horiz-adv-x="402" arabic-form="medial" 
d="M308 -111c0 -31 -25 -55 -55 -55c-29 0 -54 24 -54 55c0 29 25 53 54 53c30 0 55 -24 55 -53zM188 -111c0 -31 -24 -55 -54 -55s-54 24 -54 55c0 29 24 53 54 53s54 -24 54 -53zM243 -219c0 -27 -22 -49 -49 -49s-49 22 -49 49c0 26 22 49 49 49s49 -22 49 -49zM251 117
v75c0 13 -6 22 -20 22h-155v118h149c91 0 142 -61 142 -138v-77h40v-117h-407v117h251z" />
    <glyph glyph-name="ddalfinalarabic" unicode="&#x688;" horiz-adv-x="388" arabic-form="final" 
d="M236 117v21c0 51 -11 76 -78 76h-56v118h59c122 0 194 -72 194 -193v-22h38v-117h-346v117h189zM200 454h48c5 0 7 4 7 8v21c0 3 0 6 -4 6c-2 0 -3 0 -5 -1l-38 -14c-5 -2 -8 -4 -8 -9v-11zM200 402v-12l-52 -26v38h-46l22 52h24v130h52v-57l39 14c6 2 12 3 19 3
c26 0 50 -18 50 -49v-50c0 -25 -22 -43 -50 -43h-58z" />
    <glyph glyph-name="jehfinalarabic" unicode="&#x698;" horiz-adv-x="307" arabic-form="final" 
d="M267 425c0 -29 -23 -53 -54 -53c-30 0 -53 24 -53 53c0 31 23 55 53 55c31 0 54 -24 54 -55zM148 425c0 -29 -24 -53 -54 -53s-54 24 -54 53c0 31 24 55 54 55s54 -24 54 -55zM203 533c0 -27 -22 -49 -49 -49s-49 23 -49 49c0 27 22 49 49 49s49 -22 49 -49zM272 332
v-215h39v-117h-39v-6c0 -82 -41 -133 -132 -169l-82 108c55 4 97 29 97 82v317h117z" />
    <glyph glyph-name="rrehfinalarabic" unicode="&#x691;" horiz-adv-x="281" arabic-form="final" 
d="M246 332v-215h39v-117h-39v-6c0 -82 -42 -133 -133 -169l-82 108c56 4 98 29 98 82v317h117zM138 438h48c4 0 7 4 7 8v21c0 3 0 7 -4 7c-2 0 -4 -1 -6 -2l-37 -14c-5 -2 -8 -4 -8 -9v-11zM138 386v-12l-53 -26v38h-45l22 52h23v130h53v-57l38 14c7 2 13 3 19 3
c27 0 51 -18 51 -49v-50c0 -25 -22 -43 -50 -43h-58z" />
    <glyph glyph-name="kehehfinalarabic" unicode="&#x6a9;" horiz-adv-x="659" arabic-form="final" 
d="M663 0h-484c-74 0 -132 57 -132 138v66l117 76v-141c0 -15 8 -22 21 -22h321v75c0 14 -7 22 -20 22h-187v115c0 78 57 138 138 138h141v-72h-138c-37 0 -53 -22 -53 -48v-15h97c87 0 140 -63 140 -138v-77h39v-117z" />
    <glyph glyph-name="kehehinitialarabic" unicode="&#x6a9;" horiz-adv-x="447" arabic-form="initial" 
d="M0 117h263c16 0 20 12 20 23v52c0 14 -7 22 -20 22h-187v115c0 78 57 138 138 138h141v-72h-138c-37 0 -53 -22 -53 -48v-15h96c88 0 140 -63 140 -138v-56c0 -82 -58 -138 -142 -138h-258v117z" />
    <glyph glyph-name="kehehmedialarabic" unicode="&#x6a9;" horiz-adv-x="435" arabic-form="medial" 
d="M440 0h-440v117h283v75c0 14 -7 22 -20 22h-187v115c0 78 57 138 138 138h141v-72h-138c-37 0 -53 -22 -53 -48v-15h96c88 0 140 -63 140 -138v-77h40v-117z" />
    <glyph glyph-name="gaffinalarabic" unicode="&#x6af;" horiz-adv-x="659" arabic-form="final" 
d="M663 0h-484c-74 0 -132 57 -132 138v66l117 76v-141c0 -15 8 -22 21 -22h321v75c0 14 -7 22 -20 22h-187v115c0 78 57 138 138 138h141v-72h-138c-37 0 -53 -22 -53 -48v-15h97c87 0 140 -63 140 -138v-77h39v-117zM578 506h-137c-55 0 -106 -15 -142 -57v75
c37 46 90 54 144 54h135v-72z" />
    <glyph glyph-name="gafinitialarabic" unicode="&#x6af;" horiz-adv-x="447" arabic-form="initial" 
d="M0 117h263c16 0 20 12 20 23v52c0 14 -7 22 -20 22h-187v115c0 78 57 138 138 138h141v-72h-138c-37 0 -53 -22 -53 -48v-15h96c88 0 140 -63 140 -138v-56c0 -82 -58 -138 -142 -138h-258v117zM355 506h-137c-55 0 -107 -15 -142 -57v75c37 46 90 54 144 54h135v-72z
" />
    <glyph glyph-name="gafmedialarabic" unicode="&#x6af;" horiz-adv-x="435" arabic-form="medial" 
d="M440 0h-440v117h283v75c0 14 -7 22 -20 22h-187v115c0 78 57 138 138 138h141v-72h-138c-37 0 -53 -22 -53 -48v-15h96c88 0 140 -63 140 -138v-77h40v-117zM355 506h-137c-55 0 -107 -15 -142 -57v75c37 46 90 54 144 54h135v-72z" />
    <glyph glyph-name="noonghunnafinalarabic" unicode="&#x6ba;" horiz-adv-x="549" arabic-form="final" 
d="M514 332l-1 -215h40v-117h-40c-2 -125 -136 -178 -233 -178c-137 0 -233 73 -233 186v123l117 77v-178c0 -75 67 -89 117 -89c53 0 115 17 115 89v302h118z" />
    <glyph glyph-name="hehyehabovefinalarabic" unicode="&#x6c0;" horiz-adv-x="374" arabic-form="final" 
d="M222 117v97h-39c-15 0 -19 -13 -19 -22v-54c0 -12 7 -21 19 -21h39zM339 332v-215h40v-117h-158v74l-53 -74c-77 10 -121 68 -121 138v56c0 81 61 138 131 138h161zM246 508v-52h-29c-10 0 -22 -2 -22 -17c0 -11 9 -16 21 -16h49v-51h-143v51h24c-1 6 -3 12 -3 19
c0 38 29 67 75 67c8 0 21 0 28 -1z" />
    <glyph glyph-name="hehgoalfinalarabic" unicode="&#x6c1;" horiz-adv-x="602" arabic-form="final" 
d="M450 202c-69 -18 -83 -82 -83 -138c0 -22 1 -43 3 -64h-49c-183 0 -275 88 -275 201c0 10 1 32 2 41l114 79c-2 -11 -3 -33 -3 -44c0 -72 3 -139 96 -154c26 152 131 209 292 209h20v-194c0 -11 7 -21 21 -21h19v-117h-23c-73 0 -134 54 -134 135v67z" />
    <glyph glyph-name="hehgoalinitialarabic" unicode="&#x6c1;" horiz-adv-x="350" arabic-form="initial" 
d="M108 0h-108v117h167c14 0 19 10 19 22v193h117v-194c0 -63 -33 -112 -103 -135l-84 -85c-2 -2 -4 -4 -4 -7c0 -7 8 -12 8 -30c0 -29 -25 -55 -54 -55c-30 0 -54 25 -54 55c0 20 9 31 29 51z" />
    <glyph glyph-name="hehgoalmedialarabic" unicode="&#x6c1;" horiz-adv-x="400" arabic-form="medial" 
d="M75 -18c0 13 -3 18 -16 18h-59v117h62c77 0 128 -40 128 -115c0 -35 2 -61 30 -61c30 0 31 30 31 61c0 73 49 115 130 115h24v-117h-23c-11 0 -16 -2 -16 -18c0 -89 -58 -160 -146 -160c-84 0 -145 60 -145 160z" />
    <glyph glyph-name="hehdoachasmeefinalarabic" unicode="&#x6be;" horiz-adv-x="470" arabic-form="final" 
d="M475 0h-269c-13 0 -22 2 -32 10c-10 -7 -19 -10 -31 -10h-143v117h78c-1 8 -2 15 -2 22c0 30 13 57 37 75h-37v118h217c98 0 142 -70 142 -138v-77h40v-117zM318 117v74c0 13 -6 23 -20 23h-63c23 -18 38 -47 38 -75c0 -7 -1 -14 -2 -22h47zM202 136c0 14 -13 27 -28 27
c-14 0 -26 -13 -26 -27s12 -27 26 -27c15 0 28 13 28 27z" />
    <glyph glyph-name="hehdoachasmeeinitialarabic" unicode="&#x6be;" horiz-adv-x="483" arabic-form="initial" 
d="M77 139c0 30 13 58 37 76h-38v117h218c98 0 142 -70 142 -138v-56c0 -76 -54 -138 -133 -138h-96c-13 0 -22 2 -32 10c-10 -7 -19 -10 -31 -10h-144v117h79c-1 8 -2 15 -2 22zM299 215h-63c23 -18 38 -48 38 -76c0 -7 -1 -14 -2 -22h25c11 0 22 5 22 19v56
c0 13 -6 23 -20 23zM204 136c0 14 -14 28 -29 28c-14 0 -27 -14 -27 -28s13 -27 27 -27c15 0 29 13 29 27z" />
    <glyph glyph-name="hehdoachasmeemedialarabic" unicode="&#x6be;" horiz-adv-x="470" arabic-form="medial" 
d="M475 0h-269c-13 0 -22 2 -32 10c-10 -7 -19 -10 -31 -10h-143v117h78c-1 8 -2 15 -2 22c0 30 13 57 37 75h-37v118h217c98 0 142 -70 142 -138v-77h40v-117zM318 117v74c0 13 -6 23 -20 23h-63c23 -18 38 -47 38 -75c0 -7 -1 -14 -2 -22h47zM202 136c0 14 -13 27 -28 27
c-14 0 -26 -13 -26 -27s12 -27 26 -27c15 0 28 13 28 27z" />
    <glyph glyph-name="yehbarreefinalarabic" unicode="&#x6d2;" horiz-adv-x="766" arabic-form="final" 
d="M771 117v-117h-569c-16 0 -37 -4 -37 -28c0 -17 12 -30 34 -30h551l-78 -117h-481c-80 0 -144 72 -144 148c0 96 72 144 157 144h567z" />
    <glyph glyph-name="yehbarreehamzaabovefinalarabic" unicode="&#x6d3;" horiz-adv-x="766" arabic-form="final" 
d="M771 117v-117h-569c-16 0 -37 -4 -37 -28c0 -17 12 -30 34 -30h551l-78 -117h-481c-80 0 -144 72 -144 148c0 96 72 144 157 144h567zM311 293v-52h-29c-10 0 -22 -2 -22 -17c0 -12 9 -16 21 -16h49v-52h-143v52h24c-1 6 -2 12 -2 18c0 39 28 68 74 68c8 0 21 0 28 -1z
" />
    <glyph glyph-name="alefmaksurainitialarabic" unicode="&#x649;" horiz-adv-x="290" arabic-form="initial" 
d="M244 332v-194c0 -78 -58 -138 -133 -138h-111v117h106c14 0 21 9 21 22v193h117z" />
    <glyph glyph-name="alefmaksuramedialarabic" unicode="&#x649;" horiz-adv-x="279" arabic-form="medial" 
d="M0 0v117h127v215h117v-215h39v-117h-283z" />
    <glyph glyph-name="yehfinalfarsi" unicode="&#x6cc;" horiz-adv-x="549" arabic-form="final" 
d="M393 0h-68v117h228v-117h-40c-5 -127 -130 -178 -233 -178c-111 0 -233 58 -233 191v118l117 77v-178c0 -75 67 -89 118 -89c36 0 101 13 111 59z" />
    <glyph glyph-name="yehinitialfarsi" unicode="&#x6cc;" horiz-adv-x="290" arabic-form="initial" 
d="M239 -111c0 -31 -24 -55 -54 -55s-54 24 -54 55c0 29 24 53 54 53s54 -24 54 -53zM120 -111c0 -31 -24 -55 -54 -55s-54 24 -54 55c0 29 24 53 54 53s54 -24 54 -53zM244 332v-194c0 -78 -58 -138 -133 -138h-111v117h106c14 0 21 9 21 22v193h117z" />
    <glyph glyph-name="yehmedialfarsi" unicode="&#x6cc;" horiz-adv-x="279" arabic-form="medial" 
d="M239 -111c0 -31 -24 -55 -54 -55s-54 24 -54 55c0 29 24 53 54 53s54 -24 54 -53zM120 -111c0 -31 -24 -55 -54 -55s-54 24 -54 55c0 29 24 53 54 53s54 -24 54 -53zM0 0v117h127v215h117v-215h39v-117h-283z" />
    <glyph glyph-name="alefmaddaabovefinalarabic" unicode="&#x622;" horiz-adv-x="199" arabic-form="final" 
d="M47 467h117v-328c0 -17 10 -22 21 -22h19v-117h-25c-74 0 -132 57 -132 138v329zM162 589l36 -37l-33 -33c-8 -8 -18 -14 -30 -14c-24 0 -48 26 -57 26c-3 0 -5 -3 -11 -8l-19 -20l-37 37l20 20c13 13 23 26 43 26c24 0 49 -26 56 -26c4 0 6 2 12 8z" />
    <glyph glyph-name="alefhamzaabovefinalarabic" unicode="&#x623;" horiz-adv-x="199" arabic-form="final" 
d="M47 467h117v-328c0 -17 10 -22 21 -22h19v-117h-25c-74 0 -132 57 -132 138v329zM158 642v-52h-29c-9 0 -22 -2 -22 -17c0 -12 9 -16 22 -16h48v-52h-143v52h25c-2 6 -3 12 -3 18c0 39 29 68 75 68c8 0 20 0 27 -1z" />
    <glyph glyph-name="wawhamzaabovefinalarabic" unicode="&#x624;" horiz-adv-x="374" arabic-form="final" 
d="M222 117v97h-38c-13 0 -20 -8 -20 -22v-53c0 -13 7 -22 20 -22h38zM138 -175l-77 107h27c55 0 121 9 135 68h-45c-85 0 -131 73 -131 139v55c0 80 54 138 137 138h155v-215h40v-117h-40c-3 -135 -88 -169 -201 -175zM246 508v-52h-29c-10 0 -22 -2 -22 -17
c0 -11 9 -16 21 -16h49v-51h-143v51h24c-1 6 -3 12 -3 19c0 38 29 67 75 67c8 0 21 0 28 -1z" />
    <glyph glyph-name="alefhamzabelowfinalarabic" unicode="&#x625;" horiz-adv-x="199" arabic-form="final" 
d="M47 467h117v-328c0 -17 10 -22 21 -22h19v-117h-25c-74 0 -132 57 -132 138v329zM147 -39v-51h-29c-10 0 -22 -2 -22 -17c0 -12 9 -16 22 -16h48v-52h-143v52h25c-2 5 -3 12 -3 18c0 38 28 67 75 67c7 0 20 0 27 -1z" />
    <glyph glyph-name="yehhamzaabovefinalarabic" unicode="&#x626;" horiz-adv-x="549" arabic-form="final" 
d="M393 0h-68v117h228v-117h-40c-5 -127 -130 -178 -233 -178c-111 0 -233 58 -233 191v118l117 77v-178c0 -75 67 -89 118 -89c36 0 101 13 111 59zM158 383v-51h-29c-9 0 -22 -2 -22 -17c0 -12 9 -16 22 -16h48v-52h-143v52h25c-2 5 -3 12 -3 18c0 38 29 67 75 67
c8 0 20 0 27 -1z" />
    <glyph glyph-name="yehhamzaaboveinitialarabic" unicode="&#x626;" horiz-adv-x="290" arabic-form="initial" 
d="M225 508v-52h-29c-10 0 -22 -2 -22 -17c0 -11 9 -16 21 -16h49v-51h-143v51h24c-1 6 -3 12 -3 19c0 38 29 67 75 67c8 0 21 0 28 -1zM244 332v-194c0 -78 -58 -138 -133 -138h-111v117h106c14 0 21 9 21 22v193h117z" />
    <glyph glyph-name="yehhamzaabovemedialarabic" unicode="&#x626;" horiz-adv-x="279" arabic-form="medial" 
d="M0 0v117h127v215h117v-215h39v-117h-283zM225 508v-52h-28c-10 0 -23 -2 -23 -17c0 -11 9 -16 22 -16h48v-51h-143v51h25c-2 6 -3 12 -3 19c0 38 29 67 75 67c8 0 20 0 27 -1z" />
    <glyph glyph-name="aleffinalarabic" unicode="&#x627;" horiz-adv-x="199" arabic-form="final" 
d="M47 467h117v-328c0 -17 10 -22 21 -22h19v-117h-25c-74 0 -132 57 -132 138v329z" />
    <glyph glyph-name="behfinalarabic" unicode="&#x628;" horiz-adv-x="659" arabic-form="final" 
d="M393 -110c0 -31 -25 -55 -55 -55c-29 0 -54 24 -54 55c0 29 25 53 54 53c30 0 55 -24 55 -53zM663 0h-485c-74 0 -131 60 -131 138v66l117 76v-143c0 -15 8 -20 21 -20h321v215h118v-215h39v-117z" />
    <glyph glyph-name="behinitialarabic" unicode="&#x628;" horiz-adv-x="290" arabic-form="initial" 
d="M236 -111c0 -31 -25 -55 -55 -55c-29 0 -54 24 -54 55c0 29 25 53 54 53c30 0 55 -24 55 -53zM244 332v-194c0 -78 -58 -138 -133 -138h-111v117h106c14 0 21 9 21 22v193h117z" />
    <glyph glyph-name="behmedialarabic" unicode="&#x628;" horiz-adv-x="279" arabic-form="medial" 
d="M0 0v117h127v215h117v-215h39v-117h-283zM239 -111c0 -31 -24 -55 -54 -55s-54 24 -54 55c0 29 24 53 54 53s54 -24 54 -53z" />
    <glyph glyph-name="tehmarbutafinalarabic" unicode="&#x629;" horiz-adv-x="374" arabic-form="final" 
d="M309 425c0 -29 -24 -53 -54 -53s-55 24 -55 53c0 31 25 55 55 55s54 -24 54 -55zM190 425c0 -29 -25 -53 -55 -53c-29 0 -54 24 -54 53c0 31 25 55 54 55c30 0 55 -24 55 -55zM222 117v97h-39c-15 0 -19 -13 -19 -22v-54c0 -12 7 -21 19 -21h39zM339 332v-215h40v-117
h-158v74l-53 -74c-77 10 -121 68 -121 138v56c0 81 61 138 131 138h161z" />
    <glyph glyph-name="tehfinalarabic" unicode="&#x62a;" horiz-adv-x="659" arabic-form="final" 
d="M453 425c0 -29 -25 -53 -55 -53c-29 0 -54 24 -54 53c0 31 25 55 54 55c30 0 55 -24 55 -55zM333 425c0 -29 -24 -53 -54 -53s-54 24 -54 53c0 31 24 55 54 55s54 -24 54 -55zM663 0h-485c-74 0 -131 60 -131 138v66l117 76v-143c0 -15 8 -20 21 -20h321v215h118v-215h39
v-117z" />
    <glyph glyph-name="tehinitialarabic" unicode="&#x62a;" horiz-adv-x="290" arabic-form="initial" 
d="M239 425c0 -29 -24 -53 -54 -53s-54 24 -54 53c0 31 24 55 54 55s54 -24 54 -55zM120 425c0 -29 -24 -53 -54 -53s-54 24 -54 53c0 31 24 55 54 55s54 -24 54 -55zM244 332v-194c0 -78 -58 -138 -133 -138h-111v117h106c14 0 21 9 21 22v193h117z" />
    <glyph glyph-name="tehmedialarabic" unicode="&#x62a;" horiz-adv-x="279" arabic-form="medial" 
d="M239 425c0 -29 -24 -53 -54 -53s-54 24 -54 53c0 31 24 55 54 55s54 -24 54 -55zM120 425c0 -29 -24 -53 -54 -53s-54 24 -54 53c0 31 24 55 54 55s54 -24 54 -55zM0 0v117h127v215h117v-215h39v-117h-283z" />
    <glyph glyph-name="thehfinalarabic" unicode="&#x62b;" horiz-adv-x="659" arabic-form="final" 
d="M453 425c0 -29 -25 -53 -55 -53c-29 0 -54 24 -54 53c0 31 25 55 54 55c30 0 55 -24 55 -55zM388 533c0 -27 -22 -49 -49 -49s-49 23 -49 49c0 27 22 49 49 49s49 -22 49 -49zM333 425c0 -29 -24 -53 -54 -53s-54 24 -54 53c0 31 24 55 54 55s54 -24 54 -55zM663 0h-485
c-74 0 -131 60 -131 138v66l117 76v-143c0 -15 8 -20 21 -20h321v215h118v-215h39v-117z" />
    <glyph glyph-name="thehinitialarabic" unicode="&#x62b;" horiz-adv-x="290" arabic-form="initial" 
d="M239 425c0 -29 -24 -53 -54 -53s-54 24 -54 53c0 31 24 55 54 55s54 -24 54 -55zM120 425c0 -29 -24 -53 -54 -53s-54 24 -54 53c0 31 24 55 54 55s54 -24 54 -55zM175 533c0 -27 -22 -49 -50 -49c-26 0 -49 23 -49 49c0 27 23 49 49 49c28 0 50 -22 50 -49zM244 332
v-194c0 -78 -58 -138 -133 -138h-111v117h106c14 0 21 9 21 22v193h117z" />
    <glyph glyph-name="thehmedialarabic" unicode="&#x62b;" horiz-adv-x="279" arabic-form="medial" 
d="M239 425c0 -29 -24 -53 -54 -53s-54 24 -54 53c0 31 24 55 54 55s54 -24 54 -55zM120 425c0 -29 -24 -53 -54 -53s-54 24 -54 53c0 31 24 55 54 55s54 -24 54 -55zM175 533c0 -27 -22 -49 -50 -49c-26 0 -49 23 -49 49c0 27 23 49 49 49c28 0 50 -22 50 -49zM0 0v117h127
v215h117v-215h39v-117h-283z" />
    <glyph glyph-name="jeemfinalarabic" unicode="&#x62c;" horiz-adv-x="442" arabic-form="final" 
d="M407 -111c0 -31 -25 -55 -54 -55c-30 0 -55 24 -55 55c0 29 25 53 55 53c29 0 54 -24 54 -53zM407 117h40v-117h-248c-14 0 -34 -6 -34 -28c0 -19 14 -30 34 -30h81l-78 -117h-11c-80 0 -144 72 -144 148c0 100 77 144 152 144h91v75c0 12 -6 22 -20 22h-155v118h150
c89 0 142 -61 142 -138v-77z" />
    <glyph glyph-name="jeeminitialarabic" unicode="&#x62c;" horiz-adv-x="414" arabic-form="initial" 
d="M251 -111c0 -31 -25 -55 -54 -55c-30 0 -55 24 -55 55c0 29 25 53 55 53c29 0 54 -24 54 -53zM0 0v117h231c15 0 20 11 20 23v52c0 13 -6 22 -20 22h-155v118h149c91 0 142 -61 142 -138v-56c0 -81 -54 -138 -142 -138h-225z" />
    <glyph glyph-name="jeemmedialarabic" unicode="&#x62c;" horiz-adv-x="402" arabic-form="medial" 
d="M251 -111c0 -31 -25 -55 -54 -55c-30 0 -55 24 -55 55c0 29 25 53 55 53c29 0 54 -24 54 -53zM251 117v75c0 13 -6 22 -20 22h-155v118h149c91 0 142 -61 142 -138v-77h40v-117h-407v117h251z" />
    <glyph glyph-name="hahfinalarabic" unicode="&#x62d;" horiz-adv-x="442" arabic-form="final" 
d="M447 0h-248c-14 0 -34 -6 -34 -28c0 -19 14 -30 34 -30h208l-78 -117h-138c-80 0 -144 72 -144 148c0 100 77 144 152 144h91v75c0 12 -6 22 -20 22h-155v118h150c89 0 142 -61 142 -138v-77h40v-117z" />
    <glyph glyph-name="hahinitialarabic" unicode="&#x62d;" horiz-adv-x="414" arabic-form="initial" 
d="M0 0v117h231c15 0 20 11 20 23v52c0 13 -6 22 -20 22h-155v118h149c91 0 142 -61 142 -138v-56c0 -81 -54 -138 -142 -138h-225z" />
    <glyph glyph-name="hahmedialarabic" unicode="&#x62d;" horiz-adv-x="402" arabic-form="medial" 
d="M251 117v75c0 13 -6 22 -20 22h-155v118h149c91 0 142 -61 142 -138v-77h40v-117h-407v117h251z" />
    <glyph glyph-name="khahfinalarabic" unicode="&#x62e;" horiz-adv-x="442" arabic-form="final" 
d="M290 425c0 -29 -25 -53 -54 -53c-30 0 -55 24 -55 53c0 31 25 55 55 55c29 0 54 -24 54 -55zM447 0h-248c-14 0 -34 -6 -34 -28c0 -19 14 -30 34 -30h208l-78 -117h-138c-80 0 -144 72 -144 148c0 100 77 144 152 144h91v75c0 12 -6 22 -20 22h-155v118h150
c89 0 142 -61 142 -138v-77h40v-117z" />
    <glyph glyph-name="khahinitialarabic" unicode="&#x62e;" horiz-adv-x="414" arabic-form="initial" 
d="M251 425c0 -29 -25 -53 -54 -53c-30 0 -55 24 -55 53c0 31 25 55 55 55c29 0 54 -24 54 -55zM0 0v117h231c15 0 20 11 20 23v52c0 13 -6 22 -20 22h-155v118h149c91 0 142 -61 142 -138v-56c0 -81 -54 -138 -142 -138h-225z" />
    <glyph glyph-name="khahmedialarabic" unicode="&#x62e;" horiz-adv-x="402" arabic-form="medial" 
d="M251 425c0 -29 -25 -53 -54 -53c-30 0 -55 24 -55 53c0 31 25 55 55 55c29 0 54 -24 54 -55zM251 117v75c0 13 -6 22 -20 22h-155v118h149c91 0 142 -61 142 -138v-77h40v-117h-407v117h251z" />
    <glyph glyph-name="dalfinalarabic" unicode="&#x62f;" horiz-adv-x="388" arabic-form="final" 
d="M355 147v-30h38v-117h-346v117h190v31c0 31 -8 66 -69 66h-66v118h59c130 0 194 -62 194 -185z" />
    <glyph glyph-name="thalfinalarabic" unicode="&#x630;" horiz-adv-x="388" arabic-form="final" 
d="M211 425c0 -29 -25 -53 -55 -53c-29 0 -54 24 -54 53c0 31 25 55 54 55c30 0 55 -24 55 -55zM355 147v-30h38v-117h-346v117h190v31c0 31 -8 66 -69 66h-66v118h59c130 0 194 -62 194 -185z" />
    <glyph glyph-name="rehfinalarabic" unicode="&#x631;" horiz-adv-x="266" arabic-form="final" 
d="M231 332v-215h39v-117h-39v-6c0 -82 -41 -133 -132 -169l-82 108c55 4 97 29 97 82v317h117z" />
    <glyph glyph-name="zainfinalarabic" unicode="&#x632;" horiz-adv-x="266" arabic-form="final" 
d="M227 425c0 -29 -25 -53 -55 -53c-29 0 -54 24 -54 53c0 31 25 55 54 55c30 0 55 -24 55 -55zM231 332v-215h39v-117h-39v-6c0 -82 -41 -133 -132 -169l-82 108c55 4 97 29 97 82v317h117z" />
    <glyph glyph-name="seenfinalarabic" unicode="&#x633;" horiz-adv-x="899" arabic-form="final" 
d="M747 117v215h117v-215h40v-117h-391c-5 -127 -136 -178 -233 -178c-137 0 -233 73 -233 186v123l117 77v-178c0 -75 67 -89 117 -89c53 0 115 17 115 89v302h118v-215h57v215h118v-215h58z" />
    <glyph glyph-name="seeninitialarabic" unicode="&#x633;" horiz-adv-x="703" arabic-form="initial" 
d="M512 0h-512v117h188v215h117v-215h58v215h118v-215h36c16 0 22 10 22 23v192h117v-194c0 -79 -53 -138 -144 -138z" />
    <glyph glyph-name="seenmedialarabic" unicode="&#x633;" horiz-adv-x="691" arabic-form="medial" 
d="M656 332v-215h40v-117h-696v117h188v215h117v-215h58v215h118v-215h58v215h117z" />
    <glyph glyph-name="sheenfinalarabic" unicode="&#x634;" horiz-adv-x="899" arabic-form="final" 
d="M743 425c0 -29 -23 -53 -54 -53c-30 0 -54 24 -54 53c0 31 24 55 54 55c31 0 54 -24 54 -55zM624 425c0 -29 -24 -53 -54 -53s-54 24 -54 53c0 31 24 55 54 55s54 -24 54 -55zM679 533c0 -27 -22 -49 -49 -49s-50 23 -50 49c0 27 23 49 50 49s49 -22 49 -49zM747 117v215
h117v-215h40v-117h-391c-5 -127 -136 -178 -233 -178c-137 0 -233 73 -233 186v123l117 77v-178c0 -75 67 -89 117 -89c53 0 115 17 115 89v302h118v-215h57v215h118v-215h58z" />
    <glyph glyph-name="sheeninitialarabic" unicode="&#x634;" horiz-adv-x="703" arabic-form="initial" 
d="M535 425c0 -29 -23 -53 -53 -53c-31 0 -54 24 -54 53c0 31 23 55 54 55c30 0 53 -24 53 -55zM416 425c0 -29 -24 -53 -54 -53s-54 24 -54 53c0 31 24 55 54 55s54 -24 54 -55zM471 533c0 -27 -22 -49 -49 -49s-49 23 -49 49c0 27 22 49 49 49s49 -22 49 -49zM512 0h-512
v117h188v215h117v-215h58v215h118v-215h36c16 0 22 10 22 23v192h117v-194c0 -79 -53 -138 -144 -138z" />
    <glyph glyph-name="sheenmedialarabic" unicode="&#x634;" horiz-adv-x="691" arabic-form="medial" 
d="M656 332v-215h40v-117h-696v117h188v215h117v-215h58v215h118v-215h58v215h117zM535 425c0 -29 -23 -53 -53 -53c-31 0 -54 24 -54 53c0 31 23 55 54 55c30 0 53 -24 53 -55zM416 425c0 -29 -24 -53 -54 -53s-54 24 -54 53c0 31 24 55 54 55s54 -24 54 -55zM471 533
c0 -27 -22 -49 -49 -49s-49 23 -49 49c0 27 22 49 49 49s49 -22 49 -49z" />
    <glyph glyph-name="sadfinalarabic" unicode="&#x635;" horiz-adv-x="843" arabic-form="final" 
d="M690 117v76c0 9 0 25 -13 25c-7 0 -15 -3 -22 -6l-122 -43c-17 -6 -19 -10 -19 -26v-26h176zM808 117h40v-117h-335c-5 -127 -136 -178 -233 -178c-137 0 -233 73 -233 186v123l117 77v-178c0 -75 67 -89 117 -89c53 0 115 17 115 89v302h118v-46l116 41c15 5 32 9 49 9
c76 0 129 -66 129 -128v-91z" />
    <glyph glyph-name="sadinitialarabic" unicode="&#x635;" horiz-adv-x="533" arabic-form="initial" 
d="M192 286l117 41c15 5 32 9 49 9c76 0 128 -66 128 -128v-70c0 -72 -55 -138 -133 -138h-161v-22l-117 -61v83h-75v117h75v215h117v-46zM192 117h156c10 0 21 4 21 22v54c0 9 0 25 -13 25c-7 0 -15 -3 -22 -6l-122 -43c-17 -6 -20 -10 -20 -26v-26z" />
    <glyph glyph-name="sadmedialarabic" unicode="&#x635;" horiz-adv-x="521" arabic-form="medial" 
d="M486 117h40v-117h-334v-22l-117 -61v83h-75v117h75v215h117v-46l117 41c15 5 32 9 49 9c76 0 128 -66 128 -128v-91zM369 117v76c0 9 0 25 -13 25c-7 0 -15 -3 -22 -6l-122 -43c-17 -6 -20 -10 -20 -26v-26h177z" />
    <glyph glyph-name="dadfinalarabic" unicode="&#x636;" horiz-adv-x="843" arabic-form="final" 
d="M666 425c0 -29 -24 -53 -54 -53s-54 24 -54 53c0 31 24 55 54 55s54 -24 54 -55zM690 117v76c0 9 0 25 -13 25c-7 0 -15 -3 -22 -6l-122 -43c-17 -6 -19 -10 -19 -26v-26h176zM808 117h40v-117h-335c-5 -127 -136 -178 -233 -178c-137 0 -233 73 -233 186v123l117 77
v-178c0 -75 67 -89 117 -89c53 0 115 17 115 89v302h118v-46l116 41c15 5 32 9 49 9c76 0 129 -66 129 -128v-91z" />
    <glyph glyph-name="dadinitialarabic" unicode="&#x636;" horiz-adv-x="533" arabic-form="initial" 
d="M346 425c0 -29 -25 -53 -55 -53c-29 0 -54 24 -54 53c0 31 25 55 54 55c30 0 55 -24 55 -55zM192 286l117 41c15 5 32 9 49 9c76 0 128 -66 128 -128v-70c0 -72 -55 -138 -133 -138h-161v-22l-117 -61v83h-75v117h75v215h117v-46zM192 117h156c10 0 21 4 21 22v54
c0 9 0 25 -13 25c-7 0 -15 -3 -22 -6l-122 -43c-17 -6 -20 -10 -20 -26v-26z" />
    <glyph glyph-name="dadmedialarabic" unicode="&#x636;" horiz-adv-x="521" arabic-form="medial" 
d="M346 425c0 -29 -25 -53 -55 -53c-29 0 -54 24 -54 53c0 31 25 55 54 55c30 0 55 -24 55 -55zM486 117h40v-117h-334v-22l-117 -61v83h-75v117h75v215h117v-46l117 41c15 5 32 9 49 9c76 0 128 -66 128 -128v-91zM369 117v76c0 9 0 25 -13 25c-7 0 -15 -3 -22 -6l-122 -43
c-17 -6 -20 -10 -20 -26v-26h177z" />
    <glyph glyph-name="tahfinalarabic" unicode="&#x637;" horiz-adv-x="617" arabic-form="final" 
d="M169 117v350h118v-181l116 41c16 5 32 9 49 9c76 0 129 -66 129 -128v-91h40v-117h-334v-22l-118 -61v83h-122l54 117h68zM463 117v76c0 9 0 25 -13 25c-7 0 -15 -3 -22 -6l-121 -43c-18 -6 -20 -10 -20 -26v-26h176z" />
    <glyph glyph-name="tahinitialarabic" unicode="&#x637;" horiz-adv-x="533" arabic-form="initial" 
d="M192 286l117 41c15 5 32 9 49 9c76 0 128 -66 128 -128v-70c0 -72 -55 -138 -133 -138h-161v-22l-117 -61v83h-75v117h75v350h117v-181zM192 117h156c10 0 21 4 21 22v54c0 9 0 25 -13 25c-7 0 -15 -3 -22 -6l-122 -43c-17 -6 -20 -10 -20 -26v-26z" />
    <glyph glyph-name="tahmedialarabic" unicode="&#x637;" horiz-adv-x="521" arabic-form="medial" 
d="M486 117h40v-117h-334v-22l-117 -61v83h-75v117h75v350h117v-181l117 41c15 5 32 9 49 9c76 0 128 -66 128 -128v-91zM369 117v76c0 9 0 25 -13 25c-7 0 -15 -3 -22 -6l-122 -43c-17 -6 -20 -10 -20 -26v-26h177z" />
    <glyph glyph-name="zahfinalarabic" unicode="&#x638;" horiz-adv-x="617" arabic-form="final" 
d="M444 425c0 -29 -24 -53 -54 -53s-54 24 -54 53c0 31 24 55 54 55s54 -24 54 -55zM169 117v350h118v-181l116 41c16 5 32 9 49 9c76 0 129 -66 129 -128v-91h40v-117h-334v-22l-118 -61v83h-122l54 117h68zM463 117v76c0 9 0 25 -13 25c-7 0 -15 -3 -22 -6l-121 -43
c-18 -6 -20 -10 -20 -26v-26h176z" />
    <glyph glyph-name="zahinitialarabic" unicode="&#x638;" horiz-adv-x="533" arabic-form="initial" 
d="M349 425c0 -29 -24 -53 -54 -53s-54 24 -54 53c0 31 24 55 54 55s54 -24 54 -55zM192 286l117 41c15 5 32 9 49 9c76 0 128 -66 128 -128v-70c0 -72 -55 -138 -133 -138h-161v-22l-117 -61v83h-75v117h75v350h117v-181zM192 117h156c10 0 21 4 21 22v54c0 9 0 25 -13 25
c-7 0 -15 -3 -22 -6l-122 -43c-17 -6 -20 -10 -20 -26v-26z" />
    <glyph glyph-name="zahmedialarabic" unicode="&#x638;" horiz-adv-x="521" arabic-form="medial" 
d="M349 425c0 -29 -24 -53 -54 -53s-54 24 -54 53c0 31 24 55 54 55s54 -24 54 -55zM486 117h40v-117h-334v-22l-117 -61v83h-75v117h75v350h117v-181l117 41c15 5 32 9 49 9c76 0 128 -66 128 -128v-91zM369 117v76c0 9 0 25 -13 25c-7 0 -15 -3 -22 -6l-122 -43
c-17 -6 -20 -10 -20 -26v-26h177z" />
    <glyph glyph-name="ainfinalarabic" unicode="&#x639;" horiz-adv-x="465" arabic-form="final" 
d="M373 117h97v-117h-168c-23 0 -35 3 -54 16c-10 -7 -26 -16 -43 -16c-21 0 -41 -6 -41 -28c0 -19 14 -30 32 -30h224l-78 -117h-145c-85 0 -150 69 -150 149c0 56 31 110 87 130c-22 25 -41 45 -68 63c-2 106 90 170 181 170c92 0 184 -64 182 -170
c-21 -14 -37 -29 -56 -50zM292 200c-11 12 -28 20 -44 20s-34 -8 -45 -20c16 -12 31 -25 44 -40c13 15 28 28 45 40z" />
    <glyph glyph-name="aininitialarabic" unicode="&#x639;" horiz-adv-x="461" arabic-form="initial" 
d="M0 117h78c-2 7 -2 14 -2 21v56c0 86 60 138 140 138h152v-118h-156c-16 0 -20 -10 -20 -20v-51c0 -14 5 -26 21 -26h201v-117h-414v117z" />
    <glyph glyph-name="ainmedialarabic" unicode="&#x639;" horiz-adv-x="475" arabic-form="medial" 
d="M479 117v-117h-166c-23 0 -39 3 -55 16c-20 -13 -34 -16 -55 -16h-203v117h132c-18 20 -35 36 -56 50c-2 105 89 170 182 170c92 0 184 -65 182 -170c-23 -15 -38 -29 -57 -50h96zM302 200c-12 12 -28 20 -44 20c-17 0 -34 -8 -45 -20c17 -13 30 -25 45 -40
c12 15 26 27 44 40z" />
    <glyph glyph-name="ghainfinalarabic" unicode="&#x63a;" horiz-adv-x="465" arabic-form="final" 
d="M302 426c0 -30 -24 -54 -54 -54s-54 24 -54 54s24 55 54 55s54 -25 54 -55zM373 117h97v-117h-168c-23 0 -35 3 -54 16c-10 -7 -26 -16 -43 -16c-21 0 -41 -6 -41 -28c0 -19 14 -30 32 -30h224l-78 -117h-145c-85 0 -150 69 -150 149c0 56 31 110 87 130
c-22 25 -41 45 -68 63c-2 106 90 170 181 170c92 0 184 -64 182 -170c-21 -14 -37 -29 -56 -50zM292 200c-11 12 -28 20 -44 20s-34 -8 -45 -20c16 -12 31 -25 44 -40c13 15 28 28 45 40z" />
    <glyph glyph-name="ghaininitialarabic" unicode="&#x63a;" horiz-adv-x="461" arabic-form="initial" 
d="M297 425c0 -29 -25 -53 -55 -53c-29 0 -54 24 -54 53c0 31 25 55 54 55c30 0 55 -24 55 -55zM0 117h78c-2 7 -2 14 -2 21v56c0 86 60 138 140 138h152v-118h-156c-16 0 -20 -10 -20 -20v-51c0 -14 5 -26 21 -26h201v-117h-414v117z" />
    <glyph glyph-name="ghainmedialarabic" unicode="&#x63a;" horiz-adv-x="475" arabic-form="medial" 
d="M479 117v-117h-166c-23 0 -39 3 -55 16c-20 -13 -34 -16 -55 -16h-203v117h132c-18 20 -35 36 -56 50c-2 105 89 170 182 170c92 0 184 -65 182 -170c-23 -15 -38 -29 -57 -50h96zM311 426c0 -30 -23 -54 -53 -54c-31 0 -54 24 -54 54s23 55 54 55c30 0 53 -25 53 -55z
M302 200c-12 12 -28 20 -44 20c-17 0 -34 -8 -45 -20c17 -13 30 -25 45 -40c12 15 26 27 44 40z" />
    <glyph glyph-name="fehfinalarabic" unicode="&#x641;" horiz-adv-x="659" arabic-form="final" 
d="M534 425c0 -29 -24 -53 -55 -53c-30 0 -53 24 -53 53c0 31 23 55 53 55c31 0 55 -24 55 -55zM663 0h-484c-74 0 -132 58 -132 138v66l117 76v-141c0 -15 8 -22 21 -22h146v77c0 77 55 138 139 138h154v-215h39v-117zM506 117v97h-38c-12 0 -19 -8 -19 -22v-75h57z" />
    <glyph glyph-name="fehinitialarabic" unicode="&#x641;" horiz-adv-x="414" arabic-form="initial" 
d="M278 425c0 -29 -25 -53 -54 -53c-30 0 -55 24 -55 53c0 31 25 55 55 55c29 0 54 -24 54 -55zM234 0h-234v117h75v77c0 77 54 138 138 138h154v-194c0 -81 -59 -138 -133 -138zM192 117h37c12 0 21 5 21 20v77h-38c-13 0 -20 -8 -20 -22v-75z" />
    <glyph glyph-name="fehmedialarabic" unicode="&#x641;" horiz-adv-x="402" arabic-form="medial" 
d="M278 425c0 -29 -25 -53 -54 -53c-30 0 -55 24 -55 53c0 31 25 55 55 55c29 0 54 -24 54 -55zM75 117v77c0 77 54 138 138 138h154v-215h40v-117h-407v117h75zM250 117v97h-38c-13 0 -20 -8 -20 -22v-75h58z" />
    <glyph glyph-name="qaffinalarabic" unicode="&#x642;" horiz-adv-x="549" arabic-form="final" 
d="M396 117v97h-38c-16 0 -19 -13 -19 -22v-56c0 -8 5 -19 19 -19h38zM393 0h-30c-91 0 -142 63 -142 138v56c0 73 51 138 136 138h157v-215h39v-117h-40c-7 -125 -127 -178 -233 -178c-103 0 -233 53 -233 190v119l117 77v-178c0 -75 67 -89 117 -89c43 0 98 13 112 59z
M484 425c0 -29 -25 -53 -55 -53c-29 0 -54 24 -54 53c0 31 25 55 54 55c30 0 55 -24 55 -55zM364 425c0 -29 -25 -53 -54 -53c-30 0 -55 24 -55 53c0 31 25 55 55 55c29 0 54 -24 54 -55z" />
    <glyph glyph-name="qafinitialarabic" unicode="&#x642;" horiz-adv-x="414" arabic-form="initial" 
d="M337 425c0 -29 -23 -53 -54 -53c-30 0 -53 24 -53 53c0 31 23 55 53 55c31 0 54 -24 54 -55zM218 425c0 -29 -24 -53 -54 -53s-54 24 -54 53c0 31 24 55 54 55s54 -24 54 -55zM234 0h-234v117h75v77c0 77 54 138 138 138h154v-194c0 -81 -59 -138 -133 -138zM192 117h37
c12 0 21 5 21 20v77h-38c-13 0 -20 -8 -20 -22v-75z" />
    <glyph glyph-name="qafmedialarabic" unicode="&#x642;" horiz-adv-x="402" arabic-form="medial" 
d="M337 425c0 -29 -23 -53 -54 -53c-30 0 -53 24 -53 53c0 31 23 55 53 55c31 0 54 -24 54 -55zM218 425c0 -29 -24 -53 -54 -53s-54 24 -54 53c0 31 24 55 54 55s54 -24 54 -55zM75 117v77c0 77 54 138 138 138h154v-215h40v-117h-407v117h75zM250 117v97h-38
c-13 0 -20 -8 -20 -22v-75h58z" />
    <glyph glyph-name="kaffinalarabic" unicode="&#x643;" horiz-adv-x="659" arabic-form="final" 
d="M663 0h-485c-74 0 -131 60 -131 138v66l117 76v-143c0 -15 8 -20 21 -20h321v350h118v-350h39v-117zM385 365v-52h-29c-10 0 -22 -2 -22 -17c0 -12 9 -16 22 -16h48v-52h-143v52h25c-2 6 -3 12 -3 18c0 39 28 68 75 68c7 0 20 0 27 -1z" />
    <glyph glyph-name="kafinitialarabic" unicode="&#x643;" horiz-adv-x="447" arabic-form="initial" 
d="M0 117h263c16 0 20 12 20 23v52c0 14 -7 22 -20 22h-187v115c0 78 57 138 138 138h141v-72h-138c-37 0 -53 -22 -53 -48v-15h96c88 0 140 -63 140 -138v-56c0 -82 -58 -138 -142 -138h-258v117z" />
    <glyph glyph-name="kafmedialarabic" unicode="&#x643;" horiz-adv-x="435" arabic-form="medial" 
d="M440 0h-440v117h283v75c0 14 -7 22 -20 22h-187v115c0 78 57 138 138 138h141v-72h-138c-37 0 -53 -22 -53 -48v-15h96c88 0 140 -63 140 -138v-77h40v-117z" />
    <glyph glyph-name="lamfinalarabic" unicode="&#x644;" horiz-adv-x="549" arabic-form="final" 
d="M514 467l-1 -350h40v-117h-40c-2 -125 -136 -178 -233 -178c-137 0 -233 73 -233 186v123l117 77v-178c0 -75 67 -89 117 -89c53 0 115 17 115 89v437h118z" />
    <glyph glyph-name="laminitialarabic" unicode="&#x644;" horiz-adv-x="239" arabic-form="initial" 
d="M192 467v-329c0 -78 -57 -138 -132 -138h-60v117h55c14 0 21 9 21 22v328h116z" />
    <glyph glyph-name="lammedialarabic" unicode="&#x644;" horiz-adv-x="227" arabic-form="medial" 
d="M0 0v117h76v350h116v-350h40v-117h-232z" />
    <glyph glyph-name="meemfinalarabic" unicode="&#x645;" horiz-adv-x="474" arabic-form="final" 
d="M146 117v77c0 81 60 138 136 138h156v-215h40v-117h-280c-17 0 -34 -4 -34 -32v-78l-117 -68v174c0 68 34 110 99 121zM321 214h-38c-17 0 -20 -12 -20 -22v-75h58v97z" />
    <glyph glyph-name="meeminitialarabic" unicode="&#x645;" horiz-adv-x="414" arabic-form="initial" 
d="M192 188v-122c0 -23 12 -34 30 -34c16 0 29 12 29 32v124c0 20 -12 32 -29 32c-21 0 -30 -15 -30 -32zM76 117v73c0 97 63 147 146 147c86 0 145 -50 145 -147v-129c0 -87 -55 -146 -146 -146c-64 0 -114 29 -136 85h-85v117h76z" />
    <glyph glyph-name="meemmedialarabic" unicode="&#x645;" horiz-adv-x="403" arabic-form="medial" 
d="M85 0h-85v117h76v73c0 97 63 147 146 147c86 0 145 -50 145 -147v-73h40v-117h-51c-20 -52 -68 -85 -135 -85c-64 0 -114 29 -136 85zM192 188v-122c0 -23 12 -34 30 -34c16 0 29 12 29 32v124c0 20 -12 32 -29 32c-21 0 -30 -15 -30 -32z" />
    <glyph glyph-name="noonfinalarabic" unicode="&#x646;" horiz-adv-x="549" arabic-form="final" 
d="M337 425c0 -29 -24 -53 -54 -53s-54 24 -54 53c0 31 24 55 54 55s54 -24 54 -55zM514 332l-1 -215h40v-117h-40c-2 -125 -136 -178 -233 -178c-137 0 -233 73 -233 186v123l117 77v-178c0 -75 67 -89 117 -89c53 0 115 17 115 89v302h118z" />
    <glyph glyph-name="nooninitialarabic" unicode="&#x646;" horiz-adv-x="290" arabic-form="initial" 
d="M239 425c0 -29 -24 -53 -54 -53s-54 24 -54 53c0 31 24 55 54 55s54 -24 54 -55zM244 332v-194c0 -78 -58 -138 -133 -138h-111v117h106c14 0 21 9 21 22v193h117z" />
    <glyph glyph-name="noonmedialarabic" unicode="&#x646;" horiz-adv-x="279" arabic-form="medial" 
d="M239 425c0 -29 -24 -53 -54 -53s-54 24 -54 53c0 31 24 55 54 55s54 -24 54 -55zM0 0v117h127v215h117v-215h39v-117h-283z" />
    <glyph glyph-name="hehfinalarabic" unicode="&#x647;" horiz-adv-x="374" arabic-form="final" 
d="M222 117v97h-39c-15 0 -19 -13 -19 -22v-54c0 -12 7 -21 19 -21h39zM339 332v-215h40v-117h-158v74l-53 -74c-77 10 -121 68 -121 138v56c0 81 61 138 131 138h161z" />
    <glyph glyph-name="hehinitialarabic" unicode="&#x647;" horiz-adv-x="483" arabic-form="initial" 
d="M77 139c0 30 13 58 37 76h-38v117h218c98 0 142 -70 142 -138v-56c0 -76 -54 -138 -133 -138h-96c-13 0 -22 2 -32 10c-10 -7 -19 -10 -31 -10h-144v117h79c-1 8 -2 15 -2 22zM299 215h-63c23 -18 38 -48 38 -76c0 -7 -1 -14 -2 -22h25c11 0 22 5 22 19v56
c0 13 -6 23 -20 23zM204 136c0 14 -14 28 -29 28c-14 0 -27 -14 -27 -28s13 -27 27 -27c15 0 29 13 29 27z" />
    <glyph glyph-name="hehmedialarabic" unicode="&#x647;" horiz-adv-x="470" arabic-form="medial" 
d="M475 0h-269c-13 0 -22 2 -32 10c-10 -7 -19 -10 -31 -10h-143v117h78c-2 7 -2 15 -2 22c0 30 14 57 38 76h-38v117h221c95 0 137 -74 137 -138v-77h41v-117zM201 136c0 14 -12 27 -27 27c-14 0 -27 -13 -27 -27s13 -27 27 -27c15 0 27 13 27 27zM317 117v75
c0 15 -7 23 -20 23h-62c23 -17 39 -47 39 -76c0 -7 -1 -14 -2 -22h45z" />
    <glyph glyph-name="wawfinalarabic" unicode="&#x648;" horiz-adv-x="374" arabic-form="final" 
d="M138 -175l-77 107h28c57 1 121 9 134 68h-46c-83 0 -130 73 -130 136v58c0 84 58 138 143 138h149v-215h40v-117h-40c-4 -113 -66 -171 -201 -175zM222 117v97h-38c-15 0 -20 -9 -20 -22v-53c0 -15 7 -22 20 -22h38z" />
    <glyph glyph-name="alefmaksurafinalarabic" unicode="&#x649;" horiz-adv-x="549" arabic-form="final" 
d="M393 0h-68v117h228v-117h-40c-5 -127 -130 -178 -233 -178c-111 0 -233 58 -233 191v118l117 77v-178c0 -75 67 -89 118 -89c36 0 101 13 111 59z" />
    <glyph glyph-name="yehfinalarabic" unicode="&#x64a;" horiz-adv-x="549" arabic-form="final" 
d="M398 -272c0 -30 -24 -54 -54 -54s-54 24 -54 54s24 54 54 54s54 -24 54 -54zM279 -272c0 -30 -24 -54 -54 -54s-54 24 -54 54s24 54 54 54s54 -24 54 -54zM393 0h-68v117h228v-117h-40c-5 -127 -130 -178 -233 -178c-111 0 -233 58 -233 191v118l117 77v-178
c0 -75 67 -89 118 -89c36 0 101 13 111 59z" />
    <glyph glyph-name="yehinitialarabic" unicode="&#x64a;" horiz-adv-x="290" arabic-form="initial" 
d="M239 -111c0 -31 -24 -55 -54 -55s-54 24 -54 55c0 29 24 53 54 53s54 -24 54 -53zM120 -111c0 -31 -24 -55 -54 -55s-54 24 -54 55c0 29 24 53 54 53s54 -24 54 -53zM244 332v-194c0 -78 -58 -138 -133 -138h-111v117h106c14 0 21 9 21 22v193h117z" />
    <glyph glyph-name="yehmedialarabic" unicode="&#x64a;" horiz-adv-x="279" arabic-form="medial" 
d="M239 -111c0 -31 -24 -55 -54 -55s-54 24 -54 55c0 29 24 53 54 53s54 -24 54 -53zM120 -111c0 -31 -24 -55 -54 -55s-54 24 -54 55c0 29 24 53 54 53s54 -24 54 -53zM0 0v117h127v215h117v-215h39v-117h-283z" />
    <glyph glyph-name=".notdef" 
 />
    <glyph glyph-name="space" unicode=" " horiz-adv-x="126" 
 />
    <glyph glyph-name="exclam" unicode="!" horiz-adv-x="222" 
d="M175 467l-12 -303h-103l-12 303h127zM183 63c0 -40 -35 -71 -73 -71s-71 31 -71 71c0 41 33 73 71 73s73 -32 73 -73z" />
    <glyph glyph-name="quotedbl" unicode="&#x22;" horiz-adv-x="280" 
d="M250 467l-15 -156h-66l-16 156h97zM127 467l-16 -156h-65l-16 156h97z" />
    <glyph glyph-name="numbersign" unicode="#" horiz-adv-x="516" 
d="M488 355l-16 -74h-73l-21 -96h73l-17 -73h-72l-25 -112h-85l25 112h-92l-25 -112h-85l25 112h-72l17 73h72l21 96h-72l16 74h72l25 112h85l-25 -112h93l24 112h84l-24 -112h72zM315 281h-92l-22 -96h93z" />
    <glyph glyph-name="dollar" unicode="$" horiz-adv-x="429" 
d="M391 143c0 -94 -62 -140 -156 -149v-57h-42v55c-68 1 -107 9 -154 25l16 106c36 -17 85 -33 138 -34v97c-69 22 -156 50 -156 157c0 88 68 123 156 130v59h42v-57c56 -1 100 -11 135 -28l-19 -99c-29 16 -69 29 -116 30v-82c69 -22 156 -52 156 -153zM193 311v66
c-23 -3 -38 -10 -38 -33c0 -14 15 -24 38 -33zM273 131c0 19 -15 31 -38 40v-81c19 4 38 14 38 41z" />
    <glyph glyph-name="percent" unicode="%" horiz-adv-x="757" 
d="M733 127c0 -112 -73 -135 -141 -135c-67 0 -140 24 -140 137c0 112 73 134 140 134c68 0 141 -23 141 -136zM531 467l-240 -467h-75l241 467h74zM306 339c0 -112 -73 -135 -141 -135c-67 0 -141 23 -141 135c0 113 74 136 141 136c68 0 141 -23 141 -136zM638 127
c0 59 -18 75 -46 75s-45 -16 -45 -75c0 -58 17 -74 45 -74s46 16 46 74zM211 339c0 59 -18 75 -46 75s-46 -16 -46 -75c0 -58 18 -74 46 -74s46 16 46 74z" />
    <glyph glyph-name="ampersand" unicode="&#x26;" horiz-adv-x="548" 
d="M520 296l-14 -92h-40c0 -17 -20 -70 -39 -89c19 -18 31 -29 53 -29c12 0 29 5 39 8l-14 -94c-16 -4 -35 -8 -50 -8c-42 0 -68 21 -94 44c-28 -28 -82 -44 -146 -44c-104 0 -182 34 -182 141c0 99 61 122 95 135c-19 23 -38 50 -38 95c0 65 44 112 139 112
c63 0 104 -10 135 -21l-13 -90c-29 11 -59 20 -102 20c-21 0 -35 -10 -35 -30c0 -37 62 -92 142 -162c12 15 24 43 24 104h140zM288 104c-39 35 -67 63 -102 101c-14 -12 -27 -24 -27 -64c0 -43 29 -63 70 -63c36 0 46 10 59 26z" />
    <glyph glyph-name="quotesingle" unicode="'" horiz-adv-x="157" 
d="M127 467l-16 -156h-65l-16 156h97z" />
    <glyph glyph-name="parenleft" unicode="(" horiz-adv-x="273" 
d="M258 -65l-102 -50c-57 79 -120 208 -120 348s63 269 120 349l102 -51c-67 -98 -107 -172 -107 -298s40 -200 107 -298z" />
    <glyph glyph-name="parenright" unicode=")" horiz-adv-x="273" 
d="M237 233c0 -140 -63 -269 -120 -348l-102 50c67 98 106 172 106 298s-39 200 -106 298l102 51c57 -80 120 -209 120 -349z" />
    <glyph glyph-name="asterisk" unicode="*" horiz-adv-x="249" 
d="M220 379l-26 -58l-53 46l17 -69h-66l17 69l-54 -46l-26 58l61 17l-61 18l26 58l54 -46l-17 69h66l-17 -69l53 46l26 -58l-61 -18z" />
    <glyph glyph-name="plus" unicode="+" horiz-adv-x="355" 
d="M315 176h-90v-94h-95v94h-90v94h90v95h95v-95h90v-94z" />
    <glyph glyph-name="comma" unicode="," horiz-adv-x="211" 
d="M177 55c0 -90 -60 -147 -136 -180l-25 45c44 21 65 38 65 63c0 28 -47 42 -47 84c0 39 22 69 67 69c40 0 76 -28 76 -81z" />
    <glyph glyph-name="hyphen" unicode="-" horiz-adv-x="338" 
d="M290 168h-242v95h242v-95z" />
    <glyph glyph-name="period" unicode="." horiz-adv-x="212" 
d="M178 63c0 -40 -35 -71 -73 -71s-71 31 -71 71c0 41 33 73 71 73s73 -32 73 -73z" />
    <glyph glyph-name="slash" unicode="/" horiz-adv-x="398" 
d="M377 488l-238 -509h-118l237 509h119z" />
    <glyph glyph-name="zero" unicode="0" horiz-adv-x="519" 
d="M481 233c0 -169 -97 -241 -222 -241c-124 0 -221 71 -221 241s97 242 221 242c125 0 222 -72 222 -242zM353 233c0 98 -30 144 -94 144c-63 0 -93 -46 -93 -144s30 -143 93 -143c64 0 94 45 94 143z" />
    <glyph glyph-name="one" unicode="1" horiz-adv-x="280" 
d="M211 0h-123v350l-68 -33v112l79 38h112v-467z" />
    <glyph glyph-name="two" unicode="2" horiz-adv-x="410" 
d="M368 97l-17 -97h-338v86c165 133 217 176 217 232c0 35 -21 56 -59 56c-61 0 -120 -21 -155 -38l18 112c41 15 87 27 159 27c118 0 165 -63 165 -140c0 -111 -62 -159 -171 -238h181z" />
    <glyph glyph-name="three" unicode="3" horiz-adv-x="415" 
d="M378 141c0 -91 -66 -149 -177 -149c-93 0 -144 19 -175 39l16 99c32 -22 77 -41 144 -41c41 0 64 16 64 54c0 42 -27 54 -69 54h-77v93h75c19 0 57 0 57 44s-43 44 -62 44c-52 0 -110 -18 -143 -35l17 106c34 12 78 26 152 26c76 0 164 -33 164 -129
c0 -65 -39 -91 -78 -102c45 -6 92 -39 92 -103z" />
    <glyph glyph-name="four" unicode="4" horiz-adv-x="453" 
d="M433 181l-14 -94h-54v-87h-123v87h-198l-20 94l206 284h135v-284h68zM242 181v145l-103 -145h103z" />
    <glyph glyph-name="five" unicode="5" horiz-adv-x="412" 
d="M384 155c0 -121 -98 -163 -194 -163c-85 0 -124 17 -161 39l16 99c29 -21 67 -41 136 -41c28 0 75 10 75 66c0 44 -40 61 -77 61c-61 0 -99 -14 -133 -28l16 279h306l-16 -97h-180l-4 -64c11 4 28 7 45 7c99 0 171 -51 171 -158z" />
    <glyph glyph-name="six" unicode="6" horiz-adv-x="470" 
d="M437 156c0 -136 -117 -164 -199 -164c-123 0 -200 59 -200 232c0 159 61 251 221 251c65 0 118 -13 156 -27l-17 -100c-31 15 -71 30 -137 30c-86 0 -95 -59 -95 -104c15 16 44 33 96 33c73 0 175 -33 175 -151zM313 146c0 54 -37 65 -64 65c-46 0 -64 -14 -83 -30
c0 -70 37 -92 72 -92c39 0 75 13 75 57z" />
    <glyph glyph-name="seven" unicode="7" horiz-adv-x="369" 
d="M350 381l-169 -381h-133l163 370h-200l17 97h322v-86z" />
    <glyph glyph-name="eight" unicode="8" horiz-adv-x="488" 
d="M455 135c0 -113 -100 -143 -211 -143c-110 0 -211 32 -211 143c0 60 43 91 93 103c-57 15 -80 50 -80 103c0 103 93 134 198 134s198 -31 198 -134c0 -53 -22 -87 -80 -103c50 -12 93 -43 93 -103zM317 331c0 27 -22 47 -73 47c-50 0 -74 -20 -74 -47
c0 -37 42 -48 74 -48c33 0 73 11 73 48zM330 141c0 41 -45 51 -86 51s-86 -10 -86 -51s40 -52 86 -52s86 11 86 52z" />
    <glyph glyph-name="nine" unicode="9" horiz-adv-x="470" 
d="M432 243c0 -160 -61 -251 -221 -251c-77 0 -134 18 -171 39l16 100c28 -18 84 -42 153 -42c76 0 94 38 94 104c-9 -10 -32 -33 -95 -33c-89 0 -175 42 -175 155c0 133 119 160 199 160c121 0 200 -67 200 -232zM303 286c0 73 -37 92 -71 92s-76 -11 -76 -57
c0 -59 33 -66 72 -66c42 0 66 17 75 31z" />
    <glyph glyph-name="colon" unicode=":" horiz-adv-x="228" 
d="M186 269c0 -40 -35 -71 -73 -71s-71 31 -71 71s33 73 71 73s73 -33 73 -73zM186 63c0 -40 -35 -71 -72 -71c-38 0 -71 31 -71 71c0 41 33 73 71 73c37 0 72 -32 72 -73z" />
    <glyph glyph-name="semicolon" unicode=";" horiz-adv-x="227" 
d="M185 269c0 -40 -35 -71 -73 -71c-37 0 -70 31 -70 71s33 73 70 73c38 0 73 -33 73 -73zM185 55c0 -90 -60 -147 -136 -180l-25 45c44 21 65 38 65 63c0 28 -47 42 -47 84c0 39 22 69 67 69c40 0 76 -28 76 -81z" />
    <glyph glyph-name="less" unicode="&#x3c;" horiz-adv-x="276" 
d="M242 57l-197 130v87l197 130v-102l-118 -71l118 -72v-102z" />
    <glyph glyph-name="equal" unicode="=" horiz-adv-x="364" 
d="M324 245h-284v88h284v-88zM324 112h-284v88h284v-88z" />
    <glyph glyph-name="greater" unicode="&#x3e;" horiz-adv-x="276" 
d="M231 187l-197 -130v102l118 72l-118 71v102l197 -130v-87z" />
    <glyph glyph-name="question" unicode="?" horiz-adv-x="349" 
d="M320 356c0 -106 -116 -121 -116 -166v-26h-118v35c0 93 107 94 107 147c0 16 -7 32 -44 32c-33 0 -69 -8 -104 -20l-16 90c42 19 93 27 138 27c93 0 153 -33 153 -119zM217 63c0 -40 -35 -71 -73 -71s-71 31 -71 71c0 41 33 73 71 73s73 -32 73 -73z" />
    <glyph glyph-name="at" unicode="@" horiz-adv-x="750" 
d="M705 188c0 -196 -141 -196 -167 -196c-51 0 -89 4 -120 38c-14 -19 -46 -35 -95 -35c-77 0 -108 40 -108 95c0 89 80 120 164 120c9 0 21 -1 28 -2v10c0 26 -10 36 -62 36c-36 0 -81 -10 -108 -20l18 87c30 10 65 16 110 16c98 0 160 -16 160 -122v-111
c0 -15 7 -34 27 -34c41 0 54 55 54 118c0 144 -70 218 -228 218c-168 0 -233 -90 -233 -256c0 -151 68 -220 208 -220c76 0 153 9 224 24l12 -82c-80 -13 -150 -23 -238 -23c-212 0 -306 120 -306 301c0 223 123 330 333 330c206 0 327 -96 327 -292zM407 127v24
c-7 1 -14 2 -23 2c-38 0 -54 -12 -54 -35c0 -34 18 -39 37 -39c28 0 40 13 40 48z" />
    <glyph glyph-name="A" unicode="A" horiz-adv-x="460" 
d="M450 0h-136l-20 73h-129l-19 -73h-136l146 467h148zM268 171l-38 143l-39 -143h77z" />
    <glyph glyph-name="B" unicode="B" horiz-adv-x="436" 
d="M412 135c0 -94 -56 -135 -176 -135h-192v467h185c69 0 164 -9 164 -130c0 -70 -46 -88 -74 -94c40 -6 93 -37 93 -108zM262 330c0 26 -11 42 -53 42h-34v-83h36c42 0 51 15 51 41zM279 146c0 49 -37 51 -61 51h-43v-102h44c32 0 60 8 60 51z" />
    <glyph glyph-name="C" unicode="C" horiz-adv-x="446" 
d="M425 120l-17 -112c-30 -9 -92 -16 -124 -16c-151 0 -251 77 -251 233c0 146 84 250 245 250c76 0 115 -13 147 -25l-17 -108c-32 15 -78 28 -124 28c-82 0 -118 -55 -118 -148c0 -109 84 -125 130 -125c51 0 91 9 129 23z" />
    <glyph glyph-name="D" unicode="D" horiz-adv-x="494" 
d="M459 233c0 -185 -128 -233 -236 -233h-179v467h177c158 0 238 -79 238 -234zM326 233c0 125 -75 132 -113 132h-38v-263h38c38 0 113 6 113 131z" />
    <glyph glyph-name="E" unicode="E" horiz-adv-x="380" 
d="M356 101l-16 -101h-296v467h312l-16 -101h-165v-77h151l-16 -101h-135v-87h181z" />
    <glyph glyph-name="F" unicode="F" horiz-adv-x="362" 
d="M347 467l-17 -101h-155v-87h142l-16 -101h-126v-178h-131v467h303z" />
    <glyph glyph-name="G" unicode="G" horiz-adv-x="491" 
d="M450 14c-37 -12 -109 -22 -164 -22c-151 1 -251 77 -251 233c0 146 84 250 245 250c59 0 107 -9 155 -24l-17 -109c-32 15 -86 28 -132 28c-82 0 -118 -55 -118 -148c0 -109 84 -125 130 -125c17 0 27 2 35 4v87h-84l17 101h184v-275z" />
    <glyph glyph-name="H" unicode="H" horiz-adv-x="486" 
d="M442 0h-131v188h-136v-188h-131v467h131v-178h136v178h131v-467z" />
    <glyph glyph-name="I" unicode="I" horiz-adv-x="223" 
d="M177 0h-131v467h131v-467z" />
    <glyph glyph-name="J" unicode="J" horiz-adv-x="294" 
d="M251 146c0 -124 -73 -154 -155 -154c-29 0 -51 3 -72 7l-17 102c21 -6 49 -10 65 -10c36 0 48 18 48 64v211h-91l16 101h206v-321z" />
    <glyph glyph-name="K" unicode="K" horiz-adv-x="459" 
d="M453 0h-145l-93 196l-40 -49v-147h-131v467h131v-160l110 160h148l-133 -172z" />
    <glyph glyph-name="L" unicode="L" horiz-adv-x="352" 
d="M335 101l-16 -101h-275v467h131v-366h160z" />
    <glyph glyph-name="M" unicode="M" horiz-adv-x="610" 
d="M566 0h-123v290l-81 -290h-115l-80 290v-290h-123v467h186l75 -305l86 305h175v-467z" />
    <glyph glyph-name="N" unicode="N" horiz-adv-x="486" 
d="M442 0h-123l-151 255v-255h-124v467h123l151 -256v256h124v-467z" />
    <glyph glyph-name="O" unicode="O" horiz-adv-x="531" 
d="M495 233c0 -183 -106 -241 -229 -241s-230 58 -230 241s107 242 230 242s229 -59 229 -242zM362 233c0 99 -35 141 -96 141s-97 -42 -97 -141c0 -100 36 -141 97 -141s96 41 96 141z" />
    <glyph glyph-name="P" unicode="P" horiz-adv-x="430" 
d="M402 306c0 -100 -58 -169 -174 -169h-53v-137h-131v467h171c140 0 187 -80 187 -161zM269 303c0 41 -17 62 -59 62h-35v-126h35c42 0 59 21 59 64z" />
    <glyph glyph-name="Q" unicode="Q" horiz-adv-x="531" 
d="M495 233c0 -122 -48 -188 -116 -219l89 -45l-58 -96l-151 119c-120 2 -223 61 -223 241c0 183 106 242 229 242c124 0 230 -59 230 -242zM362 233c0 99 -35 141 -97 141c-60 0 -96 -42 -96 -141c0 -100 36 -141 96 -141c62 0 97 41 97 141z" />
    <glyph glyph-name="R" unicode="R" horiz-adv-x="436" 
d="M418 0h-145l-59 141h-39v-141h-131v467h171c140 0 187 -80 187 -161c0 -62 -24 -107 -69 -135zM269 303c0 41 -17 62 -59 62h-35v-126h35c42 0 59 21 59 64z" />
    <glyph glyph-name="S" unicode="S" horiz-adv-x="371" 
d="M351 144c0 -98 -65 -152 -177 -152c-58 0 -105 9 -147 25l17 108c30 -12 80 -28 128 -28c20 0 53 5 53 37c0 68 -200 49 -200 208c0 94 75 133 177 133c47 0 91 -12 128 -27l-16 -106c-38 17 -68 28 -114 28c-43 0 -49 -12 -49 -26c0 -58 200 -46 200 -200z" />
    <glyph glyph-name="T" unicode="T" horiz-adv-x="396" 
d="M381 467l-15 -101h-101v-366h-131v366h-107v101h354z" />
    <glyph glyph-name="U" unicode="U" horiz-adv-x="488" 
d="M443 467v-309c0 -68 -37 -166 -199 -166s-199 98 -199 166v309h131v-281c0 -42 3 -89 68 -89s68 47 68 89v281h131z" />
    <glyph glyph-name="V" unicode="V" horiz-adv-x="450" 
d="M435 467l-136 -467h-148l-136 467h138l72 -314l72 314h138z" />
    <glyph glyph-name="W" unicode="W" horiz-adv-x="673" 
d="M655 467l-128 -467h-123l-68 269l-67 -269h-124l-127 467h136l55 -264l62 264h132l61 -264l55 264h136z" />
    <glyph glyph-name="X" unicode="X" horiz-adv-x="447" 
d="M438 0h-142l-72 167l-73 -167h-142l122 246l-110 221h143l60 -144l59 144h143l-110 -221z" />
    <glyph glyph-name="Y" unicode="Y" horiz-adv-x="437" 
d="M430 467l-145 -289v-178h-131v178l-147 289h139l73 -168l73 168h138z" />
    <glyph glyph-name="Z" unicode="Z" horiz-adv-x="430" 
d="M396 0h-368v86l197 279h-191l15 101h342v-85l-201 -280h206v-101z" />
    <glyph glyph-name="bracketleft" unicode="[" horiz-adv-x="257" 
d="M245 -115h-197v697h197v-91h-84v-516h84v-90z" />
    <glyph glyph-name="backslash" unicode="\" horiz-adv-x="398" 
d="M377 -21h-119l-237 509h119z" />
    <glyph glyph-name="bracketright" unicode="]" horiz-adv-x="257" 
d="M209 -115h-197v90h84v516h-84v91h197v-697z" />
    <glyph glyph-name="asciicircum" unicode="^" horiz-adv-x="397" 
d="M397 269h-120l-78 112l-78 -112h-121l155 224h88z" />
    <glyph glyph-name="underscore" unicode="_" horiz-adv-x="336" 
d="M341 -151h-346v91h346v-91z" />
    <glyph glyph-name="grave" unicode="`" horiz-adv-x="190" 
d="M190 381h-81l-109 92h108z" />
    <glyph glyph-name="a" unicode="a" horiz-adv-x="381" 
d="M381 8c-21 -9 -62 -15 -94 -15c-43 0 -59 19 -66 36c-15 -20 -42 -34 -89 -34c-77 0 -108 40 -108 95c0 89 80 120 164 120c10 0 23 -1 28 -2v10c0 26 -10 36 -62 36c-34 0 -76 -8 -108 -20l18 87c29 9 70 16 110 16c98 0 160 -16 160 -122v-125c0 -12 4 -17 17 -17
c5 0 12 2 19 3zM216 122v25c-4 1 -15 1 -23 1c-38 0 -54 -12 -54 -34c0 -34 18 -39 37 -39c28 0 40 12 40 47z" />
    <glyph glyph-name="b" unicode="b" horiz-adv-x="416" 
d="M387 167c0 -108 -54 -172 -164 -172c-62 0 -139 8 -182 16v456h118v-156c9 7 36 26 99 26c68 0 129 -46 129 -170zM267 166c0 65 -14 90 -47 90c-27 0 -61 -8 -61 -72v-101c12 -4 30 -7 50 -7c43 0 58 17 58 90z" />
    <glyph glyph-name="c" unicode="c" horiz-adv-x="327" 
d="M312 99l-19 -89c-24 -9 -61 -15 -95 -15c-51 0 -170 13 -170 174c0 79 42 168 179 168c36 0 80 -8 105 -16l-19 -90c-19 9 -39 15 -65 15c-68 0 -79 -37 -79 -80c0 -54 18 -80 87 -80c25 0 58 8 76 13z" />
    <glyph glyph-name="d" unicode="d" horiz-adv-x="428" 
d="M423 8c-21 -9 -62 -15 -94 -15c-49 0 -64 24 -70 40c-16 -20 -37 -38 -100 -38c-68 0 -130 46 -130 171c0 108 54 171 165 171c18 0 51 -4 63 -8v143h119v-382c0 -12 4 -17 16 -17c5 0 12 2 20 3zM257 148v98c-15 6 -32 11 -49 11c-43 0 -58 -18 -58 -90
c0 -66 14 -91 46 -91c27 0 61 7 61 72z" />
    <glyph glyph-name="e" unicode="e" horiz-adv-x="386" 
d="M359 188c0 -14 -2 -37 -3 -54h-207c-1 -37 23 -57 85 -57c44 0 89 9 120 20l-19 -88c-30 -8 -88 -14 -126 -14c-142 0 -179 69 -179 162c0 90 41 180 167 180c119 0 162 -68 162 -149zM245 195c4 50 -15 67 -48 67c-37 0 -48 -27 -48 -67h96z" />
    <glyph glyph-name="f" unicode="f" horiz-adv-x="287" 
d="M291 469l-19 -82c-10 4 -34 8 -47 8c-30 0 -41 -8 -41 -40v-23h77v-82h-77v-250h-119v250h-58l17 82h41v29c0 83 37 119 135 119c27 0 53 -2 91 -11z" />
    <glyph glyph-name="g" unicode="g" horiz-adv-x="416" 
d="M377 321v-271c0 -185 -101 -185 -206 -185c-51 0 -99 10 -138 24l17 86c28 -11 68 -24 119 -24c64 0 90 13 90 59v21c-24 -17 -45 -26 -99 -26c-68 0 -130 45 -130 170c0 103 60 162 165 162c69 0 135 -8 182 -16zM258 157v93c-16 4 -32 7 -49 7c-38 0 -58 -13 -58 -81
c0 -65 14 -90 46 -90c27 0 61 6 61 71z" />
    <glyph glyph-name="h" unicode="h" horiz-adv-x="412" 
d="M412 8c-17 -7 -55 -15 -97 -15c-31 0 -69 11 -69 69v140c0 25 0 37 -28 37c-26 0 -53 -21 -61 -28v-211h-118v467h118v-169c21 16 52 39 106 39c67 0 102 -14 102 -103v-144c0 -12 4 -17 16 -17c5 0 12 2 20 3z" />
    <glyph glyph-name="i" unicode="i" horiz-adv-x="206" 
d="M162 433c0 -37 -28 -67 -63 -67c-36 0 -65 30 -65 67c0 36 29 66 65 66c35 0 63 -30 63 -66zM205 8c-18 -7 -55 -15 -97 -15c-31 0 -69 11 -69 69v270h118v-242c0 -12 5 -17 17 -17c5 0 12 2 20 3z" />
    <glyph glyph-name="j" unicode="j" horiz-adv-x="214" 
d="M181 433c0 -37 -28 -67 -64 -67s-65 30 -65 67c0 36 29 66 65 66s64 -30 64 -66zM176 -16c0 -83 -37 -119 -135 -119c-31 0 -52 3 -89 15l17 78c10 -4 34 -8 47 -8c30 0 41 8 41 40v342h119v-348z" />
    <glyph glyph-name="k" unicode="k" horiz-adv-x="387" 
d="M386 0h-131l-60 129l-38 -44v-85h-118v467h118v-242l94 107h130l-106 -119z" />
    <glyph glyph-name="l" unicode="l" horiz-adv-x="205" 
d="M205 8c-17 -7 -55 -15 -97 -15c-31 0 -69 11 -69 69v405h118v-377c0 -12 5 -17 17 -17c5 0 12 2 20 3z" />
    <glyph glyph-name="m" unicode="m" horiz-adv-x="604" 
d="M604 8c-17 -7 -55 -15 -97 -15c-31 0 -69 11 -69 69v145c0 22 -4 30 -28 30c-15 0 -39 -14 -53 -28v-209h-118v207c0 19 -3 30 -27 30c-21 0 -44 -18 -55 -28v-209h-118v332h118v-34c21 18 50 39 98 39c47 0 79 -9 93 -44c32 25 68 44 114 44c66 0 94 -18 94 -103v-144
c0 -12 5 -17 17 -17c5 0 12 2 20 3z" />
    <glyph glyph-name="n" unicode="n" horiz-adv-x="412" 
d="M412 8c-17 -7 -55 -15 -97 -15c-31 0 -69 11 -69 69v140c0 25 0 37 -28 37c-26 0 -53 -21 -61 -28v-211h-118v332h118v-34c21 16 52 39 106 39c67 0 102 -14 102 -103v-144c0 -12 4 -17 16 -17c5 0 12 2 20 3z" />
    <glyph glyph-name="o" unicode="o" horiz-adv-x="412" 
d="M384 166c0 -143 -93 -171 -177 -171c-85 0 -179 28 -179 171s94 171 179 171s177 -28 177 -171zM264 166c0 74 -22 94 -57 94c-36 0 -58 -20 -58 -94s22 -94 58 -94c35 0 57 20 57 94z" />
    <glyph glyph-name="p" unicode="p" horiz-adv-x="415" 
d="M385 167c0 -108 -54 -172 -164 -172c-23 0 -55 7 -64 10v-135h-118v462h117v-34c16 20 37 39 100 39c68 0 129 -46 129 -170zM265 166c0 65 -14 90 -47 90c-27 0 -61 -8 -61 -72v-98c10 -4 30 -10 50 -10c43 0 58 17 58 90z" />
    <glyph glyph-name="q" unicode="q" horiz-adv-x="416" 
d="M377 -130h-119v152c-17 -14 -44 -27 -98 -27c-68 0 -130 46 -130 171c0 108 54 171 165 171c72 0 137 -7 182 -16v-451zM258 148v101c-16 5 -30 8 -49 8c-43 0 -58 -18 -58 -90c0 -66 14 -91 46 -91c27 0 61 8 61 72z" />
    <glyph glyph-name="r" unicode="r" horiz-adv-x="293" 
d="M281 323l-20 -91c-12 6 -26 11 -48 11c-29 0 -47 -24 -54 -35v-208h-118v332h118v-35c21 29 38 40 65 40c25 0 42 -7 57 -14z" />
    <glyph glyph-name="s" unicode="s" horiz-adv-x="319" 
d="M297 94c0 -65 -62 -99 -142 -99c-58 0 -99 7 -128 15l19 85c20 -10 64 -20 95 -20c33 0 41 8 41 22c0 42 -148 26 -148 144c0 72 63 96 144 96c37 0 76 -6 111 -16l-17 -84c-25 10 -53 21 -85 21c-25 0 -32 -7 -32 -19c0 -36 142 -23 142 -145z" />
    <glyph glyph-name="t" unicode="t" horiz-adv-x="270" 
d="M256 8c-34 -9 -56 -13 -101 -13c-39 0 -95 13 -95 90v165h-48l17 82h31v85l119 39v-124h67v-82h-67v-132c0 -26 8 -38 28 -38c11 0 24 3 35 8z" />
    <glyph glyph-name="u" unicode="u" horiz-adv-x="412" 
d="M412 8c-21 -9 -62 -15 -94 -15c-49 0 -63 28 -70 43c-34 -28 -70 -41 -108 -41c-65 0 -101 21 -101 104v233h118v-199c0 -27 3 -38 28 -38c27 0 53 21 61 29v208h118v-242c0 -12 5 -17 17 -17c5 0 12 2 20 3z" />
    <glyph glyph-name="v" unicode="v" horiz-adv-x="371" 
d="M364 332l-113 -332h-130l-114 332h125l53 -209l54 209h125z" />
    <glyph glyph-name="w" unicode="w" horiz-adv-x="526" 
d="M514 332l-87 -332h-121l-43 164l-43 -164h-121l-87 332h119l37 -200l43 200h104l43 -200l37 200h119z" />
    <glyph glyph-name="x" unicode="x" horiz-adv-x="367" 
d="M361 0h-128l-50 102l-49 -102h-128l100 172l-88 160h126l39 -87l41 87h125l-87 -160z" />
    <glyph glyph-name="y" unicode="y" horiz-adv-x="372" 
d="M365 332l-120 -332c-45 -124 -98 -135 -147 -135s-78 11 -102 24l20 83c16 -12 34 -21 60 -21c29 0 45 19 53 49l-123 332h125l58 -183l51 183h125z" />
    <glyph glyph-name="z" unicode="z" horiz-adv-x="325" 
d="M311 0h-282v71l133 179h-133l18 82h258v-70l-136 -179h142v-83z" />
    <glyph glyph-name="braceleft" unicode="{" horiz-adv-x="304" 
d="M286 -115c-111 0 -197 13 -197 226c0 49 -13 81 -53 86v74c40 5 53 34 53 84c0 215 86 227 197 227v-91c-68 0 -81 -21 -81 -156c0 -72 -33 -86 -62 -101c28 -14 62 -32 62 -102c0 -132 8 -157 81 -157v-90z" />
    <glyph glyph-name="bar" unicode="|" horiz-adv-x="243" 
d="M178 -139h-113v699h113v-699z" />
    <glyph glyph-name="braceright" unicode="}" horiz-adv-x="304" 
d="M268 197c-40 -5 -53 -37 -53 -86c0 -213 -86 -226 -197 -226v90c73 0 81 25 81 157c0 70 34 88 62 102c-30 15 -62 29 -62 101c0 135 -13 156 -81 156v91c111 0 197 -12 197 -227c0 -50 13 -79 53 -84v-74z" />
    <glyph glyph-name="asciitilde" unicode="~" horiz-adv-x="417" 
d="M393 265c0 -70 -28 -126 -108 -126c-55 0 -109 46 -149 46c-17 0 -29 -13 -30 -44h-82c0 66 28 131 103 131c58 0 106 -46 151 -46c18 0 34 9 34 39h81z" />
    <glyph glyph-name="exclamdown" unicode="&#xa1;" horiz-adv-x="230" 
d="M187 404c0 -40 -33 -73 -71 -73s-73 33 -73 73s35 71 73 71s71 -31 71 -71zM179 0h-128l13 302h103z" />
    <glyph glyph-name="cent" unicode="&#xa2;" horiz-adv-x="331" 
d="M314 167l-19 -89c-17 -7 -37 -12 -57 -14v-64h-41v62c-51 1 -167 16 -167 174c0 76 39 164 167 169v62h41v-64c32 -3 61 -10 76 -15l-19 -90c-16 8 -37 14 -57 16v-161c25 0 58 9 76 14zM197 157v152c-39 -10 -46 -42 -46 -76c0 -41 11 -66 46 -76z" />
    <glyph glyph-name="sterling" unicode="&#xa3;" horiz-adv-x="457" 
d="M413 97l-17 -97h-326v86c32 40 35 65 33 98h-57v92h47c-3 17 -7 45 -7 64c0 107 79 135 181 135c64 0 98 -12 135 -27l-17 -101c-40 21 -70 31 -110 31c-43 0 -61 -20 -61 -45c0 -22 3 -43 7 -57h132v-92h-124c0 -44 -23 -69 -45 -87h229z" />
    <glyph glyph-name="yen" unicode="&#xa5;" horiz-adv-x="509" 
d="M466 467l-122 -243h64v-66h-87v-40h87v-66h-87v-52h-131v52h-88v66h88v40h-88v66h65l-124 243h139l73 -168l73 168h138z" />
    <glyph glyph-name="brokenbar" unicode="&#xa6;" horiz-adv-x="210" 
d="M145 249h-80v283h80v-283zM145 -132h-80v282h80v-282z" />
    <glyph glyph-name="section" unicode="&#xa7;" horiz-adv-x="414" 
d="M381 -22c0 -55 -38 -132 -185 -132c-54 0 -110 10 -153 27l14 98c46 -21 98 -29 142 -29c36 0 58 8 58 31c0 57 -224 53 -224 192c0 41 19 69 63 89c-20 12 -47 42 -47 99c0 65 44 122 172 122c36 0 80 -7 130 -22l-15 -98c-37 15 -79 24 -116 24c-35 0 -49 -9 -49 -30
c0 -50 206 -31 206 -173c0 -61 -40 -83 -64 -91c33 -14 68 -49 68 -107zM270 157c0 32 -19 36 -101 70c-22 -8 -30 -27 -30 -41c0 -26 36 -33 103 -62c10 1 28 15 28 33z" />
    <glyph glyph-name="dieresis" unicode="&#xa8;" horiz-adv-x="284" 
d="M284 433c0 -35 -25 -63 -60 -63c-34 0 -61 28 -61 63c0 34 27 63 61 63c35 0 60 -29 60 -63zM121 433c0 -35 -26 -63 -60 -63s-61 28 -61 63c0 34 27 63 61 63s60 -29 60 -63z" />
    <glyph glyph-name="copyright" unicode="&#xa9;" horiz-adv-x="423" 
d="M381 316c0 -98 -74 -173 -170 -173s-171 75 -171 173c0 97 75 173 171 173s170 -76 170 -173zM340 316c0 72 -53 133 -129 133c-77 0 -129 -61 -129 -133s52 -133 129 -133c76 0 129 61 129 133zM277 279l-6 -44c-11 -3 -41 -5 -52 -5c-54 0 -89 27 -89 83
c0 52 30 89 88 89c27 0 53 -6 59 -8l-6 -43c-11 6 -35 10 -52 10c-24 0 -34 -19 -34 -49c0 -38 27 -41 39 -41c11 0 41 3 53 8z" />
    <glyph glyph-name="ordfeminine" unicode="&#xaa;" horiz-adv-x="320" 
d="M285 258c-17 -6 -40 -10 -65 -10c-29 0 -41 17 -44 24c-10 -14 -27 -23 -58 -23c-51 0 -75 27 -75 62c0 59 57 80 111 80c7 0 16 -1 18 -2v6c0 18 -6 25 -40 25c-27 0 -55 -7 -74 -13l12 57c20 6 49 11 75 11c65 0 109 -12 109 -81v-83c0 -7 2 -10 12 -10c4 0 7 1 12 1z
M172 333v16c-2 0 -9 1 -14 1c-26 0 -36 -8 -36 -22c0 -23 12 -26 25 -26c17 0 25 8 25 31z" />
    <glyph glyph-name="guillemotleft" unicode="&#xab;" horiz-adv-x="388" 
d="M368 59h-96l-84 127l84 124h96l-87 -124zM219 59h-96l-85 127l85 124h96l-87 -124z" />
    <glyph glyph-name="logicalnot" unicode="&#xac;" horiz-adv-x="326" 
d="M280 95h-64v85h-179v68h243v-153z" />
    <glyph glyph-name="registered" unicode="&#xae;" horiz-adv-x="423" 
d="M381 316c0 -98 -74 -173 -170 -173s-171 75 -171 173c0 97 75 173 171 173s170 -76 170 -173zM340 316c0 72 -53 133 -129 133c-77 0 -129 -61 -129 -133s52 -133 129 -133c76 0 129 61 129 133zM293 232h-53l-26 51h-16v-51h-54v168h76c50 0 67 -28 67 -57
c0 -22 -8 -39 -25 -49zM232 342c0 14 -6 22 -21 22h-13v-45h13c15 0 21 7 21 23z" />
    <glyph glyph-name="macron" unicode="&#xaf;" horiz-adv-x="219" 
d="M219 373h-219v77h219v-77z" />
    <glyph glyph-name="degree" unicode="&#xb0;" horiz-adv-x="255" 
d="M220 407c0 -51 -41 -92 -92 -92c-52 0 -93 41 -93 92s41 93 93 93c51 0 92 -42 92 -93zM177 407c0 26 -18 53 -49 53c-32 0 -51 -24 -51 -53c0 -30 21 -52 51 -52c31 0 49 26 49 52z" />
    <glyph glyph-name="plusminus" unicode="&#xb1;" horiz-adv-x="355" 
d="M315 210h-90v-95h-95v95h-90v94h90v94h95v-94h90v-94zM306 1h-260v76h260v-76z" />
    <glyph glyph-name="twosuperior" unicode="&#xb2;" horiz-adv-x="304" 
d="M259 271l-10 -60h-213v48c104 75 136 96 136 127c0 19 -12 27 -36 27c-47 0 -69 -6 -98 -15l11 62c30 10 65 15 100 15c75 0 105 -35 105 -78c0 -61 -33 -83 -101 -126h106z" />
    <glyph glyph-name="threesuperior" unicode="&#xb3;" horiz-adv-x="290" 
d="M254 290c0 -50 -42 -82 -112 -82c-57 0 -91 10 -113 19l10 57c21 -9 58 -17 94 -17c23 0 40 9 40 26c0 21 -17 25 -43 25h-49v57h48c18 0 36 2 36 20c0 20 -23 21 -35 21c-46 0 -74 -7 -95 -14l10 59c17 5 50 14 97 14s103 -18 103 -71c0 -37 -24 -51 -49 -57
c28 -3 58 -22 58 -57z" />
    <glyph glyph-name="acute" unicode="&#xb4;" horiz-adv-x="191" 
d="M191 473l-109 -92h-82l83 92h108z" />
    <glyph glyph-name="paragraph" unicode="&#xb6;" horiz-adv-x="461" 
d="M416 -81h-78v471h-40v-471h-78v219h-13c-124 0 -171 65 -171 164c0 82 36 165 184 165h196v-548z" />
    <glyph glyph-name="periodcentered" unicode="&#xb7;" horiz-adv-x="212" 
d="M178 246c0 -40 -35 -70 -73 -70s-71 30 -71 70c0 41 33 73 71 73s73 -32 73 -73z" />
    <glyph glyph-name="cedilla" unicode="&#xb8;" horiz-adv-x="157" 
d="M157 -43l-77 -108h-80l58 108h99z" />
    <glyph glyph-name="onesuperior" unicode="&#xb9;" horiz-adv-x="213" 
d="M148 213h-78v188l-43 -18v68l50 20h71v-258z" />
    <glyph glyph-name="ordmasculine" unicode="&#xba;" horiz-adv-x="331" 
d="M286 362c0 -94 -64 -113 -120 -113s-121 19 -121 113s65 113 121 113s120 -19 120 -113zM204 362c0 49 -14 59 -38 59s-38 -10 -38 -59s14 -60 38 -60s38 11 38 60z" />
    <glyph glyph-name="guillemotright" unicode="&#xbb;" horiz-adv-x="388" 
d="M350 186l-85 -127h-96l88 127l-88 124h96zM201 186l-85 -127h-96l87 127l-87 124h96z" />
    <glyph glyph-name="onequarter" unicode="&#xbc;" horiz-adv-x="618" 
d="M574 101l-8 -56h-34v-45h-78v45h-124l-13 55l130 158h85v-157h42zM430 479l-252 -491h-75l253 491h74zM148 213h-78v188l-43 -18v68l50 20h71v-258zM454 101v80l-65 -80h65z" />
    <glyph glyph-name="onehalf" unicode="&#xbd;" horiz-adv-x="658" 
d="M597 59l-9 -59h-214v48c104 74 137 95 137 126c0 20 -13 28 -37 28c-47 0 -69 -6 -98 -16l11 62c30 10 66 15 101 15c74 0 104 -34 104 -78c0 -60 -32 -82 -101 -126h106zM430 479l-252 -491h-75l253 491h74zM148 213h-78v188l-43 -18v68l50 20h71v-258z" />
    <glyph glyph-name="threequarters" unicode="&#xbe;" horiz-adv-x="685" 
d="M641 101l-9 -56h-34v-45h-78v45h-124l-13 55l130 158h85v-157h43zM497 479l-252 -491h-75l252 491h75zM254 290c0 -50 -42 -82 -112 -82c-57 0 -91 10 -113 19l10 57c21 -9 58 -17 94 -17c23 0 40 9 40 26c0 21 -17 25 -43 25h-49v57h48c18 0 36 2 36 20
c0 20 -23 21 -35 21c-46 0 -74 -7 -95 -14l10 59c17 5 50 14 97 14s103 -18 103 -71c0 -37 -24 -51 -49 -57c28 -3 58 -22 58 -57zM520 101v80l-65 -80h65z" />
    <glyph glyph-name="questiondown" unicode="&#xbf;" horiz-adv-x="349" 
d="M276 404c0 -40 -33 -73 -70 -73c-38 0 -73 33 -73 73s35 71 73 71c37 0 70 -31 70 -71zM320 19c-42 -19 -93 -27 -137 -27c-93 0 -154 32 -154 119c0 106 116 121 116 166v25h119v-34c0 -93 -107 -94 -107 -147c0 -16 7 -32 44 -32c33 0 69 8 103 20z" />
    <glyph glyph-name="Agrave" unicode="&#xc0;" horiz-adv-x="460" 
d="M450 0h-136l-20 73h-129l-19 -73h-136l146 467h148zM268 171l-38 143l-39 -143h77zM325 516h-81l-109 92h108z" />
    <glyph glyph-name="Aacute" unicode="&#xc1;" horiz-adv-x="460" 
d="M450 0h-136l-20 73h-129l-19 -73h-136l146 467h148zM268 171l-38 143l-39 -143h77zM325 608l-109 -92h-82l83 92h108z" />
    <glyph glyph-name="Acircumflex" unicode="&#xc2;" horiz-adv-x="460" 
d="M450 0h-136l-20 73h-129l-19 -73h-136l146 467h148zM268 171l-38 143l-39 -143h77zM357 516h-90l-37 42l-37 -42h-90l85 92h84z" />
    <glyph glyph-name="Atilde" unicode="&#xc3;" horiz-adv-x="460" 
d="M450 0h-136l-20 73h-129l-19 -73h-136l146 467h148zM268 171l-38 143l-39 -143h77zM364 612c0 -74 -21 -99 -67 -99c-37 0 -93 32 -115 32c-14 0 -21 -6 -21 -32h-66c0 72 17 103 67 103c37 0 92 -32 115 -32c15 0 21 2 21 28h66z" />
    <glyph glyph-name="Adieresis" unicode="&#xc4;" horiz-adv-x="460" 
d="M450 0h-136l-20 73h-129l-19 -73h-136l146 467h148zM268 171l-38 143l-39 -143h77zM372 568c0 -35 -25 -63 -60 -63c-34 0 -61 28 -61 63c0 34 27 63 61 63c35 0 60 -29 60 -63zM209 568c0 -35 -26 -63 -60 -63s-61 28 -61 63c0 34 27 63 61 63s60 -29 60 -63z" />
    <glyph glyph-name="Aring" unicode="&#xc5;" horiz-adv-x="460" 
d="M450 0h-136l-20 73h-129l-19 -73h-136l146 467h148zM268 171l-38 143l-39 -143h77zM295 570c0 -37 -28 -65 -65 -65c-36 0 -65 28 -65 65c0 36 30 65 67 65c36 0 63 -29 63 -65zM258 570c0 14 -13 27 -28 27c-14 0 -27 -13 -27 -27c0 -15 13 -28 27 -28c15 0 28 13 28 28
z" />
    <glyph glyph-name="AE" unicode="&#xc6;" horiz-adv-x="669" 
d="M645 101l-16 -101h-296v73h-130l-36 -73h-151l253 467h376l-16 -101h-165v-77h151l-16 -101h-135v-87h181zM333 171v162l-81 -162h81z" />
    <glyph glyph-name="Ccedilla" unicode="&#xc7;" horiz-adv-x="446" 
d="M425 120l-17 -112c-30 -9 -92 -16 -124 -16c-151 0 -251 77 -251 233c0 146 84 250 245 250c76 0 115 -13 147 -25l-17 -108c-32 15 -78 28 -124 28c-82 0 -118 -55 -118 -148c0 -109 84 -125 130 -125c51 0 91 9 129 23zM301 -43l-77 -108h-80l58 108h99z" />
    <glyph glyph-name="Egrave" unicode="&#xc8;" horiz-adv-x="380" 
d="M356 101l-16 -101h-296v467h312l-16 -101h-165v-77h151l-16 -101h-135v-87h181zM285 516h-81l-109 92h108z" />
    <glyph glyph-name="Eacute" unicode="&#xc9;" horiz-adv-x="380" 
d="M356 101l-16 -101h-296v467h312l-16 -101h-165v-77h151l-16 -101h-135v-87h181zM285 608l-109 -92h-82l83 92h108z" />
    <glyph glyph-name="Ecircumflex" unicode="&#xca;" horiz-adv-x="380" 
d="M356 101l-16 -101h-296v467h312l-16 -101h-165v-77h151l-16 -101h-135v-87h181zM317 516h-90l-37 42l-37 -42h-90l85 92h84z" />
    <glyph glyph-name="Edieresis" unicode="&#xcb;" horiz-adv-x="380" 
d="M356 101l-16 -101h-296v467h312l-16 -101h-165v-77h151l-16 -101h-135v-87h181zM332 568c0 -35 -25 -63 -60 -63c-34 0 -61 28 -61 63c0 34 27 63 61 63c35 0 60 -29 60 -63zM169 568c0 -35 -26 -63 -60 -63s-61 28 -61 63c0 34 27 63 61 63s60 -29 60 -63z" />
    <glyph glyph-name="Igrave" unicode="&#xcc;" horiz-adv-x="223" 
d="M177 0h-131v467h131v-467zM206 516h-81l-109 92h108z" />
    <glyph glyph-name="Iacute" unicode="&#xcd;" horiz-adv-x="223" 
d="M177 0h-131v467h131v-467zM207 608l-109 -92h-82l83 92h108z" />
    <glyph glyph-name="Icircumflex" unicode="&#xce;" horiz-adv-x="223" 
d="M177 0h-131v467h131v-467zM239 516h-90l-37 42l-37 -42h-90l85 92h84z" />
    <glyph glyph-name="Idieresis" unicode="&#xcf;" horiz-adv-x="223" 
d="M177 0h-131v467h131v-467zM254 568c0 -35 -25 -63 -60 -63c-34 0 -61 28 -61 63c0 34 27 63 61 63c35 0 60 -29 60 -63zM91 568c0 -35 -26 -63 -60 -63s-61 28 -61 63c0 34 27 63 61 63s60 -29 60 -63z" />
    <glyph glyph-name="Eth" unicode="&#xd0;" horiz-adv-x="514" 
d="M479 233c0 -185 -128 -233 -237 -233h-178v186h-64v90h64v191h176c159 0 239 -79 239 -234zM346 233c0 125 -76 132 -113 132h-38v-89h73v-90h-73v-84h38c37 0 113 6 113 131z" />
    <glyph glyph-name="Ntilde" unicode="&#xd1;" horiz-adv-x="486" 
d="M442 0h-123l-151 255v-255h-124v467h123l151 -256v256h124v-467zM377 612c0 -74 -21 -99 -67 -99c-37 0 -93 32 -115 32c-14 0 -21 -6 -21 -32h-66c0 72 17 103 67 103c37 0 92 -32 115 -32c15 0 21 2 21 28h66z" />
    <glyph glyph-name="Ograve" unicode="&#xd2;" horiz-adv-x="531" 
d="M495 233c0 -183 -106 -241 -229 -241s-230 58 -230 241s107 242 230 242s229 -59 229 -242zM362 233c0 99 -35 141 -96 141s-97 -42 -97 -141c0 -100 36 -141 97 -141s96 41 96 141zM360 516h-81l-109 92h108z" />
    <glyph glyph-name="Oacute" unicode="&#xd3;" horiz-adv-x="531" 
d="M495 233c0 -183 -106 -241 -229 -241s-230 58 -230 241s107 242 230 242s229 -59 229 -242zM362 233c0 99 -35 141 -96 141s-97 -42 -97 -141c0 -100 36 -141 97 -141s96 41 96 141zM361 608l-109 -92h-82l83 92h108z" />
    <glyph glyph-name="Ocircumflex" unicode="&#xd4;" horiz-adv-x="531" 
d="M495 233c0 -183 -106 -241 -229 -241s-230 58 -230 241s107 242 230 242s229 -59 229 -242zM362 233c0 99 -35 141 -96 141s-97 -42 -97 -141c0 -100 36 -141 97 -141s96 41 96 141zM392 516h-90l-37 42l-37 -42h-90l85 92h84z" />
    <glyph glyph-name="Otilde" unicode="&#xd5;" horiz-adv-x="531" 
d="M495 233c0 -183 -106 -241 -229 -241s-230 58 -230 241s107 242 230 242s229 -59 229 -242zM362 233c0 99 -35 141 -96 141s-97 -42 -97 -141c0 -100 36 -141 97 -141s96 41 96 141zM400 612c0 -74 -21 -99 -67 -99c-37 0 -93 32 -115 32c-14 0 -21 -6 -21 -32h-66
c0 72 17 103 67 103c37 0 92 -32 115 -32c15 0 21 2 21 28h66z" />
    <glyph glyph-name="Odieresis" unicode="&#xd6;" horiz-adv-x="531" 
d="M495 233c0 -183 -106 -241 -229 -241s-230 58 -230 241s107 242 230 242s229 -59 229 -242zM362 233c0 99 -35 141 -96 141s-97 -42 -97 -141c0 -100 36 -141 97 -141s96 41 96 141zM407 568c0 -35 -25 -63 -60 -63c-34 0 -61 28 -61 63c0 34 27 63 61 63
c35 0 60 -29 60 -63zM244 568c0 -35 -26 -63 -60 -63s-61 28 -61 63c0 34 27 63 61 63s60 -29 60 -63z" />
    <glyph glyph-name="multiply" unicode="&#xd7;" horiz-adv-x="344" 
d="M304 153l-60 -61l-72 72l-68 -67l-60 60l68 68l-72 71l60 60l72 -71l68 67l60 -60l-67 -67z" />
    <glyph glyph-name="Oslash" unicode="&#xd8;" horiz-adv-x="531" 
d="M495 233c0 -183 -106 -241 -229 -241c-32 0 -63 4 -91 13l-21 -34h-95l44 74c-41 37 -67 98 -67 188c0 183 107 242 230 242c31 0 62 -4 90 -13l22 36h95l-45 -76c42 -38 67 -98 67 -189zM299 369c-10 3 -21 5 -33 5c-62 0 -97 -42 -97 -141c0 -27 3 -49 8 -68zM362 233
c0 27 -2 50 -7 69l-124 -204c10 -4 22 -6 35 -6c61 0 96 41 96 141z" />
    <glyph glyph-name="Ugrave" unicode="&#xd9;" horiz-adv-x="488" 
d="M443 467v-309c0 -68 -37 -166 -199 -166s-199 98 -199 166v309h131v-281c0 -42 3 -89 68 -89s68 47 68 89v281h131zM339 516h-81l-109 92h108z" />
    <glyph glyph-name="Uacute" unicode="&#xda;" horiz-adv-x="488" 
d="M443 467v-309c0 -68 -37 -166 -199 -166s-199 98 -199 166v309h131v-281c0 -42 3 -89 68 -89s68 47 68 89v281h131zM339 608l-109 -92h-82l83 92h108z" />
    <glyph glyph-name="Ucircumflex" unicode="&#xdb;" horiz-adv-x="488" 
d="M443 467v-309c0 -68 -37 -166 -199 -166s-199 98 -199 166v309h131v-281c0 -42 3 -89 68 -89s68 47 68 89v281h131zM371 516h-90l-37 42l-37 -42h-90l85 92h84z" />
    <glyph glyph-name="Udieresis" unicode="&#xdc;" horiz-adv-x="488" 
d="M443 467v-309c0 -68 -37 -166 -199 -166s-199 98 -199 166v309h131v-281c0 -42 3 -89 68 -89s68 47 68 89v281h131zM386 568c0 -35 -25 -63 -60 -63c-34 0 -61 28 -61 63c0 34 27 63 61 63c35 0 60 -29 60 -63zM223 568c0 -35 -26 -63 -60 -63s-61 28 -61 63
c0 34 27 63 61 63s60 -29 60 -63z" />
    <glyph glyph-name="Yacute" unicode="&#xdd;" horiz-adv-x="437" 
d="M430 467l-145 -289v-178h-131v178l-147 289h139l73 -168l73 168h138zM314 608l-109 -92h-82l83 92h108z" />
    <glyph glyph-name="Thorn" unicode="&#xde;" horiz-adv-x="441" 
d="M404 237c0 -99 -58 -168 -174 -168h-53v-69h-131v467h131v-69h40c140 0 187 -80 187 -161zM271 234c0 41 -17 62 -59 62h-35v-125h35c42 0 59 21 59 63z" />
    <glyph glyph-name="germandbls" unicode="&#xdf;" horiz-adv-x="421" 
d="M395 109c0 -79 -54 -114 -139 -114c-29 0 -56 5 -78 15l17 78c12 -8 30 -16 46 -16c20 0 39 12 39 37c0 53 -101 55 -101 146c0 54 72 68 72 112c0 16 -13 36 -41 36c-34 0 -47 -12 -47 -47v-356h-117v342c0 108 87 138 176 138c75 0 143 -39 143 -112
c0 -66 -76 -82 -76 -108c0 -25 106 -43 106 -151z" />
    <glyph glyph-name="agrave" unicode="&#xe0;" horiz-adv-x="381" 
d="M381 8c-21 -9 -62 -15 -94 -15c-43 0 -59 19 -66 36c-15 -20 -42 -34 -89 -34c-77 0 -108 40 -108 95c0 89 80 120 164 120c10 0 23 -1 28 -2v10c0 26 -10 36 -62 36c-34 0 -76 -8 -108 -20l18 87c29 9 70 16 110 16c98 0 160 -16 160 -122v-125c0 -12 4 -17 17 -17
c5 0 12 2 19 3zM216 122v25c-4 1 -15 1 -23 1c-38 0 -54 -12 -54 -34c0 -34 18 -39 37 -39c28 0 40 12 40 47zM285 381h-81l-109 92h108z" />
    <glyph glyph-name="aacute" unicode="&#xe1;" horiz-adv-x="381" 
d="M381 8c-21 -9 -62 -15 -94 -15c-43 0 -59 19 -66 36c-15 -20 -42 -34 -89 -34c-77 0 -108 40 -108 95c0 89 80 120 164 120c10 0 23 -1 28 -2v10c0 26 -10 36 -62 36c-34 0 -76 -8 -108 -20l18 87c29 9 70 16 110 16c98 0 160 -16 160 -122v-125c0 -12 4 -17 17 -17
c5 0 12 2 19 3zM216 122v25c-4 1 -15 1 -23 1c-38 0 -54 -12 -54 -34c0 -34 18 -39 37 -39c28 0 40 12 40 47zM286 473l-109 -92h-82l83 92h108z" />
    <glyph glyph-name="acircumflex" unicode="&#xe2;" horiz-adv-x="381" 
d="M381 8c-21 -9 -62 -15 -94 -15c-43 0 -59 19 -66 36c-15 -20 -42 -34 -89 -34c-77 0 -108 40 -108 95c0 89 80 120 164 120c10 0 23 -1 28 -2v10c0 26 -10 36 -62 36c-34 0 -76 -8 -108 -20l18 87c29 9 70 16 110 16c98 0 160 -16 160 -122v-125c0 -12 4 -17 17 -17
c5 0 12 2 19 3zM216 122v25c-4 1 -15 1 -23 1c-38 0 -54 -12 -54 -34c0 -34 18 -39 37 -39c28 0 40 12 40 47zM317 381h-90l-37 42l-37 -42h-90l85 92h84z" />
    <glyph glyph-name="atilde" unicode="&#xe3;" horiz-adv-x="381" 
d="M381 8c-21 -9 -62 -15 -94 -15c-43 0 -59 19 -66 36c-15 -20 -42 -34 -89 -34c-77 0 -108 40 -108 95c0 89 80 120 164 120c10 0 23 -1 28 -2v10c0 26 -10 36 -62 36c-34 0 -76 -8 -108 -20l18 87c29 9 70 16 110 16c98 0 160 -16 160 -122v-125c0 -12 4 -17 17 -17
c5 0 12 2 19 3zM216 122v25c-4 1 -15 1 -23 1c-38 0 -54 -12 -54 -34c0 -34 18 -39 37 -39c28 0 40 12 40 47zM325 477c0 -74 -21 -99 -67 -99c-37 0 -93 32 -115 32c-14 0 -21 -6 -21 -32h-66c0 72 17 103 67 103c37 0 92 -32 115 -32c15 0 21 2 21 28h66z" />
    <glyph glyph-name="adieresis" unicode="&#xe4;" horiz-adv-x="381" 
d="M381 8c-21 -9 -62 -15 -94 -15c-43 0 -59 19 -66 36c-15 -20 -42 -34 -89 -34c-77 0 -108 40 -108 95c0 89 80 120 164 120c10 0 23 -1 28 -2v10c0 26 -10 36 -62 36c-34 0 -76 -8 -108 -20l18 87c29 9 70 16 110 16c98 0 160 -16 160 -122v-125c0 -12 4 -17 17 -17
c5 0 12 2 19 3zM216 122v25c-4 1 -15 1 -23 1c-38 0 -54 -12 -54 -34c0 -34 18 -39 37 -39c28 0 40 12 40 47zM332 433c0 -35 -25 -63 -60 -63c-34 0 -61 28 -61 63c0 34 27 63 61 63c35 0 60 -29 60 -63zM169 433c0 -35 -26 -63 -60 -63s-61 28 -61 63c0 34 27 63 61 63
s60 -29 60 -63z" />
    <glyph glyph-name="aring" unicode="&#xe5;" horiz-adv-x="381" 
d="M381 8c-21 -9 -62 -15 -94 -15c-43 0 -59 19 -66 36c-15 -20 -42 -34 -89 -34c-77 0 -108 40 -108 95c0 89 80 120 164 120c10 0 23 -1 28 -2v10c0 26 -10 36 -62 36c-34 0 -76 -8 -108 -20l18 87c29 9 70 16 110 16c98 0 160 -16 160 -122v-125c0 -12 4 -17 17 -17
c5 0 12 2 19 3zM216 122v25c-4 1 -15 1 -23 1c-38 0 -54 -12 -54 -34c0 -34 18 -39 37 -39c28 0 40 12 40 47zM255 435c0 -37 -28 -65 -65 -65c-36 0 -65 28 -65 65c0 36 30 65 67 65c36 0 63 -29 63 -65zM218 435c0 14 -13 27 -28 27c-14 0 -27 -13 -27 -27
c0 -15 13 -28 27 -28c15 0 28 13 28 28z" />
    <glyph glyph-name="ae" unicode="&#xe6;" horiz-adv-x="571" 
d="M544 193c0 -12 -2 -40 -4 -54h-206c-1 -42 19 -62 85 -62c48 0 77 6 119 20l-19 -88c-38 -10 -66 -14 -126 -14c-58 0 -92 17 -117 44c-35 -35 -74 -44 -130 -44c-66 0 -122 26 -122 95c0 89 72 116 164 116c9 0 23 -1 28 -2v14c0 26 -10 36 -62 36
c-39 0 -77 -9 -108 -20l18 87c28 9 70 16 110 16c49 0 84 -9 111 -33c28 19 64 33 103 33c102 0 156 -61 156 -144zM430 201c4 51 -21 61 -49 61c-35 0 -47 -28 -47 -61h96zM216 122v21c-7 0 -18 1 -23 1c-39 0 -54 -15 -54 -37c0 -29 23 -32 37 -32c20 0 40 12 40 47z" />
    <glyph glyph-name="ccedilla" unicode="&#xe7;" horiz-adv-x="327" 
d="M312 99l-19 -89c-24 -9 -61 -15 -95 -15c-51 0 -170 13 -170 174c0 79 42 168 179 168c36 0 80 -8 105 -16l-19 -90c-19 9 -39 15 -65 15c-68 0 -79 -37 -79 -80c0 -54 18 -80 87 -80c25 0 58 8 76 13zM242 -43l-77 -108h-80l58 108h99z" />
    <glyph glyph-name="egrave" unicode="&#xe8;" horiz-adv-x="386" 
d="M359 188c0 -14 -2 -37 -3 -54h-207c-1 -37 23 -57 85 -57c44 0 89 9 120 20l-19 -88c-30 -8 -88 -14 -126 -14c-142 0 -179 69 -179 162c0 90 41 180 167 180c119 0 162 -68 162 -149zM245 195c4 50 -15 67 -48 67c-37 0 -48 -27 -48 -67h96zM288 381h-81l-109 92h108z
" />
    <glyph glyph-name="eacute" unicode="&#xe9;" horiz-adv-x="386" 
d="M359 188c0 -14 -2 -37 -3 -54h-207c-1 -37 23 -57 85 -57c44 0 89 9 120 20l-19 -88c-30 -8 -88 -14 -126 -14c-142 0 -179 69 -179 162c0 90 41 180 167 180c119 0 162 -68 162 -149zM245 195c4 50 -15 67 -48 67c-37 0 -48 -27 -48 -67h96zM288 473l-109 -92h-82l83 92
h108z" />
    <glyph glyph-name="ecircumflex" unicode="&#xea;" horiz-adv-x="386" 
d="M359 188c0 -14 -2 -37 -3 -54h-207c-1 -37 23 -57 85 -57c44 0 89 9 120 20l-19 -88c-30 -8 -88 -14 -126 -14c-142 0 -179 69 -179 162c0 90 41 180 167 180c119 0 162 -68 162 -149zM245 195c4 50 -15 67 -48 67c-37 0 -48 -27 -48 -67h96zM320 381h-90l-37 42l-37 -42
h-90l85 92h84z" />
    <glyph glyph-name="edieresis" unicode="&#xeb;" horiz-adv-x="386" 
d="M359 188c0 -14 -2 -37 -3 -54h-207c-1 -37 23 -57 85 -57c44 0 89 9 120 20l-19 -88c-30 -8 -88 -14 -126 -14c-142 0 -179 69 -179 162c0 90 41 180 167 180c119 0 162 -68 162 -149zM245 195c4 50 -15 67 -48 67c-37 0 -48 -27 -48 -67h96zM335 433
c0 -35 -25 -63 -60 -63c-34 0 -61 28 -61 63c0 34 27 63 61 63c35 0 60 -29 60 -63zM172 433c0 -35 -26 -63 -60 -63s-61 28 -61 63c0 34 27 63 61 63s60 -29 60 -63z" />
    <glyph glyph-name="igrave" unicode="&#xec;" horiz-adv-x="215" 
d="M209 8c-18 -7 -55 -15 -97 -15c-31 0 -69 11 -69 69v270h118v-242c0 -12 5 -17 17 -17c5 0 12 2 20 3zM202 381h-81l-109 92h108z" />
    <glyph glyph-name="iacute" unicode="&#xed;" horiz-adv-x="215" 
d="M209 8c-18 -7 -55 -15 -97 -15c-31 0 -69 11 -69 69v270h118v-242c0 -12 5 -17 17 -17c5 0 12 2 20 3zM203 473l-109 -92h-82l83 92h108z" />
    <glyph glyph-name="icircumflex" unicode="&#xee;" horiz-adv-x="215" 
d="M209 8c-18 -7 -55 -15 -97 -15c-31 0 -69 11 -69 69v270h118v-242c0 -12 5 -17 17 -17c5 0 12 2 20 3zM235 381h-90l-37 42l-37 -42h-90l85 92h84z" />
    <glyph glyph-name="idieresis" unicode="&#xef;" horiz-adv-x="215" 
d="M209 8c-18 -7 -55 -15 -97 -15c-31 0 -69 11 -69 69v270h118v-242c0 -12 5 -17 17 -17c5 0 12 2 20 3zM250 433c0 -35 -25 -63 -60 -63c-34 0 -61 28 -61 63c0 34 27 63 61 63c35 0 60 -29 60 -63zM87 433c0 -35 -26 -63 -60 -63s-61 28 -61 63c0 34 27 63 61 63
s60 -29 60 -63z" />
    <glyph glyph-name="eth" unicode="&#xf0;" horiz-adv-x="416" 
d="M388 395l-62 -11c36 -56 59 -123 59 -218c0 -137 -93 -171 -178 -171s-179 28 -179 171c0 129 81 171 158 171c12 0 38 -3 48 -7c-6 13 -10 24 -16 36l-75 -13l-11 65l53 10c-10 16 -17 28 -26 39h117l15 -22l86 15zM264 166c0 36 -8 66 -16 81c-9 7 -26 13 -41 13
c-36 0 -58 -20 -58 -94s22 -94 58 -94s57 20 57 94z" />
    <glyph glyph-name="ntilde" unicode="&#xf1;" horiz-adv-x="412" 
d="M412 8c-17 -7 -55 -15 -97 -15c-31 0 -69 11 -69 69v140c0 25 0 37 -28 37c-26 0 -53 -21 -61 -28v-211h-118v332h118v-34c21 16 52 39 106 39c67 0 102 -14 102 -103v-144c0 -12 4 -17 16 -17c5 0 12 2 20 3zM340 477c0 -74 -21 -99 -67 -99c-37 0 -93 32 -115 32
c-14 0 -21 -6 -21 -32h-66c0 72 17 103 67 103c37 0 92 -32 115 -32c15 0 21 2 21 28h66z" />
    <glyph glyph-name="ograve" unicode="&#xf2;" horiz-adv-x="412" 
d="M384 166c0 -143 -93 -171 -177 -171c-85 0 -179 28 -179 171s94 171 179 171s177 -28 177 -171zM264 166c0 74 -22 94 -57 94c-36 0 -58 -20 -58 -94s22 -94 58 -94c35 0 57 20 57 94zM301 381h-81l-109 92h108z" />
    <glyph glyph-name="oacute" unicode="&#xf3;" horiz-adv-x="412" 
d="M384 166c0 -143 -93 -171 -177 -171c-85 0 -179 28 -179 171s94 171 179 171s177 -28 177 -171zM264 166c0 74 -22 94 -57 94c-36 0 -58 -20 -58 -94s22 -94 58 -94c35 0 57 20 57 94zM301 473l-109 -92h-82l83 92h108z" />
    <glyph glyph-name="ocircumflex" unicode="&#xf4;" horiz-adv-x="412" 
d="M384 166c0 -143 -93 -171 -177 -171c-85 0 -179 28 -179 171s94 171 179 171s177 -28 177 -171zM264 166c0 74 -22 94 -57 94c-36 0 -58 -20 -58 -94s22 -94 58 -94c35 0 57 20 57 94zM333 381h-90l-37 42l-37 -42h-90l85 92h84z" />
    <glyph glyph-name="otilde" unicode="&#xf5;" horiz-adv-x="412" 
d="M384 166c0 -143 -93 -171 -177 -171c-85 0 -179 28 -179 171s94 171 179 171s177 -28 177 -171zM264 166c0 74 -22 94 -57 94c-36 0 -58 -20 -58 -94s22 -94 58 -94c35 0 57 20 57 94zM340 477c0 -74 -21 -99 -67 -99c-37 0 -93 32 -115 32c-14 0 -21 -6 -21 -32h-66
c0 72 17 103 67 103c37 0 92 -32 115 -32c15 0 21 2 21 28h66z" />
    <glyph glyph-name="odieresis" unicode="&#xf6;" horiz-adv-x="412" 
d="M384 166c0 -143 -93 -171 -177 -171c-85 0 -179 28 -179 171s94 171 179 171s177 -28 177 -171zM264 166c0 74 -22 94 -57 94c-36 0 -58 -20 -58 -94s22 -94 58 -94c35 0 57 20 57 94zM348 433c0 -35 -25 -63 -60 -63c-34 0 -61 28 -61 63c0 34 27 63 61 63
c35 0 60 -29 60 -63zM185 433c0 -35 -26 -63 -60 -63s-61 28 -61 63c0 34 27 63 61 63s60 -29 60 -63z" />
    <glyph glyph-name="divide" unicode="&#xf7;" horiz-adv-x="358" 
d="M243 372c0 -36 -28 -66 -64 -66c-35 0 -64 30 -64 66c0 37 29 67 64 67c36 0 64 -30 64 -67zM318 181h-278v95h278v-95zM249 85c0 -36 -28 -66 -64 -66s-65 30 -65 66c0 37 29 67 65 67s64 -30 64 -67z" />
    <glyph glyph-name="oslash" unicode="&#xf8;" horiz-adv-x="412" 
d="M384 166c0 -143 -93 -171 -177 -171c-23 0 -47 2 -69 8l-20 -32h-63l34 54c-36 25 -61 67 -61 141c0 143 94 171 179 171c23 0 47 -2 70 -8l17 27h63l-31 -50c35 -25 58 -68 58 -140zM232 255c-8 4 -16 5 -25 5c-36 0 -58 -20 -58 -94c0 -16 0 -29 2 -40zM264 166
c0 14 -1 26 -2 36l-78 -126c7 -3 14 -4 23 -4c35 0 57 20 57 94z" />
    <glyph glyph-name="ugrave" unicode="&#xf9;" horiz-adv-x="412" 
d="M412 8c-21 -9 -62 -15 -94 -15c-49 0 -63 28 -70 43c-34 -28 -70 -41 -108 -41c-65 0 -101 21 -101 104v233h118v-199c0 -27 3 -38 28 -38c27 0 53 21 61 29v208h118v-242c0 -12 5 -17 17 -17c5 0 12 2 20 3zM301 381h-81l-109 92h108z" />
    <glyph glyph-name="uacute" unicode="&#xfa;" horiz-adv-x="412" 
d="M412 8c-21 -9 -62 -15 -94 -15c-49 0 -63 28 -70 43c-34 -28 -70 -41 -108 -41c-65 0 -101 21 -101 104v233h118v-199c0 -27 3 -38 28 -38c27 0 53 21 61 29v208h118v-242c0 -12 5 -17 17 -17c5 0 12 2 20 3zM301 473l-109 -92h-82l83 92h108z" />
    <glyph glyph-name="ucircumflex" unicode="&#xfb;" horiz-adv-x="412" 
d="M412 8c-21 -9 -62 -15 -94 -15c-49 0 -63 28 -70 43c-34 -28 -70 -41 -108 -41c-65 0 -101 21 -101 104v233h118v-199c0 -27 3 -38 28 -38c27 0 53 21 61 29v208h118v-242c0 -12 5 -17 17 -17c5 0 12 2 20 3zM333 381h-90l-37 42l-37 -42h-90l85 92h84z" />
    <glyph glyph-name="udieresis" unicode="&#xfc;" horiz-adv-x="412" 
d="M412 8c-21 -9 -62 -15 -94 -15c-49 0 -63 28 -70 43c-34 -28 -70 -41 -108 -41c-65 0 -101 21 -101 104v233h118v-199c0 -27 3 -38 28 -38c27 0 53 21 61 29v208h118v-242c0 -12 5 -17 17 -17c5 0 12 2 20 3zM348 433c0 -35 -25 -63 -60 -63c-34 0 -61 28 -61 63
c0 34 27 63 61 63c35 0 60 -29 60 -63zM185 433c0 -35 -26 -63 -60 -63s-61 28 -61 63c0 34 27 63 61 63s60 -29 60 -63z" />
    <glyph glyph-name="yacute" unicode="&#xfd;" horiz-adv-x="372" 
d="M365 332l-120 -332c-45 -124 -98 -135 -147 -135s-78 11 -102 24l20 83c16 -12 34 -21 60 -21c29 0 45 19 53 49l-123 332h125l58 -183l51 183h125zM281 473l-109 -92h-82l83 92h108z" />
    <glyph glyph-name="thorn" unicode="&#xfe;" horiz-adv-x="415" 
d="M385 167c0 -108 -54 -172 -164 -172c-18 0 -51 6 -64 10v-135h-118v597h117v-169c16 20 37 39 100 39c68 0 129 -46 129 -170zM265 166c0 65 -14 90 -47 90c-27 0 -61 -8 -61 -72v-98c2 0 25 -10 50 -10c43 0 58 17 58 90z" />
    <glyph glyph-name="ydieresis" unicode="&#xff;" horiz-adv-x="372" 
d="M365 332l-120 -332c-45 -124 -98 -135 -147 -135s-78 11 -102 24l20 83c16 -12 34 -21 60 -21c29 0 45 19 53 49l-123 332h125l58 -183l51 183h125zM328 433c0 -35 -25 -63 -60 -63c-34 0 -61 28 -61 63c0 34 27 63 61 63c35 0 60 -29 60 -63zM165 433
c0 -35 -26 -63 -60 -63s-61 28 -61 63c0 34 27 63 61 63s60 -29 60 -63z" />
    <glyph glyph-name="dotlessi" unicode="&#x131;" horiz-adv-x="215" 
d="M209 8c-18 -7 -55 -15 -97 -15c-31 0 -69 11 -69 69v270h118v-242c0 -12 5 -17 17 -17c5 0 12 2 20 3z" />
    <glyph glyph-name="Lslash" unicode="&#x141;" horiz-adv-x="375" 
d="M358 101l-16 -101h-274v186l-56 -33v100l56 33v181h130v-104l87 51v-100l-87 -51v-162h160z" />
    <glyph glyph-name="lslash" unicode="&#x142;" horiz-adv-x="242" 
d="M232 281l-50 -29v-162c0 -11 5 -17 18 -17c5 0 11 1 19 3l11 -68c-22 -11 -72 -15 -100 -15c-24 0 -66 12 -66 69v120l-48 -29v100l48 28v186h118v-115l50 29v-100z" />
    <glyph glyph-name="OE" unicode="&#x152;" horiz-adv-x="696" 
d="M672 101l-16 -101h-296v21c-30 -19 -73 -29 -101 -29c-120 0 -223 64 -223 241s103 242 223 242c52 0 82 -13 101 -31v23h312l-16 -101h-165v-77h151l-16 -101h-135v-87h181zM362 233c0 99 -35 141 -96 141s-97 -42 -97 -141c0 -100 36 -141 97 -141s96 41 96 141z" />
    <glyph glyph-name="oe" unicode="&#x153;" horiz-adv-x="616" 
d="M589 188c0 -12 -2 -38 -4 -54h-206c-1 -37 22 -57 85 -57c40 0 93 9 119 20l-19 -88c-28 -7 -65 -14 -126 -14c-56 0 -94 14 -121 36c-32 -25 -73 -36 -110 -36c-85 0 -179 28 -179 171s94 171 179 171c40 0 84 -9 117 -37c24 23 58 37 102 37c119 0 163 -68 163 -149z
M475 195c4 50 -16 67 -49 67c-37 0 -47 -27 -47 -67h96zM264 166c0 74 -22 94 -57 94c-36 0 -58 -20 -58 -94s22 -94 58 -94c35 0 57 20 57 94z" />
    <glyph glyph-name="Scaron" unicode="&#x160;" horiz-adv-x="371" 
d="M351 144c0 -98 -65 -152 -177 -152c-58 0 -105 9 -147 25l17 108c30 -12 80 -28 128 -28c20 0 53 5 53 37c0 68 -200 49 -200 208c0 94 75 133 177 133c47 0 91 -12 128 -27l-16 -106c-38 17 -68 28 -114 28c-43 0 -49 -12 -49 -26c0 -58 200 -46 200 -200zM312 608
l-85 -92h-84l-85 92h90l37 -43l37 43h90z" />
    <glyph glyph-name="scaron" unicode="&#x161;" horiz-adv-x="319" 
d="M297 94c0 -65 -62 -99 -142 -99c-58 0 -99 7 -128 15l19 85c20 -10 64 -20 95 -20c33 0 41 8 41 22c0 42 -148 26 -148 144c0 72 63 96 144 96c37 0 76 -6 111 -16l-17 -84c-25 10 -53 21 -85 21c-25 0 -32 -7 -32 -19c0 -36 142 -23 142 -145zM286 473l-85 -92h-84
l-85 92h90l37 -43l37 43h90z" />
    <glyph glyph-name="Ydieresis" unicode="&#x178;" horiz-adv-x="437" 
d="M430 467l-145 -289v-178h-131v178l-147 289h139l73 -168l73 168h138zM360 568c0 -35 -25 -63 -60 -63c-34 0 -61 28 -61 63c0 34 27 63 61 63c35 0 60 -29 60 -63zM197 568c0 -35 -26 -63 -60 -63s-61 28 -61 63c0 34 27 63 61 63s60 -29 60 -63z" />
    <glyph glyph-name="Zcaron" unicode="&#x17d;" horiz-adv-x="430" 
d="M396 0h-368v86l197 279h-191l15 101h342v-85l-201 -280h206v-101zM342 608l-85 -92h-84l-85 92h90l37 -43l37 43h90z" />
    <glyph glyph-name="zcaron" unicode="&#x17e;" horiz-adv-x="325" 
d="M311 0h-282v71l133 179h-133l18 82h258v-70l-136 -179h142v-83zM289 473l-85 -92h-84l-85 92h90l37 -43l37 43h90z" />
    <glyph glyph-name="florin" unicode="&#x192;" horiz-adv-x="324" 
d="M322 462l-20 -86c-8 4 -29 12 -45 12c-31 0 -59 -6 -63 -70l-3 -54h65v-83h-70l-13 -171c-8 -113 -72 -140 -167 -140c-10 0 -21 2 -32 4l8 84c10 -2 18 -4 26 -4c31 0 44 21 49 87l10 140h-55l18 83h42l5 62c11 141 96 147 168 147c33 0 57 -5 77 -11z" />
    <glyph glyph-name="circumflex" unicode="&#x2c6;" horiz-adv-x="254" 
d="M254 381h-90l-37 42l-37 -42h-90l85 92h84z" />
    <glyph glyph-name="caron" unicode="&#x2c7;" horiz-adv-x="254" 
d="M254 473l-85 -92h-84l-85 92h90l37 -43l37 43h90z" />
    <glyph glyph-name="breve" unicode="&#x2d8;" horiz-adv-x="231" 
d="M231 477c0 -66 -56 -100 -115 -100c-57 0 -116 30 -116 100h70c0 -29 26 -42 46 -42c27 0 46 14 46 42h69z" />
    <glyph glyph-name="dotaccent" unicode="&#x2d9;" horiz-adv-x="121" 
d="M121 433c0 -35 -26 -63 -61 -63c-34 0 -60 28 -60 63c0 34 26 63 60 63c35 0 61 -29 61 -63z" />
    <glyph glyph-name="ring" unicode="&#x2da;" horiz-adv-x="130" 
d="M130 435c0 -37 -28 -65 -65 -65c-36 0 -65 28 -65 65c0 36 30 65 67 65c36 0 63 -29 63 -65zM93 435c0 14 -13 27 -28 27c-14 0 -27 -13 -27 -27c0 -15 13 -28 27 -28c15 0 28 13 28 28z" />
    <glyph glyph-name="ogonek" unicode="&#x2db;" horiz-adv-x="142" 
d="M142 -83l-9 -45c-6 -4 -25 -8 -44 -8c-51 0 -89 12 -89 71c0 34 38 61 61 68h65c-31 -11 -65 -35 -65 -62s25 -33 36 -33c23 0 33 3 45 9z" />
    <glyph glyph-name="tilde" unicode="&#x2dc;" horiz-adv-x="269" 
d="M269 477c0 -74 -21 -99 -67 -99c-37 0 -93 32 -115 32c-14 0 -21 -6 -21 -32h-66c0 72 17 103 67 103c37 0 92 -32 115 -32c15 0 21 2 21 28h66z" />
    <glyph glyph-name="hungarumlaut" unicode="&#x2dd;" horiz-adv-x="338" 
d="M338 473l-109 -92h-82l83 92h108zM191 473l-109 -92h-82l83 92h108z" />
    <glyph glyph-name="lefttorightmark" unicode="&#x2ea;" horiz-adv-x="1" 
d="M58 544l47 -47l-47 -47l-10 11l29 29h-60v-554h-16v569h75l-28 28z" />
    <glyph glyph-name="righttoleftmark" unicode="&#x2eb;" horiz-adv-x="-1" 
d="M-89 497l47 47l11 -11l-28 -28h74v-576h-16v561h-60l30 -29l-11 -11z" />
    <glyph glyph-name="colonarabic" unicode="&#x5c3;" horiz-adv-x="228" 
d="M186 269c0 -40 -35 -71 -73 -71s-71 31 -71 71s33 73 71 73s73 -33 73 -73zM186 63c0 -40 -35 -71 -72 -71c-38 0 -71 31 -71 71c0 41 33 73 71 73c37 0 72 -32 72 -73z" />
    <glyph glyph-name="periodarabic" unicode="&#x5c4;" horiz-adv-x="211" 
d="M34 65c0 40 35 71 73 71c37 0 70 -31 70 -71s-33 -73 -70 -73c-38 0 -73 33 -73 73z" />
    <glyph glyph-name="commaarabic" unicode="&#x60c;" horiz-adv-x="211" 
d="M34 73c0 90 60 147 136 180l25 -45c-44 -21 -65 -38 -65 -63c0 -28 47 -42 47 -84c0 -39 -22 -69 -67 -69c-40 0 -76 28 -76 81z" />
    <glyph glyph-name="semicolonarabic" unicode="&#x61b;" horiz-adv-x="227" 
d="M42 65c0 40 35 71 73 71c37 0 70 -31 70 -71s-33 -73 -70 -73c-38 0 -73 33 -73 73zM42 279c0 90 60 147 136 180l25 -45c-44 -21 -65 -38 -65 -63c0 -28 47 -42 47 -84c0 -39 -22 -69 -67 -69c-40 0 -76 28 -76 81z" />
    <glyph glyph-name="questionarabic" unicode="&#x61f;" horiz-adv-x="356" 
d="M309 291v-144h-117v32h-6c-95 0 -139 72 -139 144c0 86 57 144 140 144h122v-118h-117c-19 0 -28 -13 -28 -28s8 -30 28 -30h117zM306 52c0 -29 -25 -53 -55 -53c-29 0 -54 24 -54 53c0 31 25 55 54 55c30 0 55 -24 55 -55z" />
    <glyph glyph-name="kashidaarabic" unicode="&#x640;" horiz-adv-x="103" 
d="M0 117h108v-117h-108v117z" />
    <glyph glyph-name="fathatanarabic" unicode="&#x64b;" 
d="M0 643h143v-53h-143v53zM0 557h143v-52h-143v52z" />
    <glyph glyph-name="dammatanarabic" unicode="&#x64c;" 
d="M188 607c6 4 14 11 14 19c0 7 -5 13 -13 13c-7 0 -13 -6 -13 -13c0 -8 7 -14 12 -19zM145 577c-11 14 -20 29 -20 48c0 36 30 65 65 65c36 0 64 -31 64 -66c0 -22 -8 -37 -29 -51l16 -17l-40 -31l-19 17l-36 -27c-10 -8 -21 -15 -33 -15s-21 7 -35 25l-12 15l-19 -37
l-47 23l27 49c9 18 21 28 39 28c31 0 46 -42 55 -42c2 0 5 2 7 3z" />
    <glyph glyph-name="kasratanarabic" unicode="&#x64d;" 
d="M0 -39h143v-52h-143v52zM0 -124h143v-52h-143v52z" />
    <glyph glyph-name="fathaarabic" unicode="&#x64e;" 
d="M0 558h143v-53h-143v53z" />
    <glyph glyph-name="dammaarabic" unicode="&#x64f;" 
d="M132 621c6 5 14 10 14 19c0 7 -7 12 -14 12s-12 -5 -12 -12c0 -8 7 -14 12 -19zM90 591c-12 15 -21 31 -21 50c0 35 30 63 64 63c36 0 64 -29 64 -64c0 -23 -10 -41 -28 -54l15 -16l-39 -31l-19 17c-32 -23 -68 -40 -104 -54l-22 44c31 12 61 27 90 45z" />
    <glyph glyph-name="kasraarabic" unicode="&#x650;" 
d="M0 -39h143v-52h-143v52z" />
    <glyph glyph-name="shaddaarabic" unicode="&#x651;" 
d="M78 557v86h52v-86h20c7 0 7 2 7 5v81h52v-90c0 -25 -12 -48 -52 -48h-108c-34 0 -49 21 -49 48v90h52v-81c0 -5 3 -5 6 -5h20z" />
    <glyph glyph-name="sukunarabic" unicode="&#x652;" 
d="M130 569c0 -35 -29 -64 -65 -64s-65 29 -65 64c0 36 29 65 65 65c35 0 65 -29 65 -65zM78 569c0 7 -6 14 -13 14c-8 0 -14 -7 -14 -14s6 -14 14 -14c7 0 13 7 13 14z" />
    <glyph glyph-name="maddaabovearabic" unicode="&#x653;" 
d="M151 589l36 -37l-33 -33c-8 -8 -18 -14 -30 -14c-25 0 -48 26 -57 26c-3 0 -5 -3 -11 -8l-20 -20l-36 37l20 20c13 13 23 26 43 26c24 0 49 -26 56 -26c3 0 6 2 12 8z" />
    <glyph glyph-name="hamzaabovearabic" unicode="&#x654;" 
d="M124 643v-52h-29c-10 0 -22 -2 -22 -17c0 -12 9 -16 21 -16h49v-52h-143v52h24c-1 5 -2 12 -2 18c0 39 28 67 75 67h27z" />
    <glyph glyph-name="hamzabelowarabic" unicode="&#x655;" 
d="M124 -39v-51h-29c-10 0 -22 -2 -22 -17c0 -12 9 -16 21 -16h49v-52h-143v52h24c-1 5 -2 12 -2 18c0 38 28 67 75 67c7 0 20 0 27 -1z" />
    <glyph glyph-name="arabicindicdigitzero" unicode="&#x660;" horiz-adv-x="267" 
d="M220 220c0 -48 -39 -86 -86 -86c-48 0 -87 38 -87 86s39 87 87 87c46 0 86 -38 86 -87z" />
    <glyph glyph-name="arabicindicdigitone" unicode="&#x661;" horiz-adv-x="211" 
d="M164 467v-467h-117v467h117z" />
    <glyph glyph-name="arabicindicdigittwo" unicode="&#x662;" horiz-adv-x="363" 
d="M164 0h-117v329c0 82 57 138 143 138h126v-118h-133c-14 0 -19 -8 -19 -22v-327z" />
    <glyph glyph-name="arabicindicdigitthree" unicode="&#x663;" horiz-adv-x="561" 
d="M164 176v-176h-117v467h117v-174h58v174h117v-174h38c14 0 20 9 20 23v151h117v-153c0 -86 -60 -138 -143 -138h-207z" />
    <glyph glyph-name="arabicindicdigitfour" unicode="&#x664;" horiz-adv-x="363" 
d="M316 293v-119h-121c-17 0 -31 -12 -31 -30c0 -16 12 -27 31 -27h121v-117h-119c-89 0 -150 58 -150 144c0 32 12 62 31 90c-19 25 -32 50 -32 83c0 93 66 150 150 150h120v-118h-121c-19 0 -31 -11 -31 -27c0 -18 14 -29 31 -29h121z" />
    <glyph glyph-name="arabicindicdigitfive" unicode="&#x665;" horiz-adv-x="412" 
d="M48 193l16 147c8 79 68 126 142 126c80 0 133 -47 142 -127l15 -146c1 -11 2 -22 2 -33c0 -109 -72 -161 -159 -161c-93 0 -160 63 -160 147c0 16 0 31 2 47zM176 318l-14 -149c0 -3 -1 -9 -1 -12c0 -26 20 -42 46 -42s43 14 44 42c0 3 -1 7 -1 11l-15 150
c-2 21 -10 32 -29 32c-15 0 -28 -11 -30 -32z" />
    <glyph glyph-name="arabicindicdigitsix" unicode="&#x666;" horiz-adv-x="363" 
d="M199 0v327c0 12 -6 22 -20 22h-132v118h131c90 0 138 -67 138 -138v-329h-117z" />
    <glyph glyph-name="arabicindicdigitseven" unicode="&#x667;" horiz-adv-x="452" 
d="M287 467h118l-55 -336c-11 -70 -43 -132 -124 -132c-98 0 -115 76 -124 132l-55 336h118l55 -342c1 -7 3 -8 6 -8s5 1 6 8z" />
    <glyph glyph-name="arabicindicdigiteight" unicode="&#x668;" horiz-adv-x="452" 
d="M165 0h-118l55 336c11 70 44 132 124 132c98 0 115 -76 124 -132l55 -336h-118l-55 342c-1 7 -3 8 -6 8s-5 -1 -6 -8z" />
    <glyph glyph-name="arabicindicdigitnine" unicode="&#x669;" horiz-adv-x="386" 
d="M222 293v56h-39c-16 0 -19 -12 -19 -21v-14c0 -10 5 -21 19 -21h39zM222 0v176h-32c-91 0 -143 56 -143 138v15c0 82 54 138 143 138h149v-467h-117z" />
    <glyph glyph-name="percentarabic" unicode="&#x66a;" horiz-adv-x="419" 
d="M373 467l-199 -467h-127l198 467h128zM122 433c27 0 47 -19 47 -46c0 -26 -21 -48 -47 -48s-47 21 -47 47c0 24 18 47 47 47zM296 126c27 0 48 -20 48 -46s-22 -49 -48 -49s-47 22 -47 48c0 24 18 47 47 47z" />
    <glyph glyph-name="decimalseparator" unicode="&#x66b;" horiz-adv-x="232" 
d="M195 55c0 -90 -60 -147 -136 -180l-25 45c44 21 65 38 65 63c0 28 -47 42 -47 84c0 39 22 69 67 69c40 0 76 -28 76 -81z" />
    <glyph glyph-name="thousandsseparatorarabic" unicode="&#x66c;" horiz-adv-x="232" 
d="M34 73c0 90 60 147 136 180l25 -45c-44 -21 -65 -38 -65 -63c0 -28 47 -42 47 -84c0 -39 -22 -69 -67 -69c-40 0 -76 28 -76 81z" />
    <glyph glyph-name="asteriskarabic" unicode="&#x66d;" horiz-adv-x="463" 
d="M416 176l-93 -31l57 -76l-95 -69l-53 73l-55 -73l-95 69l57 76l-92 31l35 112l91 -30v97h117v-97l91 30z" />
    <glyph glyph-name="superscriptalef" unicode="&#x670;" 
d="M0 676v165h52v-165h-52z" />
    <glyph glyph-name="hehgoalhamzaabovearabic" unicode="&#x6c2;" horiz-adv-x="386" 
d="M339 332v-194c0 -88 -65 -139 -147 -139c-90 0 -145 60 -145 139v56c0 80 54 138 141 138h151zM222 214h-39c-15 0 -19 -10 -19 -22v-44c0 -21 11 -32 28 -32c18 0 30 11 30 32v66zM246 508v-52h-29c-10 0 -22 -2 -22 -17c0 -11 9 -16 21 -16h49v-51h-143v51h24
c-1 6 -3 12 -3 19c0 38 29 67 75 67c8 0 21 0 28 -1z" />
    <glyph glyph-name="tehmarbutagoal" unicode="&#x6c3;" horiz-adv-x="386" 
d="M339 332v-194c0 -69 -46 -139 -147 -139c-100 0 -145 70 -145 139v56c0 80 57 138 139 138h153zM222 214h-39c-12 0 -19 -8 -19 -22v-46c0 -19 10 -30 28 -30c20 0 30 13 30 30v68zM309 425c0 -29 -24 -53 -54 -53s-55 24 -55 53c0 31 25 55 55 55s54 -24 54 -55z
M190 425c0 -29 -25 -53 -55 -53c-29 0 -54 24 -54 53c0 31 25 55 54 55c30 0 55 -24 55 -55z" />
    <glyph glyph-name="extendedarabicindicdigitzero" unicode="&#x6f0;" horiz-adv-x="267" 
d="M220 220c0 -45 -38 -86 -86 -86s-87 38 -87 86s39 87 87 87c46 0 86 -39 86 -87z" />
    <glyph glyph-name="extendedarabicindicdigitone" unicode="&#x6f1;" horiz-adv-x="211" 
d="M164 467v-467h-117v467h117z" />
    <glyph glyph-name="extendedarabicindicdigittwo" unicode="&#x6f2;" horiz-adv-x="363" 
d="M164 0h-117v329c0 82 57 138 143 138h126v-118h-133c-14 0 -19 -8 -19 -22v-327z" />
    <glyph glyph-name="extendedarabicindicdigitthree" unicode="&#x6f3;" horiz-adv-x="561" 
d="M164 176v-176h-117v467h117v-174h58v174h117v-174h38c14 0 20 9 20 23v151h117v-153c0 -86 -60 -138 -143 -138h-207z" />
    <glyph glyph-name="extendedarabicindicdigitfour" unicode="&#x6f4;" horiz-adv-x="449" 
d="M400 313c-12 -90 -71 -137 -157 -137h-79v-176h-117v467h117v-34c56 30 106 34 163 34c8 0 16 0 24 -1v-115c-13 1 -20 1 -25 1c-53 0 -124 -6 -152 -59h55c39 0 44 2 54 20h117z" />
    <glyph glyph-name="extendedarabicindicdigitfive" unicode="&#x6f5;" horiz-adv-x="461" 
d="M230 31c-21 -21 -42 -32 -70 -32c-66 0 -114 54 -114 125c0 17 3 35 6 52l31 153c15 73 44 139 147 139c108 0 132 -66 147 -140l30 -140c4 -21 8 -42 8 -63c0 -60 -38 -126 -114 -126c-28 0 -48 10 -71 32zM230 192l15 -29c14 -28 27 -47 41 -47c10 0 14 6 14 16
c0 6 -2 13 -3 19l-33 166c-4 22 -12 34 -34 34c-25 0 -29 -14 -33 -33l-33 -167c-1 -6 -2 -13 -2 -19c0 -10 2 -16 13 -16c16 0 30 23 41 47z" />
    <glyph glyph-name="extendedarabicindicddigitsix" unicode="&#x6f6;" horiz-adv-x="449" 
d="M162 0h-115c12 69 41 127 95 183c-33 21 -69 61 -69 126c0 86 71 158 167 158c34 0 68 -6 101 -16v-114c-29 8 -58 16 -88 16c-24 0 -61 -8 -61 -42c0 -27 25 -44 45 -56c56 32 90 44 166 57v-116c-145 -27 -200 -100 -241 -196z" />
    <glyph glyph-name="extendedarabicindicdigitseven" unicode="&#x6f7;" horiz-adv-x="452" 
d="M287 467h118l-55 -336c-11 -70 -43 -132 -124 -132c-98 0 -115 76 -124 132l-55 336h118l55 -342c1 -7 3 -8 6 -8s5 1 6 8z" />
    <glyph glyph-name="extendedarabicindicdigiteight" unicode="&#x6f8;" horiz-adv-x="452" 
d="M165 0h-118l55 336c11 70 44 132 124 132c98 0 115 -76 124 -132l55 -336h-118l-55 342c-1 7 -3 8 -6 8s-5 -1 -6 -8z" />
    <glyph glyph-name="extendedarabicindicdigitnine" unicode="&#x6f9;" horiz-adv-x="386" 
d="M222 293v56h-39c-16 0 -19 -12 -19 -21v-14c0 -10 5 -21 19 -21h39zM222 0v176h-32c-91 0 -143 56 -143 138v15c0 82 54 138 143 138h149v-467h-117z" />
    <glyph glyph-name="zerowidthnonjoiner" unicode="&#x200c;" horiz-adv-x="-1" 
d="M20 499l36 -37l-11 -10l-28 29v-551h-16v551l-28 -29l-11 10l37 37l-37 36l11 11l36 -37l36 37l11 -11z" />
    <glyph glyph-name="endash" unicode="&#x2013;" horiz-adv-x="378" 
d="M364 160h-350v87h350v-87z" />
    <glyph glyph-name="emdash" unicode="&#x2014;" horiz-adv-x="728" 
d="M714 160h-700v87h700v-87z" />
    <glyph glyph-name="quoteleft" unicode="&#x2018;" horiz-adv-x="190" 
d="M173 467c-33 -16 -51 -32 -51 -53c0 -27 43 -35 43 -75c0 -35 -21 -62 -61 -62c-36 0 -68 25 -68 72c0 74 50 131 115 158z" />
    <glyph glyph-name="quoteright" unicode="&#x2019;" horiz-adv-x="190" 
d="M154 443c0 -73 -50 -131 -115 -158l-22 40c33 17 51 32 51 53c0 27 -43 35 -43 76c0 34 21 61 61 61c36 0 68 -24 68 -72z" />
    <glyph glyph-name="quotesinglbase" unicode="&#x201a;" horiz-adv-x="190" 
d="M154 66c0 -73 -50 -130 -115 -158l-22 41c33 16 51 31 51 52c0 28 -43 35 -43 76c0 34 21 62 61 62c36 0 68 -25 68 -73z" />
    <glyph glyph-name="quotedblleft" unicode="&#x201c;" horiz-adv-x="357" 
d="M340 475c-32 -17 -51 -32 -51 -53c0 -27 43 -35 43 -76c0 -34 -20 -61 -61 -61c-36 0 -68 24 -68 72c0 73 51 131 116 158zM173 475c-33 -17 -51 -32 -51 -53c0 -27 43 -35 43 -76c0 -34 -21 -61 -61 -61c-36 0 -68 24 -68 72c0 73 50 131 115 158z" />
    <glyph glyph-name="quotedblright" unicode="&#x201d;" horiz-adv-x="357" 
d="M321 443c0 -73 -50 -131 -115 -158l-22 40c33 17 51 32 51 53c0 27 -42 35 -42 76c0 34 20 61 61 61c35 0 67 -24 67 -72zM154 443c0 -73 -50 -131 -115 -158l-22 40c33 17 51 32 51 53c0 27 -43 35 -43 76c0 34 21 61 61 61c36 0 68 -24 68 -72z" />
    <glyph glyph-name="quotedblbase" unicode="&#x201e;" horiz-adv-x="357" 
d="M321 66c0 -73 -50 -130 -115 -158l-22 41c33 16 51 31 51 52c0 28 -42 35 -42 76c0 34 20 62 61 62c35 0 67 -25 67 -73zM154 66c0 -73 -50 -130 -115 -158l-22 41c33 16 51 31 51 52c0 28 -43 35 -43 76c0 34 21 62 61 62c36 0 68 -25 68 -73z" />
    <glyph glyph-name="dagger" unicode="&#x2020;" horiz-adv-x="357" 
d="M316 285l-92 10l14 -348h-119l14 348l-92 -10v98l92 -11l-14 147h119l-14 -147l92 11v-98z" />
    <glyph glyph-name="daggerdbl" unicode="&#x2021;" horiz-adv-x="357" 
d="M316 84l-92 10l14 -147h-119l14 147l-92 -10v98l92 -11v124l-92 -10v98l92 -11l-14 147h119l-14 -147l92 11v-98l-92 10v-124l92 11v-98z" />
    <glyph glyph-name="bullet" unicode="&#x2022;" horiz-adv-x="274" 
d="M238 211c0 -55 -46 -100 -101 -100c-56 0 -101 45 -101 100c0 56 45 101 101 101c55 0 101 -45 101 -101z" />
    <glyph glyph-name="ellipsis" unicode="&#x2026;" horiz-adv-x="596" 
d="M562 63c0 -40 -35 -71 -73 -71c-37 0 -70 31 -70 71c0 41 33 73 70 73c38 0 73 -32 73 -73zM379 63c0 -40 -35 -71 -72 -71c-38 0 -71 31 -71 71c0 41 33 73 71 73c37 0 72 -32 72 -73zM197 63c0 -40 -35 -71 -73 -71s-71 31 -71 71c0 41 33 73 71 73s73 -32 73 -73z" />
    <glyph glyph-name="perthousand" unicode="&#x2030;" horiz-adv-x="1098" 
d="M1074 127c0 -112 -74 -135 -141 -135s-140 24 -140 137c0 112 73 134 140 134s141 -23 141 -136zM733 127c0 -112 -73 -135 -141 -135c-67 0 -140 24 -140 137c0 112 73 134 140 134c68 0 141 -23 141 -136zM531 467l-240 -467h-75l241 467h74zM306 339
c0 -112 -73 -135 -141 -135c-67 0 -141 23 -141 135c0 113 74 136 141 136c68 0 141 -23 141 -136zM979 127c0 59 -18 75 -46 75s-45 -16 -45 -75c0 -58 17 -74 45 -74s46 16 46 74zM638 127c0 59 -18 75 -46 75s-45 -16 -45 -75c0 -58 17 -74 45 -74s46 16 46 74zM211 339
c0 59 -18 75 -46 75s-46 -16 -46 -75c0 -58 18 -74 46 -74s46 16 46 74z" />
    <glyph glyph-name="guilsinglleft" unicode="&#x2039;" horiz-adv-x="239" 
d="M219 59h-96l-85 127l85 124h96l-87 -124z" />
    <glyph glyph-name="guilsinglright" unicode="&#x203a;" horiz-adv-x="239" 
d="M201 186l-85 -127h-96l87 127l-87 124h96z" />
    <glyph glyph-name="fraction" unicode="&#x2044;" horiz-adv-x="355" 
d="M341 479l-252 -491h-75l253 491h74z" />
    <glyph glyph-name="Euro" unicode="&#x20ac;" horiz-adv-x="502" 
d="M459 111l-17 -103c-28 -9 -86 -16 -118 -16c-117 0 -206 44 -233 157h-64v72h56v24h-56v72h67c26 97 99 158 223 158c65 0 112 -12 138 -22l-15 -96c-30 14 -86 21 -119 21c-55 0 -86 -18 -101 -61h213l-13 -72h-211v-24h207l-12 -72h-186c15 -47 52 -60 118 -60
c46 0 88 10 123 22z" />
    <glyph glyph-name="trademark" unicode="&#x2122;" horiz-adv-x="470" 
d="M425 284h-51v111l-29 -111h-55l-30 111v-111h-51v183h82l27 -111l30 111h77v-183zM191 467l-5 -43h-47v-140h-54v140h-49v43h155z" />
    <glyph glyph-name="minus" unicode="&#x2212;" horiz-adv-x="378" 
d="M338 168h-298v95h298v-95z" />
    <glyph glyph-name="notequal" unicode="&#x2260;" horiz-adv-x="395" 
d="M355 134h-158l-24 -56h-75l23 56h-81v60h105l20 47h-125v75h156l24 56h75l-24 -56h84v-75h-114l-20 -47h134v-60z" />
    <glyph glyph-name="dottedcircle" unicode="&#x25cc;" horiz-adv-x="335" 
d="M263 215c0 -9 -4 -13 -12 -13c-9 0 -14 4 -14 13c0 8 5 12 14 12c8 0 12 -4 12 -12zM225 240c0 -9 -4 -13 -13 -13s-13 4 -13 13s4 13 13 13s13 -4 13 -13zM290 176c0 -9 -5 -13 -14 -13s-13 4 -13 13s5 13 14 13s13 -4 13 -13zM298 131c0 -9 -4 -13 -12 -13
c-9 0 -14 4 -14 13s5 13 14 13c8 0 12 -4 12 -13zM179 250c0 -9 -4 -13 -12 -13c-9 0 -13 4 -13 13c0 8 4 12 13 12c8 0 12 -4 12 -12zM290 86c0 -9 -5 -13 -14 -13s-13 4 -13 13s4 13 13 13s14 -4 14 -13zM134 240c0 -9 -4 -13 -12 -13c-9 0 -13 4 -13 13s4 13 13 13
c8 0 12 -4 12 -13zM97 215c0 -9 -5 -13 -14 -13c-8 0 -12 4 -12 12c0 9 4 13 12 13c9 0 14 -4 14 -12zM263 47c0 -9 -4 -13 -12 -13c-9 0 -13 4 -13 13s4 13 13 13c8 0 12 -4 12 -13zM225 22c0 -9 -4 -13 -13 -13s-13 4 -13 13s4 13 13 13s13 -4 13 -13zM71 176
c0 -9 -4 -13 -13 -13s-13 4 -13 13s4 13 13 13s13 -4 13 -13zM62 131c0 -9 -4 -13 -13 -13s-13 4 -13 13s4 13 13 13s13 -4 13 -13zM179 13c0 -9 -4 -13 -12 -13c-9 0 -13 4 -13 13s4 13 13 13c8 0 12 -4 12 -13zM134 22c0 -9 -4 -13 -12 -13c-9 0 -13 4 -13 13s4 13 13 13
c8 0 12 -4 12 -13zM71 86c0 -9 -4 -13 -13 -13s-13 4 -13 13s4 13 13 13s13 -4 13 -13zM97 47c0 -9 -4 -13 -13 -13s-13 4 -13 13s4 13 12 13c9 0 14 -4 14 -13z" />
    <glyph glyph-name="extendedarabicindicdigitfoururdu" unicode="&#xf805;" horiz-adv-x="533" 
d="M487 349h-28c-85 0 -123 -80 -153 -178c-37 98 -77 173 -142 178v-349h-117v467h90c67 0 127 -13 168 -66c48 63 103 66 182 66v-118z" />
    <glyph glyph-name="extendedarabicindicdigitsevenurdu" unicode="&#xf806;" horiz-adv-x="561" 
d="M514 118v-118l-336 55c-70 11 -132 44 -132 124c0 98 76 115 132 124l336 55v-118l-341 -55c-7 -1 -9 -3 -9 -6s2 -4 9 -5z" />
    <glyph glyph-name="decoratedbracketleft" unicode="&#xfd3e;" horiz-adv-x="534" 
d="M267 92l-57 57l57 57l57 -57zM171 149l37 -37l-93 -92v79l-68 29v38l68 26v87l95 -93zM363 149l-37 37l93 93v-87l68 -26v-38l-68 -29v-79l-93 92zM330 301h67l-93 -93l-37 38l-37 -38l-93 93h63c37 83 88 146 151 209l105 -51c-49 -47 -93 -97 -126 -158zM330 -2
c30 -61 77 -111 126 -159l-105 -50c-63 63 -115 130 -151 209h-63l93 92l37 -37l37 37l93 -92h-67z" />
    <glyph glyph-name="decoratedbracketright" unicode="&#xfd3f;" horiz-adv-x="534" 
d="M324 149l-57 -57l-57 57l57 57zM326 112l37 37l-39 37l95 93v-87l68 -26v-38l-68 -29v-79zM208 186l-37 -37l37 -37l-93 -92v79l-68 29v38l68 26v87zM137 301h67c-33 61 -77 111 -126 158l105 51c63 -63 114 -126 151 -209h63l-93 -93l-37 38l-37 -38zM204 -2h-67l93 92
l37 -37l37 37l93 -92h-63c-36 -79 -88 -146 -151 -209l-105 50c49 48 96 98 126 159z" />
    <glyph glyph-name="zerowidthjoiner" unicode="&#xfeff;" 
d="M15 503v-562h-15v562h15z" />
    <glyph glyph-name="aleflaminitial" horiz-adv-x="414" 
d="M367 0l-116 -66v385c0 22 -12 32 -29 32c-18 0 -30 -10 -30 -33v-180c0 -79 -57 -138 -132 -138h-60v117h55c11 0 21 8 21 19v182c0 83 44 150 146 150c99 0 145 -66 145 -150v-318z" />
    <glyph glyph-name="ainlamalefmaksura" horiz-adv-x="1127" 
d="M1081 0h-568c-5 -127 -130 -178 -233 -178c-111 0 -233 58 -233 191v118l117 77v-178c0 -75 67 -89 118 -89c36 0 101 13 111 59h-68v117h189v350h117v-350h114c-3 7 -3 14 -3 21v56c0 86 60 138 141 138h152v-118h-157c-16 0 -19 -10 -19 -20v-51c0 -14 5 -26 20 -26
h202v-117z" />
    <glyph glyph-name="tatweel" horiz-adv-x="103" 
d="M0 117h108v-117h-108v117z" />
    </font>
</defs>
</svg>
